# MagicaVoxel @ Ephtracy

# material
mtllib Arbol4.mtl
usemtl palette

# normals
vn -1 0 0
vn 1 0 0
vn 0 0 1
vn 0 0 -1
vn 0 -1 0
vn 0 1 0

# texcoords
vt 0.283203 0.5
vt 0.298828 0.5
vt 0.814453 0.5
vt 0.822266 0.5

# verts
v -13 9 14
v -13 9 -13
v -13 11 14
v -13 11 -13
v -13 15 14
v -13 15 -13
v -13 17 14
v -13 17 -13
v -13 21 14
v -13 21 -13
v -13 23 14
v -13 23 -13
v -13 27 14
v -13 27 -13
v -13 29 14
v -13 29 -13
v -13 33 14
v -13 33 -13
v -9 0 8
v -9 0 -3
v -9 0 -4
v -9 0 -7
v -9 2 7
v -9 2 6
v -9 2 4
v -9 2 -0
v -9 8 7
v -9 8 6
v -9 9 8
v -9 9 4
v -9 9 -0
v -9 9 -3
v -9 9 -4
v -9 9 -7
v 8 0 8
v 8 0 5
v 8 0 3
v 8 0 1
v 8 0 -0
v 8 0 -2
v 8 0 -6
v 8 0 -7
v 8 9 8
v 8 9 5
v 8 9 3
v 8 9 1
v 8 9 -0
v 8 9 -2
v 8 9 -6
v 8 9 -7
v 12 9 14
v 12 9 -13
v 12 11 14
v 12 11 -13
v 12 15 14
v 12 15 -13
v 12 17 14
v 12 17 -13
v 12 21 14
v 12 21 -13
v 12 23 14
v 12 23 -13
v 12 27 14
v 12 27 -13
v 12 29 14
v 12 29 -13
v 12 33 14
v 12 33 -13
v -13 9 14
v -13 11 14
v -13 15 14
v -13 17 14
v -13 21 14
v -13 23 14
v -13 27 14
v -13 29 14
v -13 33 14
v 12 9 14
v 12 11 14
v 12 15 14
v 12 17 14
v 12 21 14
v 12 23 14
v 12 27 14
v 12 29 14
v 12 33 14
v -9 0 8
v -9 9 8
v -5 0 8
v -5 9 8
v -2 0 8
v -2 9 8
v 1 3 8
v 1 8 8
v 2 3 8
v 2 8 8
v 4 0 8
v 4 9 8
v 5 0 8
v 5 9 8
v 8 0 8
v 8 9 8
v -9 0 -7
v -9 9 -7
v -7 1 -7
v -7 9 -7
v -6 1 -7
v -6 9 -7
v -3 0 -7
v -3 6 -7
v -1 0 -7
v -1 6 -7
v 3 3 -7
v 3 9 -7
v 5 3 -7
v 5 9 -7
v 8 0 -7
v 8 9 -7
v -13 9 -13
v -13 11 -13
v -13 15 -13
v -13 17 -13
v -13 21 -13
v -13 23 -13
v -13 27 -13
v -13 29 -13
v -13 33 -13
v 12 9 -13
v 12 11 -13
v 12 15 -13
v 12 17 -13
v 12 21 -13
v 12 23 -13
v 12 27 -13
v 12 29 -13
v 12 33 -13
v -9 0 8
v -5 0 8
v -2 0 8
v 4 0 8
v 5 0 8
v 8 0 8
v -5 0 7
v -2 0 7
v 4 0 7
v 5 0 7
v 7 0 5
v 8 0 5
v 7 0 3
v 8 0 3
v 7 0 1
v 8 0 1
v 7 0 -0
v 8 0 -0
v 7 0 -2
v 8 0 -2
v -9 0 -3
v -8 0 -3
v -9 0 -4
v -8 0 -4
v -3 0 -6
v -1 0 -6
v 7 0 -6
v 8 0 -6
v -9 0 -7
v -3 0 -7
v -1 0 -7
v 8 0 -7
v -13 9 14
v 12 9 14
v -12 9 13
v 11 9 13
v -9 9 8
v -5 9 8
v -2 9 8
v 4 9 8
v 5 9 8
v 8 9 8
v 8 9 5
v -9 9 4
v 8 9 3
v 8 9 1
v -9 9 -0
v 8 9 -0
v 8 9 -2
v -9 9 -3
v -9 9 -4
v 8 9 -6
v -9 9 -7
v -7 9 -7
v -6 9 -7
v 3 9 -7
v 5 9 -7
v 8 9 -7
v -12 9 -12
v 11 9 -12
v -13 9 -13
v 12 9 -13
v -13 33 14
v 12 33 14
v -13 33 -13
v 12 33 -13

# faces
f 3/4/1 2/4/1 1/4/1
f 4/4/1 2/4/1 3/4/1
f 5/3/1 4/3/1 3/3/1
f 6/3/1 4/3/1 5/3/1
f 7/4/1 6/4/1 5/4/1
f 8/4/1 6/4/1 7/4/1
f 9/3/1 8/3/1 7/3/1
f 10/3/1 8/3/1 9/3/1
f 11/4/1 10/4/1 9/4/1
f 12/4/1 10/4/1 11/4/1
f 13/3/1 12/3/1 11/3/1
f 14/3/1 12/3/1 13/3/1
f 15/4/1 14/4/1 13/4/1
f 16/4/1 14/4/1 15/4/1
f 17/3/1 16/3/1 15/3/1
f 18/3/1 16/3/1 17/3/1
f 23/1/1 20/1/1 19/1/1
f 24/1/1 20/1/1 23/1/1
f 25/1/1 20/1/1 24/1/1
f 26/1/1 20/1/1 25/1/1
f 27/1/1 23/1/1 19/1/1
f 27/2/1 24/2/1 23/2/1
f 28/1/1 25/1/1 24/1/1
f 28/2/1 24/2/1 27/2/1
f 29/1/1 27/1/1 19/1/1
f 29/1/1 28/1/1 27/1/1
f 30/2/1 26/2/1 25/2/1
f 30/1/1 28/1/1 29/1/1
f 30/1/1 25/1/1 28/1/1
f 31/1/1 20/1/1 26/1/1
f 31/2/1 26/2/1 30/2/1
f 32/2/1 21/2/1 20/2/1
f 32/1/1 20/1/1 31/1/1
f 33/1/1 22/1/1 21/1/1
f 33/2/1 21/2/1 32/2/1
f 34/1/1 22/1/1 33/1/1
f 35/1/2 36/1/2 43/1/2
f 36/2/2 37/2/2 44/2/2
f 43/1/2 36/1/2 44/1/2
f 37/1/2 38/1/2 45/1/2
f 44/2/2 37/2/2 45/2/2
f 38/2/2 39/2/2 46/2/2
f 45/1/2 38/1/2 46/1/2
f 39/1/2 40/1/2 47/1/2
f 46/2/2 39/2/2 47/2/2
f 40/2/2 41/2/2 48/2/2
f 47/1/2 40/1/2 48/1/2
f 41/1/2 42/1/2 49/1/2
f 48/2/2 41/2/2 49/2/2
f 49/1/2 42/1/2 50/1/2
f 51/4/2 52/4/2 53/4/2
f 53/4/2 52/4/2 54/4/2
f 53/3/2 54/3/2 55/3/2
f 55/3/2 54/3/2 56/3/2
f 55/4/2 56/4/2 57/4/2
f 57/4/2 56/4/2 58/4/2
f 57/3/2 58/3/2 59/3/2
f 59/3/2 58/3/2 60/3/2
f 59/4/2 60/4/2 61/4/2
f 61/4/2 60/4/2 62/4/2
f 61/3/2 62/3/2 63/3/2
f 63/3/2 62/3/2 64/3/2
f 63/4/2 64/4/2 65/4/2
f 65/4/2 64/4/2 66/4/2
f 65/3/2 66/3/2 67/3/2
f 67/3/2 66/3/2 68/3/2
f 78/4/3 70/4/3 69/4/3
f 79/3/3 71/3/3 70/3/3
f 79/4/3 70/4/3 78/4/3
f 80/4/3 72/4/3 71/4/3
f 80/3/3 71/3/3 79/3/3
f 81/3/3 73/3/3 72/3/3
f 81/4/3 72/4/3 80/4/3
f 82/4/3 74/4/3 73/4/3
f 82/3/3 73/3/3 81/3/3
f 83/3/3 75/3/3 74/3/3
f 83/4/3 74/4/3 82/4/3
f 84/4/3 76/4/3 75/4/3
f 84/3/3 75/3/3 83/3/3
f 85/3/3 77/3/3 76/3/3
f 85/4/3 76/4/3 84/4/3
f 86/3/3 77/3/3 85/3/3
f 89/1/3 88/1/3 87/1/3
f 90/1/3 88/1/3 89/1/3
f 91/2/3 90/2/3 89/2/3
f 92/2/3 90/2/3 91/2/3
f 93/1/3 92/1/3 91/1/3
f 94/1/3 92/1/3 93/1/3
f 95/1/3 93/1/3 91/1/3
f 95/2/3 94/2/3 93/2/3
f 96/1/3 92/1/3 94/1/3
f 96/2/3 94/2/3 95/2/3
f 97/1/3 95/1/3 91/1/3
f 97/1/3 96/1/3 95/1/3
f 98/1/3 92/1/3 96/1/3
f 98/1/3 96/1/3 97/1/3
f 99/2/3 98/2/3 97/2/3
f 100/2/3 98/2/3 99/2/3
f 101/1/3 100/1/3 99/1/3
f 102/1/3 100/1/3 101/1/3
f 103/1/4 104/1/4 105/1/4
f 105/1/4 104/1/4 106/1/4
f 103/1/4 105/1/4 107/1/4
f 105/2/4 106/2/4 107/2/4
f 107/2/4 106/2/4 108/2/4
f 103/1/4 107/1/4 109/1/4
f 107/1/4 108/1/4 109/1/4
f 109/1/4 108/1/4 110/1/4
f 109/2/4 110/2/4 111/2/4
f 110/1/4 108/1/4 112/1/4
f 111/2/4 110/2/4 112/2/4
f 111/1/4 112/1/4 113/1/4
f 112/1/4 108/1/4 114/1/4
f 113/1/4 112/1/4 114/1/4
f 111/1/4 113/1/4 115/1/4
f 113/2/4 114/2/4 115/2/4
f 115/2/4 114/2/4 116/2/4
f 111/1/4 115/1/4 117/1/4
f 115/1/4 116/1/4 117/1/4
f 117/1/4 116/1/4 118/1/4
f 119/4/4 120/4/4 128/4/4
f 120/3/4 121/3/4 129/3/4
f 128/4/4 120/4/4 129/4/4
f 121/4/4 122/4/4 130/4/4
f 129/3/4 121/3/4 130/3/4
f 122/3/4 123/3/4 131/3/4
f 130/4/4 122/4/4 131/4/4
f 123/4/4 124/4/4 132/4/4
f 131/3/4 123/3/4 132/3/4
f 124/3/4 125/3/4 133/3/4
f 132/4/4 124/4/4 133/4/4
f 125/4/4 126/4/4 134/4/4
f 133/3/4 125/3/4 134/3/4
f 126/3/4 127/3/4 135/3/4
f 134/4/4 126/4/4 135/4/4
f 135/3/4 127/3/4 136/3/4
f 143/1/5 138/1/5 137/1/5
f 143/2/5 139/2/5 138/2/5
f 144/1/5 140/1/5 139/1/5
f 144/2/5 139/2/5 143/2/5
f 145/2/5 141/2/5 140/2/5
f 145/1/5 140/1/5 144/1/5
f 146/1/5 142/1/5 141/1/5
f 146/2/5 141/2/5 145/2/5
f 147/1/5 145/1/5 144/1/5
f 147/1/5 142/1/5 146/1/5
f 147/1/5 146/1/5 145/1/5
f 147/1/5 144/1/5 143/1/5
f 148/1/5 142/1/5 147/1/5
f 149/1/5 147/1/5 143/1/5
f 149/2/5 148/2/5 147/2/5
f 150/2/5 148/2/5 149/2/5
f 151/1/5 149/1/5 143/1/5
f 151/1/5 150/1/5 149/1/5
f 152/1/5 150/1/5 151/1/5
f 153/1/5 151/1/5 143/1/5
f 153/2/5 152/2/5 151/2/5
f 154/2/5 152/2/5 153/2/5
f 155/1/5 153/1/5 143/1/5
f 155/1/5 154/1/5 153/1/5
f 156/1/5 154/1/5 155/1/5
f 157/1/5 143/1/5 137/1/5
f 157/1/5 155/1/5 143/1/5
f 158/1/5 155/1/5 157/1/5
f 159/2/5 158/2/5 157/2/5
f 160/1/5 155/1/5 158/1/5
f 160/2/5 158/2/5 159/2/5
f 161/1/5 160/1/5 159/1/5
f 161/1/5 155/1/5 160/1/5
f 162/1/5 155/1/5 161/1/5
f 163/2/5 156/2/5 155/2/5
f 163/1/5 155/1/5 162/1/5
f 164/2/5 156/2/5 163/2/5
f 165/1/5 161/1/5 159/1/5
f 166/2/5 162/2/5 161/2/5
f 166/1/5 161/1/5 165/1/5
f 167/1/5 163/1/5 162/1/5
f 167/2/5 162/2/5 166/2/5
f 167/1/5 164/1/5 163/1/5
f 168/1/5 164/1/5 167/1/5
f 171/4/5 170/4/5 169/4/5
f 172/4/5 170/4/5 171/4/5
f 173/3/5 172/3/5 171/3/5
f 174/3/5 172/3/5 173/3/5
f 175/3/5 172/3/5 174/3/5
f 176/3/5 172/3/5 175/3/5
f 177/3/5 172/3/5 176/3/5
f 178/3/5 172/3/5 177/3/5
f 179/3/5 172/3/5 178/3/5
f 180/3/5 173/3/5 171/3/5
f 181/3/5 172/3/5 179/3/5
f 182/3/5 172/3/5 181/3/5
f 183/3/5 180/3/5 171/3/5
f 184/3/5 172/3/5 182/3/5
f 185/3/5 172/3/5 184/3/5
f 186/3/5 183/3/5 171/3/5
f 187/3/5 186/3/5 171/3/5
f 188/3/5 172/3/5 185/3/5
f 189/3/5 187/3/5 171/3/5
f 194/3/5 172/3/5 188/3/5
f 195/4/5 171/4/5 169/4/5
f 195/3/5 194/3/5 193/3/5
f 195/3/5 193/3/5 192/3/5
f 195/3/5 189/3/5 171/3/5
f 195/3/5 192/3/5 191/3/5
f 195/3/5 191/3/5 190/3/5
f 195/3/5 190/3/5 189/3/5
f 196/3/5 172/3/5 194/3/5
f 196/3/5 194/3/5 195/3/5
f 196/4/5 170/4/5 172/4/5
f 197/4/5 195/4/5 169/4/5
f 197/4/5 196/4/5 195/4/5
f 198/4/5 170/4/5 196/4/5
f 198/4/5 196/4/5 197/4/5
f 199/3/6 200/3/6 201/3/6
f 201/3/6 200/3/6 202/3/6
