# MagicaVoxel @ Ephtracy

# material
mtllib Arbol5.mtl
usemtl palette

# normals
vn -1 0 0
vn 1 0 0
vn 0 0 1
vn 0 0 -1
vn 0 -1 0
vn 0 1 0

# texcoords
vt 0.283203 0.5
vt 0.298828 0.5
vt 0.814453 0.5
vt 0.822266 0.5

# verts
v -13 10 14
v -13 10 -13
v -13 12 14
v -13 12 -13
v -13 16 14
v -13 16 -13
v -13 18 14
v -13 18 -13
v -13 22 14
v -13 22 -13
v -13 24 14
v -13 24 -13
v -13 27 14
v -13 27 -13
v -13 30 14
v -13 30 -13
v -13 34 14
v -13 34 -13
v -13 36 14
v -13 36 -13
v -13 40 14
v -13 40 -13
v -9 1 8
v -9 1 -3
v -9 1 -4
v -9 1 -7
v -9 3 7
v -9 3 6
v -9 3 4
v -9 3 -0
v -9 9 7
v -9 9 6
v -9 10 8
v -9 10 4
v -9 10 -0
v -9 10 -3
v -9 10 -4
v -9 10 -7
v 8 1 8
v 8 1 5
v 8 1 3
v 8 1 1
v 8 1 -0
v 8 1 -2
v 8 1 -6
v 8 1 -7
v 8 10 8
v 8 10 5
v 8 10 3
v 8 10 1
v 8 10 -0
v 8 10 -2
v 8 10 -6
v 8 10 -7
v 12 10 14
v 12 10 -13
v 12 12 14
v 12 12 -13
v 12 16 14
v 12 16 -13
v 12 18 14
v 12 18 -13
v 12 22 14
v 12 22 -13
v 12 24 14
v 12 24 -13
v 12 27 14
v 12 27 -13
v 12 30 14
v 12 30 -13
v 12 34 14
v 12 34 -13
v 12 36 14
v 12 36 -13
v 12 40 14
v 12 40 -13
v -13 10 14
v -13 12 14
v -13 16 14
v -13 18 14
v -13 22 14
v -13 24 14
v -13 27 14
v -13 30 14
v -13 34 14
v -13 36 14
v -13 40 14
v 12 10 14
v 12 12 14
v 12 16 14
v 12 18 14
v 12 22 14
v 12 24 14
v 12 27 14
v 12 30 14
v 12 34 14
v 12 36 14
v 12 40 14
v -9 1 8
v -9 10 8
v -5 1 8
v -5 10 8
v -2 1 8
v -2 10 8
v 1 4 8
v 1 9 8
v 2 4 8
v 2 9 8
v 4 1 8
v 4 10 8
v 5 1 8
v 5 10 8
v 8 1 8
v 8 10 8
v -9 1 -7
v -9 10 -7
v -7 2 -7
v -7 10 -7
v -6 2 -7
v -6 10 -7
v -3 1 -7
v -3 7 -7
v -1 1 -7
v -1 7 -7
v 3 4 -7
v 3 10 -7
v 5 4 -7
v 5 10 -7
v 8 1 -7
v 8 10 -7
v -13 10 -13
v -13 12 -13
v -13 16 -13
v -13 18 -13
v -13 22 -13
v -13 24 -13
v -13 27 -13
v -13 30 -13
v -13 34 -13
v -13 36 -13
v -13 40 -13
v 12 10 -13
v 12 12 -13
v 12 16 -13
v 12 18 -13
v 12 22 -13
v 12 24 -13
v 12 27 -13
v 12 30 -13
v 12 34 -13
v 12 36 -13
v 12 40 -13
v -9 1 8
v -5 1 8
v -2 1 8
v 4 1 8
v 5 1 8
v 8 1 8
v -5 1 7
v -2 1 7
v 4 1 7
v 5 1 7
v 7 1 5
v 8 1 5
v 7 1 3
v 8 1 3
v 7 1 1
v 8 1 1
v 7 1 -0
v 8 1 -0
v 7 1 -2
v 8 1 -2
v -9 1 -3
v -8 1 -3
v -9 1 -4
v -8 1 -4
v -3 1 -6
v -1 1 -6
v 7 1 -6
v 8 1 -6
v -9 1 -7
v -3 1 -7
v -1 1 -7
v 8 1 -7
v -13 10 14
v 12 10 14
v -12 10 13
v 11 10 13
v -9 10 8
v -5 10 8
v -2 10 8
v 4 10 8
v 5 10 8
v 8 10 8
v 8 10 5
v -9 10 4
v 8 10 3
v 8 10 1
v -9 10 -0
v 8 10 -0
v 8 10 -2
v -9 10 -3
v -9 10 -4
v 8 10 -6
v -9 10 -7
v -7 10 -7
v -6 10 -7
v 3 10 -7
v 5 10 -7
v 8 10 -7
v -12 10 -12
v 11 10 -12
v -13 10 -13
v 12 10 -13
v -13 40 14
v 12 40 14
v -13 40 -13
v 12 40 -13

# faces
f 3/4/1 2/4/1 1/4/1
f 4/4/1 2/4/1 3/4/1
f 5/3/1 4/3/1 3/3/1
f 6/3/1 4/3/1 5/3/1
f 7/4/1 6/4/1 5/4/1
f 8/4/1 6/4/1 7/4/1
f 9/3/1 8/3/1 7/3/1
f 10/3/1 8/3/1 9/3/1
f 11/4/1 10/4/1 9/4/1
f 12/4/1 10/4/1 11/4/1
f 13/3/1 12/3/1 11/3/1
f 14/3/1 12/3/1 13/3/1
f 15/4/1 14/4/1 13/4/1
f 16/4/1 14/4/1 15/4/1
f 17/3/1 16/3/1 15/3/1
f 18/3/1 16/3/1 17/3/1
f 19/4/1 18/4/1 17/4/1
f 20/4/1 18/4/1 19/4/1
f 21/3/1 20/3/1 19/3/1
f 22/3/1 20/3/1 21/3/1
f 27/1/1 24/1/1 23/1/1
f 28/1/1 24/1/1 27/1/1
f 29/1/1 24/1/1 28/1/1
f 30/1/1 24/1/1 29/1/1
f 31/1/1 27/1/1 23/1/1
f 31/2/1 28/2/1 27/2/1
f 32/1/1 29/1/1 28/1/1
f 32/2/1 28/2/1 31/2/1
f 33/1/1 31/1/1 23/1/1
f 33/1/1 32/1/1 31/1/1
f 34/2/1 30/2/1 29/2/1
f 34/1/1 32/1/1 33/1/1
f 34/1/1 29/1/1 32/1/1
f 35/1/1 24/1/1 30/1/1
f 35/2/1 30/2/1 34/2/1
f 36/2/1 25/2/1 24/2/1
f 36/1/1 24/1/1 35/1/1
f 37/1/1 26/1/1 25/1/1
f 37/2/1 25/2/1 36/2/1
f 38/1/1 26/1/1 37/1/1
f 39/1/2 40/1/2 47/1/2
f 40/2/2 41/2/2 48/2/2
f 47/1/2 40/1/2 48/1/2
f 41/1/2 42/1/2 49/1/2
f 48/2/2 41/2/2 49/2/2
f 42/2/2 43/2/2 50/2/2
f 49/1/2 42/1/2 50/1/2
f 43/1/2 44/1/2 51/1/2
f 50/2/2 43/2/2 51/2/2
f 44/2/2 45/2/2 52/2/2
f 51/1/2 44/1/2 52/1/2
f 45/1/2 46/1/2 53/1/2
f 52/2/2 45/2/2 53/2/2
f 53/1/2 46/1/2 54/1/2
f 55/4/2 56/4/2 57/4/2
f 57/4/2 56/4/2 58/4/2
f 57/3/2 58/3/2 59/3/2
f 59/3/2 58/3/2 60/3/2
f 59/4/2 60/4/2 61/4/2
f 61/4/2 60/4/2 62/4/2
f 61/3/2 62/3/2 63/3/2
f 63/3/2 62/3/2 64/3/2
f 63/4/2 64/4/2 65/4/2
f 65/4/2 64/4/2 66/4/2
f 65/3/2 66/3/2 67/3/2
f 67/3/2 66/3/2 68/3/2
f 67/4/2 68/4/2 69/4/2
f 69/4/2 68/4/2 70/4/2
f 69/3/2 70/3/2 71/3/2
f 71/3/2 70/3/2 72/3/2
f 71/4/2 72/4/2 73/4/2
f 73/4/2 72/4/2 74/4/2
f 73/3/2 74/3/2 75/3/2
f 75/3/2 74/3/2 76/3/2
f 88/4/3 78/4/3 77/4/3
f 89/3/3 79/3/3 78/3/3
f 89/4/3 78/4/3 88/4/3
f 90/4/3 80/4/3 79/4/3
f 90/3/3 79/3/3 89/3/3
f 91/3/3 81/3/3 80/3/3
f 91/4/3 80/4/3 90/4/3
f 92/4/3 82/4/3 81/4/3
f 92/3/3 81/3/3 91/3/3
f 93/3/3 83/3/3 82/3/3
f 93/4/3 82/4/3 92/4/3
f 94/4/3 84/4/3 83/4/3
f 94/3/3 83/3/3 93/3/3
f 95/3/3 85/3/3 84/3/3
f 95/4/3 84/4/3 94/4/3
f 96/4/3 86/4/3 85/4/3
f 96/3/3 85/3/3 95/3/3
f 97/3/3 87/3/3 86/3/3
f 97/4/3 86/4/3 96/4/3
f 98/3/3 87/3/3 97/3/3
f 101/1/3 100/1/3 99/1/3
f 102/1/3 100/1/3 101/1/3
f 103/2/3 102/2/3 101/2/3
f 104/2/3 102/2/3 103/2/3
f 105/1/3 104/1/3 103/1/3
f 106/1/3 104/1/3 105/1/3
f 107/1/3 105/1/3 103/1/3
f 107/2/3 106/2/3 105/2/3
f 108/1/3 104/1/3 106/1/3
f 108/2/3 106/2/3 107/2/3
f 109/1/3 107/1/3 103/1/3
f 109/1/3 108/1/3 107/1/3
f 110/1/3 104/1/3 108/1/3
f 110/1/3 108/1/3 109/1/3
f 111/2/3 110/2/3 109/2/3
f 112/2/3 110/2/3 111/2/3
f 113/1/3 112/1/3 111/1/3
f 114/1/3 112/1/3 113/1/3
f 115/1/4 116/1/4 117/1/4
f 117/1/4 116/1/4 118/1/4
f 115/1/4 117/1/4 119/1/4
f 117/2/4 118/2/4 119/2/4
f 119/2/4 118/2/4 120/2/4
f 115/1/4 119/1/4 121/1/4
f 119/1/4 120/1/4 121/1/4
f 121/1/4 120/1/4 122/1/4
f 121/2/4 122/2/4 123/2/4
f 122/1/4 120/1/4 124/1/4
f 123/2/4 122/2/4 124/2/4
f 123/1/4 124/1/4 125/1/4
f 124/1/4 120/1/4 126/1/4
f 125/1/4 124/1/4 126/1/4
f 123/1/4 125/1/4 127/1/4
f 125/2/4 126/2/4 127/2/4
f 127/2/4 126/2/4 128/2/4
f 123/1/4 127/1/4 129/1/4
f 127/1/4 128/1/4 129/1/4
f 129/1/4 128/1/4 130/1/4
f 131/4/4 132/4/4 142/4/4
f 132/3/4 133/3/4 143/3/4
f 142/4/4 132/4/4 143/4/4
f 133/4/4 134/4/4 144/4/4
f 143/3/4 133/3/4 144/3/4
f 134/3/4 135/3/4 145/3/4
f 144/4/4 134/4/4 145/4/4
f 135/4/4 136/4/4 146/4/4
f 145/3/4 135/3/4 146/3/4
f 136/3/4 137/3/4 147/3/4
f 146/4/4 136/4/4 147/4/4
f 137/4/4 138/4/4 148/4/4
f 147/3/4 137/3/4 148/3/4
f 138/3/4 139/3/4 149/3/4
f 148/4/4 138/4/4 149/4/4
f 139/4/4 140/4/4 150/4/4
f 149/3/4 139/3/4 150/3/4
f 140/3/4 141/3/4 151/3/4
f 150/4/4 140/4/4 151/4/4
f 151/3/4 141/3/4 152/3/4
f 159/1/5 154/1/5 153/1/5
f 159/2/5 155/2/5 154/2/5
f 160/1/5 156/1/5 155/1/5
f 160/2/5 155/2/5 159/2/5
f 161/2/5 157/2/5 156/2/5
f 161/1/5 156/1/5 160/1/5
f 162/1/5 158/1/5 157/1/5
f 162/2/5 157/2/5 161/2/5
f 163/1/5 161/1/5 160/1/5
f 163/1/5 158/1/5 162/1/5
f 163/1/5 162/1/5 161/1/5
f 163/1/5 160/1/5 159/1/5
f 164/1/5 158/1/5 163/1/5
f 165/1/5 163/1/5 159/1/5
f 165/2/5 164/2/5 163/2/5
f 166/2/5 164/2/5 165/2/5
f 167/1/5 165/1/5 159/1/5
f 167/1/5 166/1/5 165/1/5
f 168/1/5 166/1/5 167/1/5
f 169/1/5 167/1/5 159/1/5
f 169/2/5 168/2/5 167/2/5
f 170/2/5 168/2/5 169/2/5
f 171/1/5 169/1/5 159/1/5
f 171/1/5 170/1/5 169/1/5
f 172/1/5 170/1/5 171/1/5
f 173/1/5 159/1/5 153/1/5
f 173/1/5 171/1/5 159/1/5
f 174/1/5 171/1/5 173/1/5
f 175/2/5 174/2/5 173/2/5
f 176/1/5 171/1/5 174/1/5
f 176/2/5 174/2/5 175/2/5
f 177/1/5 176/1/5 175/1/5
f 177/1/5 171/1/5 176/1/5
f 178/1/5 171/1/5 177/1/5
f 179/2/5 172/2/5 171/2/5
f 179/1/5 171/1/5 178/1/5
f 180/2/5 172/2/5 179/2/5
f 181/1/5 177/1/5 175/1/5
f 182/2/5 178/2/5 177/2/5
f 182/1/5 177/1/5 181/1/5
f 183/1/5 179/1/5 178/1/5
f 183/2/5 178/2/5 182/2/5
f 183/1/5 180/1/5 179/1/5
f 184/1/5 180/1/5 183/1/5
f 187/4/5 186/4/5 185/4/5
f 188/4/5 186/4/5 187/4/5
f 189/3/5 188/3/5 187/3/5
f 190/3/5 188/3/5 189/3/5
f 191/3/5 188/3/5 190/3/5
f 192/3/5 188/3/5 191/3/5
f 193/3/5 188/3/5 192/3/5
f 194/3/5 188/3/5 193/3/5
f 195/3/5 188/3/5 194/3/5
f 196/3/5 189/3/5 187/3/5
f 197/3/5 188/3/5 195/3/5
f 198/3/5 188/3/5 197/3/5
f 199/3/5 196/3/5 187/3/5
f 200/3/5 188/3/5 198/3/5
f 201/3/5 188/3/5 200/3/5
f 202/3/5 199/3/5 187/3/5
f 203/3/5 202/3/5 187/3/5
f 204/3/5 188/3/5 201/3/5
f 205/3/5 203/3/5 187/3/5
f 210/3/5 188/3/5 204/3/5
f 211/4/5 187/4/5 185/4/5
f 211/3/5 210/3/5 209/3/5
f 211/3/5 209/3/5 208/3/5
f 211/3/5 205/3/5 187/3/5
f 211/3/5 208/3/5 207/3/5
f 211/3/5 207/3/5 206/3/5
f 211/3/5 206/3/5 205/3/5
f 212/3/5 188/3/5 210/3/5
f 212/3/5 210/3/5 211/3/5
f 212/4/5 186/4/5 188/4/5
f 213/4/5 211/4/5 185/4/5
f 213/4/5 212/4/5 211/4/5
f 214/4/5 186/4/5 212/4/5
f 214/4/5 212/4/5 213/4/5
f 215/3/6 216/3/6 217/3/6
f 217/3/6 216/3/6 218/3/6
