# MagicaVoxel @ Ephtracy

# material
mtllib tronco.mtl
usemtl palette

# normals
vn -1 0 0
vn 1 0 0
vn 0 0 1
vn 0 0 -1
vn 0 -1 0
vn 0 1 0

# texcoords
vt 0.291016 0.5
vt 0.306641 0.5

# verts
v -20 0 3
v -20 0 1
v -20 0 -9
v -20 0 -11
v -20 4 1
v -20 4 -9
v -20 6 3
v -20 6 -11
v 1 3 2
v 1 3 1
v 1 4 2
v 1 4 1
v 0 3 2
v 0 3 1
v 0 4 2
v 0 4 1
v 20 0 3
v 20 0 1
v 20 0 -9
v 20 0 -11
v 20 4 1
v 20 4 -9
v 20 6 3
v 20 6 -11
v -20 0 3
v -20 6 3
v -19 0 3
v -19 6 3
v -16 2 3
v -16 4 3
v -15 2 3
v -15 3 3
v -12 3 3
v -12 4 3
v -10 2 3
v -10 4 3
v -9 2 3
v -9 4 3
v -1 4 3
v -1 5 3
v 0 3 3
v 0 4 3
v 1 4 3
v 1 5 3
v 2 2 3
v 2 3 3
v 3 2 3
v 3 4 3
v 6 2 3
v 6 4 3
v 7 3 3
v 7 4 3
v 8 3 3
v 8 4 3
v 9 3 3
v 9 4 3
v 10 2 3
v 10 3 3
v 17 2 3
v 17 5 3
v 18 3 3
v 18 5 3
v 19 0 3
v 19 2 3
v 19 3 3
v 19 6 3
v 20 0 3
v 20 6 3
v -20 0 -9
v -20 4 -9
v -19 0 -9
v -19 4 -9
v 19 0 -9
v 19 4 -9
v 20 0 -9
v 20 4 -9
v 0 3 2
v 0 4 2
v 1 3 2
v 1 4 2
v -20 0 1
v -20 4 1
v -19 0 1
v -19 4 1
v 0 3 1
v 0 4 1
v 1 3 1
v 1 4 1
v 19 0 1
v 19 4 1
v 20 0 1
v 20 4 1
v -20 0 -11
v -20 6 -11
v -19 0 -11
v -19 6 -11
v -18 1 -11
v -18 4 -11
v -17 1 -11
v -17 4 -11
v -13 3 -11
v -13 4 -11
v -12 2 -11
v -12 3 -11
v -11 2 -11
v -11 3 -11
v -10 2 -11
v -10 3 -11
v -9 1 -11
v -9 2 -11
v -9 4 -11
v -9 5 -11
v -8 3 -11
v -8 5 -11
v -7 2 -11
v -7 3 -11
v -6 1 -11
v -6 2 -11
v -2 2 -11
v -2 4 -11
v -1 1 -11
v -1 2 -11
v -1 4 -11
v -1 5 -11
v 0 2 -11
v 0 4 -11
v 1 4 -11
v 1 5 -11
v 3 1 -11
v 3 2 -11
v 10 1 -11
v 10 4 -11
v 11 3 -11
v 11 4 -11
v 12 1 -11
v 12 2 -11
v 17 2 -11
v 17 3 -11
v 19 0 -11
v 19 6 -11
v 20 0 -11
v 20 6 -11
v -20 0 3
v -19 0 3
v 19 0 3
v 20 0 3
v -20 0 1
v -19 0 1
v 19 0 1
v 20 0 1
v -20 0 -9
v -19 0 -9
v 19 0 -9
v 20 0 -9
v -20 0 -11
v -19 0 -11
v 19 0 -11
v 20 0 -11
v 0 4 2
v 1 4 2
v -20 4 1
v -19 4 1
v 0 4 1
v 1 4 1
v 19 4 1
v 20 4 1
v -20 4 -9
v -19 4 -9
v 19 4 -9
v 20 4 -9
v 0 3 2
v 1 3 2
v 0 3 1
v 1 3 1
v -20 6 3
v -19 6 3
v 19 6 3
v 20 6 3
v 8 6 2
v 10 6 2
v -9 6 1
v -7 6 1
v 6 6 1
v 8 6 1
v 9 6 1
v 10 6 1
v -14 6 -0
v -13 6 -0
v 1 6 -0
v 2 6 -0
v 3 6 -0
v 6 6 -0
v 8 6 -0
v 9 6 -0
v 10 6 -0
v -13 6 -1
v -12 6 -1
v -7 6 -1
v -4 6 -1
v 3 6 -1
v 8 6 -1
v 9 6 -1
v 10 6 -1
v 14 6 -1
v 16 6 -1
v -16 6 -2
v -14 6 -2
v -12 6 -2
v -9 6 -2
v -7 6 -2
v -4 6 -2
v 1 6 -2
v 2 6 -2
v 3 6 -2
v 12 6 -3
v 13 6 -3
v 14 6 -3
v 16 6 -3
v -16 6 -4
v -7 6 -4
v -2 6 -4
v 0 6 -4
v 2 6 -4
v 3 6 -4
v 15 6 -4
v 16 6 -4
v 13 6 -5
v 15 6 -5
v -10 6 -6
v -8 6 -6
v -1 6 -6
v 0 6 -6
v 14 6 -6
v 16 6 -6
v -11 6 -7
v -10 6 -7
v -8 6 -7
v -3 6 -7
v -2 6 -7
v -1 6 -7
v 1 6 -7
v 9 6 -7
v 11 6 -7
v 12 6 -7
v 14 6 -7
v -11 6 -8
v -10 6 -8
v 7 6 -8
v 8 6 -8
v 9 6 -8
v 11 6 -8
v -3 6 -9
v 1 6 -9
v 7 6 -9
v 8 6 -9
v -20 6 -11
v -19 6 -11
v 19 6 -11
v 20 6 -11

# faces
f 5/2/1 2/2/1 1/2/1
f 6/2/1 4/2/1 3/2/1
f 7/2/1 5/2/1 1/2/1
f 7/2/1 6/2/1 5/2/1
f 8/2/1 4/2/1 6/2/1
f 8/2/1 6/2/1 7/2/1
f 11/1/1 10/1/1 9/1/1
f 12/1/1 10/1/1 11/1/1
f 13/1/2 14/1/2 15/1/2
f 15/1/2 14/1/2 16/1/2
f 17/2/2 18/2/2 21/2/2
f 19/2/2 20/2/2 22/2/2
f 17/2/2 21/2/2 23/2/2
f 21/2/2 22/2/2 23/2/2
f 22/2/2 20/2/2 24/2/2
f 23/2/2 22/2/2 24/2/2
f 27/2/3 26/2/3 25/2/3
f 28/2/3 26/2/3 27/2/3
f 29/1/3 28/1/3 27/1/3
f 30/1/3 28/1/3 29/1/3
f 31/1/3 29/1/3 27/1/3
f 31/2/3 30/2/3 29/2/3
f 32/2/3 30/2/3 31/2/3
f 33/1/3 32/1/3 31/1/3
f 33/2/3 30/2/3 32/2/3
f 34/1/3 28/1/3 30/1/3
f 34/2/3 30/2/3 33/2/3
f 35/1/3 33/1/3 31/1/3
f 35/1/3 31/1/3 27/1/3
f 35/1/3 34/1/3 33/1/3
f 36/1/3 28/1/3 34/1/3
f 36/1/3 34/1/3 35/1/3
f 37/1/3 35/1/3 27/1/3
f 37/2/3 36/2/3 35/2/3
f 38/1/3 28/1/3 36/1/3
f 38/2/3 36/2/3 37/2/3
f 39/1/3 38/1/3 37/1/3
f 39/1/3 28/1/3 38/1/3
f 40/1/3 28/1/3 39/1/3
f 41/1/3 39/1/3 37/1/3
f 42/2/3 40/2/3 39/2/3
f 42/1/3 39/1/3 41/1/3
f 43/2/3 42/2/3 41/2/3
f 43/2/3 40/2/3 42/2/3
f 44/1/3 28/1/3 40/1/3
f 44/2/3 40/2/3 43/2/3
f 45/1/3 37/1/3 27/1/3
f 45/1/3 41/1/3 37/1/3
f 46/2/3 43/2/3 41/2/3
f 46/1/3 41/1/3 45/1/3
f 47/1/3 45/1/3 27/1/3
f 47/2/3 46/2/3 45/2/3
f 48/2/3 43/2/3 46/2/3
f 48/2/3 46/2/3 47/2/3
f 48/1/3 44/1/3 43/1/3
f 49/1/3 47/1/3 27/1/3
f 49/1/3 48/1/3 47/1/3
f 50/1/3 44/1/3 48/1/3
f 50/1/3 48/1/3 49/1/3
f 51/2/3 50/2/3 49/2/3
f 52/1/3 44/1/3 50/1/3
f 52/2/3 50/2/3 51/2/3
f 53/2/3 51/2/3 49/2/3
f 53/1/3 52/1/3 51/1/3
f 54/1/3 44/1/3 52/1/3
f 54/1/3 52/1/3 53/1/3
f 55/2/3 53/2/3 49/2/3
f 55/2/3 54/2/3 53/2/3
f 56/1/3 44/1/3 54/1/3
f 56/2/3 54/2/3 55/2/3
f 57/1/3 49/1/3 27/1/3
f 57/2/3 55/2/3 49/2/3
f 58/1/3 56/1/3 55/1/3
f 58/2/3 55/2/3 57/2/3
f 59/1/3 57/1/3 27/1/3
f 59/1/3 58/1/3 57/1/3
f 60/1/3 28/1/3 44/1/3
f 60/1/3 58/1/3 59/1/3
f 60/1/3 44/1/3 56/1/3
f 60/1/3 56/1/3 58/1/3
f 61/2/3 60/2/3 59/2/3
f 62/1/3 28/1/3 60/1/3
f 62/2/3 60/2/3 61/2/3
f 63/1/3 59/1/3 27/1/3
f 64/2/3 61/2/3 59/2/3
f 64/1/3 59/1/3 63/1/3
f 65/1/3 62/1/3 61/1/3
f 65/2/3 61/2/3 64/2/3
f 66/1/3 28/1/3 62/1/3
f 66/1/3 62/1/3 65/1/3
f 67/2/3 65/2/3 64/2/3
f 67/2/3 64/2/3 63/2/3
f 67/2/3 66/2/3 65/2/3
f 68/2/3 66/2/3 67/2/3
f 71/2/3 70/2/3 69/2/3
f 72/2/3 70/2/3 71/2/3
f 73/1/3 72/1/3 71/1/3
f 74/1/3 72/1/3 73/1/3
f 75/2/3 74/2/3 73/2/3
f 76/2/3 74/2/3 75/2/3
f 77/2/4 78/2/4 79/2/4
f 79/2/4 78/2/4 80/2/4
f 81/2/4 82/2/4 83/2/4
f 83/2/4 82/2/4 84/2/4
f 83/1/4 84/1/4 85/1/4
f 85/1/4 84/1/4 86/1/4
f 83/1/4 85/1/4 87/1/4
f 83/1/4 87/1/4 89/1/4
f 87/1/4 88/1/4 89/1/4
f 89/1/4 88/1/4 90/1/4
f 89/2/4 90/2/4 91/2/4
f 91/2/4 90/2/4 92/2/4
f 93/2/4 94/2/4 95/2/4
f 95/2/4 94/2/4 96/2/4
f 95/1/4 96/1/4 97/1/4
f 97/1/4 96/1/4 98/1/4
f 95/1/4 97/1/4 99/1/4
f 97/2/4 98/2/4 99/2/4
f 98/1/4 96/1/4 100/1/4
f 99/2/4 98/2/4 100/2/4
f 99/1/4 100/1/4 101/1/4
f 100/1/4 96/1/4 102/1/4
f 101/1/4 100/1/4 102/1/4
f 99/1/4 101/1/4 103/1/4
f 101/2/4 102/2/4 104/2/4
f 103/1/4 101/1/4 104/1/4
f 99/1/4 103/1/4 105/1/4
f 103/2/4 104/2/4 105/2/4
f 104/2/4 102/2/4 106/2/4
f 105/2/4 104/2/4 106/2/4
f 99/1/4 105/1/4 107/1/4
f 105/1/4 106/1/4 107/1/4
f 106/2/4 102/2/4 108/2/4
f 107/1/4 106/1/4 108/1/4
f 95/1/4 99/1/4 109/1/4
f 99/1/4 107/1/4 109/1/4
f 107/2/4 108/2/4 110/2/4
f 109/1/4 107/1/4 110/1/4
f 108/2/4 102/2/4 111/2/4
f 110/2/4 108/2/4 111/2/4
f 102/1/4 96/1/4 111/1/4
f 111/1/4 96/1/4 112/1/4
f 109/2/4 110/2/4 113/2/4
f 110/2/4 111/2/4 113/2/4
f 111/2/4 112/2/4 113/2/4
f 112/1/4 96/1/4 114/1/4
f 113/2/4 112/2/4 114/2/4
f 109/2/4 113/2/4 115/2/4
f 113/1/4 114/1/4 116/1/4
f 115/2/4 113/2/4 116/2/4
f 95/1/4 109/1/4 117/1/4
f 109/2/4 115/2/4 117/2/4
f 115/1/4 116/1/4 118/1/4
f 117/2/4 115/2/4 118/2/4
f 117/1/4 118/1/4 119/1/4
f 118/1/4 116/1/4 119/1/4
f 116/1/4 114/1/4 120/1/4
f 119/1/4 116/1/4 120/1/4
f 117/1/4 119/1/4 121/1/4
f 95/1/4 117/1/4 121/1/4
f 119/2/4 120/2/4 122/2/4
f 121/1/4 119/1/4 122/1/4
f 120/1/4 114/1/4 123/1/4
f 122/2/4 120/2/4 123/2/4
f 114/1/4 96/1/4 124/1/4
f 123/1/4 114/1/4 124/1/4
f 122/2/4 123/2/4 125/2/4
f 121/2/4 122/2/4 125/2/4
f 123/2/4 124/2/4 125/2/4
f 125/2/4 124/2/4 126/2/4
f 125/1/4 126/1/4 127/1/4
f 126/2/4 124/2/4 127/2/4
f 124/1/4 96/1/4 128/1/4
f 127/2/4 124/2/4 128/2/4
f 95/1/4 121/1/4 129/1/4
f 121/2/4 125/2/4 129/2/4
f 125/1/4 127/1/4 130/1/4
f 129/2/4 125/2/4 130/2/4
f 127/1/4 128/1/4 130/1/4
f 95/1/4 129/1/4 131/1/4
f 129/1/4 130/1/4 131/1/4
f 130/1/4 128/1/4 132/1/4
f 131/1/4 130/1/4 132/1/4
f 131/2/4 132/2/4 133/2/4
f 132/1/4 128/1/4 134/1/4
f 133/2/4 132/2/4 134/2/4
f 95/1/4 131/1/4 135/1/4
f 131/2/4 133/2/4 135/2/4
f 135/2/4 133/2/4 136/2/4
f 135/1/4 136/1/4 137/1/4
f 136/2/4 133/2/4 137/2/4
f 133/1/4 134/1/4 138/1/4
f 137/2/4 133/2/4 138/2/4
f 135/1/4 137/1/4 139/1/4
f 95/1/4 135/1/4 139/1/4
f 137/1/4 138/1/4 139/1/4
f 134/1/4 128/1/4 140/1/4
f 139/1/4 138/1/4 140/1/4
f 128/1/4 96/1/4 140/1/4
f 138/1/4 134/1/4 140/1/4
f 139/2/4 140/2/4 141/2/4
f 141/2/4 140/2/4 142/2/4
f 147/2/5 144/2/5 143/2/5
f 148/1/5 145/1/5 144/1/5
f 148/2/5 144/2/5 147/2/5
f 149/2/5 146/2/5 145/2/5
f 149/1/5 145/1/5 148/1/5
f 150/2/5 146/2/5 149/2/5
f 155/2/5 152/2/5 151/2/5
f 156/1/5 153/1/5 152/1/5
f 156/2/5 152/2/5 155/2/5
f 157/2/5 154/2/5 153/2/5
f 157/1/5 153/1/5 156/1/5
f 158/2/5 154/2/5 157/2/5
f 163/1/5 160/1/5 159/1/5
f 164/1/5 160/1/5 163/1/5
f 167/2/5 162/2/5 161/2/5
f 168/1/5 163/1/5 162/1/5
f 168/2/5 162/2/5 167/2/5
f 168/1/5 164/1/5 163/1/5
f 168/1/5 165/1/5 164/1/5
f 169/2/5 166/2/5 165/2/5
f 169/1/5 165/1/5 168/1/5
f 170/2/5 166/2/5 169/2/5
f 171/1/6 172/1/6 173/1/6
f 173/1/6 172/1/6 174/1/6
f 176/1/6 177/1/6 179/1/6
f 179/1/6 177/1/6 180/1/6
f 176/1/6 179/1/6 181/1/6
f 181/1/6 179/1/6 182/1/6
f 182/1/6 179/1/6 183/1/6
f 179/2/6 180/2/6 184/2/6
f 183/1/6 179/1/6 184/1/6
f 184/2/6 180/2/6 185/2/6
f 180/1/6 177/1/6 186/1/6
f 185/2/6 180/2/6 186/2/6
f 176/1/6 181/1/6 187/1/6
f 187/1/6 181/1/6 188/1/6
f 182/1/6 183/1/6 189/1/6
f 189/1/6 183/1/6 190/1/6
f 190/1/6 183/1/6 191/1/6
f 184/2/6 185/2/6 192/2/6
f 191/1/6 183/1/6 192/1/6
f 183/2/6 184/2/6 192/2/6
f 192/2/6 185/2/6 193/2/6
f 185/1/6 186/1/6 194/1/6
f 193/2/6 185/2/6 194/2/6
f 186/1/6 177/1/6 195/1/6
f 194/1/6 186/1/6 195/1/6
f 188/1/6 181/1/6 196/1/6
f 187/2/6 188/2/6 196/2/6
f 196/1/6 181/1/6 197/1/6
f 181/2/6 182/2/6 198/2/6
f 182/1/6 189/1/6 198/1/6
f 198/1/6 189/1/6 199/1/6
f 190/1/6 191/1/6 200/1/6
f 192/2/6 193/2/6 200/2/6
f 191/2/6 192/2/6 200/2/6
f 193/1/6 194/1/6 201/1/6
f 200/2/6 193/2/6 201/2/6
f 194/2/6 195/2/6 202/2/6
f 201/1/6 194/1/6 202/1/6
f 195/1/6 177/1/6 203/1/6
f 202/2/6 195/2/6 203/2/6
f 203/1/6 177/1/6 204/1/6
f 204/1/6 177/1/6 205/1/6
f 176/1/6 187/1/6 206/1/6
f 196/2/6 197/2/6 207/2/6
f 206/1/6 187/1/6 207/1/6
f 187/2/6 196/2/6 207/2/6
f 197/1/6 181/1/6 208/1/6
f 207/2/6 197/2/6 208/2/6
f 198/2/6 199/2/6 209/2/6
f 208/1/6 181/1/6 209/1/6
f 181/2/6 198/2/6 209/2/6
f 209/2/6 199/2/6 210/2/6
f 199/1/6 189/1/6 211/1/6
f 210/2/6 199/2/6 211/2/6
f 189/2/6 190/2/6 212/2/6
f 211/1/6 189/1/6 212/1/6
f 201/1/6 202/1/6 213/1/6
f 212/2/6 190/2/6 213/2/6
f 190/1/6 200/1/6 213/1/6
f 200/1/6 201/1/6 213/1/6
f 202/1/6 203/1/6 213/1/6
f 203/1/6 204/1/6 213/1/6
f 213/1/6 204/1/6 214/1/6
f 214/1/6 204/1/6 215/1/6
f 215/1/6 204/1/6 216/1/6
f 204/2/6 205/2/6 217/2/6
f 216/1/6 204/1/6 217/1/6
f 205/1/6 177/1/6 218/1/6
f 217/2/6 205/2/6 218/2/6
f 209/2/6 210/2/6 219/2/6
f 208/2/6 209/2/6 219/2/6
f 206/2/6 207/2/6 219/2/6
f 207/2/6 208/2/6 219/2/6
f 176/1/6 206/1/6 219/1/6
f 211/1/6 212/1/6 220/1/6
f 219/2/6 210/2/6 220/2/6
f 210/1/6 211/1/6 220/1/6
f 212/1/6 213/1/6 220/1/6
f 220/1/6 213/1/6 221/1/6
f 221/1/6 213/1/6 222/1/6
f 213/2/6 214/2/6 223/2/6
f 222/1/6 213/1/6 223/1/6
f 214/1/6 215/1/6 224/1/6
f 223/2/6 214/2/6 224/2/6
f 217/1/6 218/1/6 225/1/6
f 216/1/6 217/1/6 225/1/6
f 218/1/6 177/1/6 226/1/6
f 225/1/6 218/1/6 226/1/6
f 216/1/6 225/1/6 227/1/6
f 215/2/6 216/2/6 227/2/6
f 225/2/6 226/2/6 228/2/6
f 227/1/6 225/1/6 228/1/6
f 219/1/6 220/1/6 229/1/6
f 220/1/6 221/1/6 229/1/6
f 229/1/6 221/1/6 230/1/6
f 221/2/6 222/2/6 231/2/6
f 222/1/6 223/1/6 232/1/6
f 231/2/6 222/2/6 232/2/6
f 223/1/6 224/1/6 232/1/6
f 227/2/6 228/2/6 233/2/6
f 226/1/6 177/1/6 234/1/6
f 233/2/6 228/2/6 234/2/6
f 228/2/6 226/2/6 234/2/6
f 219/1/6 229/1/6 235/1/6
f 229/2/6 230/2/6 236/2/6
f 235/1/6 229/1/6 236/1/6
f 230/1/6 221/1/6 237/1/6
f 236/2/6 230/2/6 237/2/6
f 237/1/6 221/1/6 238/1/6
f 221/2/6 231/2/6 239/2/6
f 238/1/6 221/1/6 239/1/6
f 231/1/6 232/1/6 240/1/6
f 239/2/6 231/2/6 240/2/6
f 232/1/6 224/1/6 241/1/6
f 240/1/6 232/1/6 241/1/6
f 224/1/6 215/1/6 242/1/6
f 241/1/6 224/1/6 242/1/6
f 242/1/6 215/1/6 243/1/6
f 227/2/6 233/2/6 244/2/6
f 243/1/6 215/1/6 244/1/6
f 215/2/6 227/2/6 244/2/6
f 233/1/6 234/1/6 245/1/6
f 244/2/6 233/2/6 245/2/6
f 235/2/6 236/2/6 246/2/6
f 219/1/6 235/1/6 246/1/6
f 237/1/6 238/1/6 247/1/6
f 246/2/6 236/2/6 247/2/6
f 236/1/6 237/1/6 247/1/6
f 241/1/6 242/1/6 248/1/6
f 248/1/6 242/1/6 249/1/6
f 242/2/6 243/2/6 250/2/6
f 249/1/6 242/1/6 250/1/6
f 244/1/6 245/1/6 251/1/6
f 250/2/6 243/2/6 251/2/6
f 243/1/6 244/1/6 251/1/6
f 240/2/6 241/2/6 252/2/6
f 247/1/6 238/1/6 252/1/6
f 238/2/6 239/2/6 252/2/6
f 246/1/6 247/1/6 252/1/6
f 239/2/6 240/2/6 252/2/6
f 241/1/6 248/1/6 253/1/6
f 252/2/6 241/2/6 253/2/6
f 248/2/6 249/2/6 254/2/6
f 253/1/6 248/1/6 254/1/6
f 250/1/6 251/1/6 255/1/6
f 254/2/6 249/2/6 255/2/6
f 249/1/6 250/1/6 255/1/6
f 175/2/6 176/2/6 256/2/6
f 252/1/6 253/1/6 257/1/6
f 256/2/6 176/2/6 257/2/6
f 176/1/6 219/1/6 257/1/6
f 254/1/6 255/1/6 257/1/6
f 246/1/6 252/1/6 257/1/6
f 219/1/6 246/1/6 257/1/6
f 253/1/6 254/1/6 257/1/6
f 255/1/6 251/1/6 258/1/6
f 257/1/6 255/1/6 258/1/6
f 177/2/6 178/2/6 258/2/6
f 245/1/6 234/1/6 258/1/6
f 251/1/6 245/1/6 258/1/6
f 234/1/6 177/1/6 258/1/6
f 258/2/6 178/2/6 259/2/6
