# MagicaVoxel @ Ephtracy

# material
mtllib via.mtl
usemtl palette

# normals
vn -1 0 0
vn 1 0 0
vn 0 0 1
vn 0 0 -1
vn 0 -1 0
vn 0 1 0

# texcoords
vt 0.0136719 0.5
vt 0.302734 0.5

# verts
v -20 0 10
v -20 0 -10
v -20 1 10
v -20 1 8
v -20 1 -8
v -20 1 -10
v -20 2 10
v -20 2 8
v -20 2 -8
v -20 2 -10
v -3 0 10
v -3 0 -10
v -3 1 10
v -3 1 8
v -3 1 -8
v -3 1 -10
v 17 0 10
v 17 0 -10
v 17 1 10
v 17 1 8
v 17 1 -8
v 17 1 -10
v -17 0 10
v -17 0 -10
v -17 1 10
v -17 1 8
v -17 1 -8
v -17 1 -10
v 0 0 10
v 0 0 -10
v 0 1 10
v 0 1 8
v 0 1 -8
v 0 1 -10
v 20 0 10
v 20 0 -10
v 20 1 10
v 20 1 8
v 20 1 -8
v 20 1 -10
v 20 2 10
v 20 2 8
v 20 2 -8
v 20 2 -10
v -20 0 10
v -20 1 10
v -20 2 10
v -17 0 10
v -17 1 10
v -3 0 10
v -3 1 10
v 0 0 10
v 0 1 10
v 17 0 10
v 17 1 10
v 20 0 10
v 20 1 10
v 20 2 10
v -20 1 -8
v -20 2 -8
v -17 1 -8
v -3 1 -8
v 0 1 -8
v 17 1 -8
v 20 1 -8
v 20 2 -8
v -20 1 8
v -20 2 8
v -17 1 8
v -3 1 8
v 0 1 8
v 17 1 8
v 20 1 8
v 20 2 8
v -20 0 -10
v -20 1 -10
v -20 2 -10
v -17 0 -10
v -17 1 -10
v -3 0 -10
v -3 1 -10
v 0 0 -10
v 0 1 -10
v 17 0 -10
v 17 1 -10
v 20 0 -10
v 20 1 -10
v 20 2 -10
v -20 0 10
v -17 0 10
v -3 0 10
v 0 0 10
v 17 0 10
v 20 0 10
v -20 0 -10
v -17 0 -10
v -3 0 -10
v 0 0 -10
v 17 0 -10
v 20 0 -10
v -17 1 10
v -3 1 10
v 0 1 10
v 17 1 10
v -17 1 8
v -3 1 8
v 0 1 8
v 17 1 8
v -17 1 -8
v -3 1 -8
v 0 1 -8
v 17 1 -8
v -17 1 -10
v -3 1 -10
v 0 1 -10
v 17 1 -10
v -20 1 8
v -17 1 8
v -3 1 8
v 0 1 8
v 17 1 8
v 20 1 8
v -20 1 -8
v -17 1 -8
v -3 1 -8
v 0 1 -8
v 17 1 -8
v 20 1 -8
v -20 2 10
v 20 2 10
v -20 2 8
v 20 2 8
v -20 2 -8
v 20 2 -8
v -20 2 -10
v 20 2 -10

# faces
f 3/2/1 2/2/1 1/2/1
f 4/2/1 2/2/1 3/2/1
f 5/2/1 2/2/1 4/2/1
f 6/2/1 2/2/1 5/2/1
f 7/1/1 4/1/1 3/1/1
f 8/1/1 4/1/1 7/1/1
f 9/1/1 6/1/1 5/1/1
f 10/1/1 6/1/1 9/1/1
f 13/2/1 12/2/1 11/2/1
f 14/2/1 12/2/1 13/2/1
f 15/2/1 12/2/1 14/2/1
f 16/2/1 12/2/1 15/2/1
f 19/2/1 18/2/1 17/2/1
f 20/2/1 18/2/1 19/2/1
f 21/2/1 18/2/1 20/2/1
f 22/2/1 18/2/1 21/2/1
f 23/2/2 24/2/2 25/2/2
f 25/2/2 24/2/2 26/2/2
f 26/2/2 24/2/2 27/2/2
f 27/2/2 24/2/2 28/2/2
f 29/2/2 30/2/2 31/2/2
f 31/2/2 30/2/2 32/2/2
f 32/2/2 30/2/2 33/2/2
f 33/2/2 30/2/2 34/2/2
f 35/2/2 36/2/2 37/2/2
f 37/2/2 36/2/2 38/2/2
f 38/2/2 36/2/2 39/2/2
f 39/2/2 36/2/2 40/2/2
f 37/1/2 38/1/2 41/1/2
f 41/1/2 38/1/2 42/1/2
f 39/1/2 40/1/2 43/1/2
f 43/1/2 40/1/2 44/1/2
f 48/2/3 46/2/3 45/2/3
f 49/1/3 47/1/3 46/1/3
f 49/2/3 46/2/3 48/2/3
f 51/1/3 47/1/3 49/1/3
f 52/2/3 51/2/3 50/2/3
f 53/1/3 47/1/3 51/1/3
f 53/2/3 51/2/3 52/2/3
f 55/1/3 47/1/3 53/1/3
f 56/2/3 55/2/3 54/2/3
f 57/1/3 47/1/3 55/1/3
f 57/2/3 55/2/3 56/2/3
f 58/1/3 47/1/3 57/1/3
f 61/1/3 60/1/3 59/1/3
f 62/1/3 60/1/3 61/1/3
f 63/1/3 60/1/3 62/1/3
f 64/1/3 60/1/3 63/1/3
f 65/1/3 60/1/3 64/1/3
f 66/1/3 60/1/3 65/1/3
f 67/1/4 68/1/4 69/1/4
f 69/1/4 68/1/4 70/1/4
f 70/1/4 68/1/4 71/1/4
f 71/1/4 68/1/4 72/1/4
f 72/1/4 68/1/4 73/1/4
f 73/1/4 68/1/4 74/1/4
f 75/2/4 76/2/4 78/2/4
f 76/1/4 77/1/4 79/1/4
f 78/2/4 76/2/4 79/2/4
f 79/1/4 77/1/4 81/1/4
f 80/2/4 81/2/4 82/2/4
f 81/1/4 77/1/4 83/1/4
f 82/2/4 81/2/4 83/2/4
f 83/1/4 77/1/4 85/1/4
f 84/2/4 85/2/4 86/2/4
f 85/1/4 77/1/4 87/1/4
f 86/2/4 85/2/4 87/2/4
f 87/1/4 77/1/4 88/1/4
f 95/2/5 90/2/5 89/2/5
f 96/2/5 90/2/5 95/2/5
f 97/2/5 92/2/5 91/2/5
f 98/2/5 92/2/5 97/2/5
f 99/2/5 94/2/5 93/2/5
f 100/2/5 94/2/5 99/2/5
f 105/1/5 102/1/5 101/1/5
f 106/1/5 102/1/5 105/1/5
f 107/1/5 104/1/5 103/1/5
f 108/1/5 104/1/5 107/1/5
f 113/1/5 110/1/5 109/1/5
f 114/1/5 110/1/5 113/1/5
f 115/1/5 112/1/5 111/1/5
f 116/1/5 112/1/5 115/1/5
f 117/2/6 118/2/6 123/2/6
f 123/2/6 118/2/6 124/2/6
f 119/2/6 120/2/6 125/2/6
f 125/2/6 120/2/6 126/2/6
f 121/2/6 122/2/6 127/2/6
f 127/2/6 122/2/6 128/2/6
f 129/1/6 130/1/6 131/1/6
f 131/1/6 130/1/6 132/1/6
f 133/1/6 134/1/6 135/1/6
f 135/1/6 134/1/6 136/1/6
