# MagicaVoxel @ Ephtracy

# material
mtllib planta.mtl
usemtl palette

# normals
vn -1 0 0
vn 1 0 0
vn 0 0 1
vn 0 0 -1
vn 0 -1 0
vn 0 1 0

# texcoords
vt 0.892578 0.5
vt 0.896484 0.5
vt 0.900391 0.5
vt 0.904297 0.5

# verts
v -10 0 10
v -10 0 9
v -10 0 -9
v -10 0 -10
v -10 2 9
v -10 2 -9
v -10 4 10
v -10 4 -10
v 6 0 10
v 6 0 6
v 6 4 10
v 6 4 6
v 10 0 6
v 10 0 2
v 10 0 -2
v 10 0 -10
v 10 4 6
v 10 4 2
v 10 4 -2
v 10 4 -10
v -10 0 10
v -10 4 10
v -3 0 10
v -3 1 10
v -2 0 10
v -2 1 10
v -2 4 10
v 2 0 10
v 2 4 10
v 6 0 10
v 6 4 10
v 6 0 6
v 6 4 6
v 10 0 6
v 10 4 6
v -10 0 -10
v -10 4 -10
v 10 0 -10
v 10 4 -10
v -10 0 10
v -3 0 10
v -2 0 10
v 2 0 10
v 6 0 10
v -10 0 9
v -3 0 9
v -2 0 9
v 6 0 6
v 10 0 6
v 2 0 2
v 10 0 2
v -2 0 -2
v 10 0 -2
v -10 0 -9
v -2 0 -9
v -10 0 -10
v 10 0 -10
v -10 4 10
v -2 4 10
v 2 4 10
v 6 4 10
v 6 4 6
v 10 4 6
v 2 4 2
v 10 4 2
v -2 4 -2
v 10 4 -2
v -10 4 -10
v 10 4 -10

# faces
f 5/2/1 2/2/1 1/2/1
f 5/1/1 3/1/1 2/1/1
f 6/2/1 4/2/1 3/2/1
f 6/1/1 3/1/1 5/1/1
f 7/2/1 5/2/1 1/2/1
f 7/2/1 6/2/1 5/2/1
f 8/2/1 4/2/1 6/2/1
f 8/2/1 6/2/1 7/2/1
f 9/2/2 10/2/2 11/2/2
f 11/2/2 10/2/2 12/2/2
f 13/2/2 14/2/2 17/2/2
f 14/4/2 15/4/2 18/4/2
f 17/2/2 14/2/2 18/2/2
f 15/2/2 16/2/2 19/2/2
f 18/4/2 15/4/2 19/4/2
f 19/2/2 16/2/2 20/2/2
f 23/2/3 22/2/3 21/2/3
f 24/2/3 22/2/3 23/2/3
f 25/3/3 24/3/3 23/3/3
f 26/2/3 22/2/3 24/2/3
f 26/3/3 24/3/3 25/3/3
f 27/2/3 22/2/3 26/2/3
f 28/4/3 26/4/3 25/4/3
f 28/4/3 27/4/3 26/4/3
f 29/4/3 27/4/3 28/4/3
f 30/2/3 29/2/3 28/2/3
f 31/2/3 29/2/3 30/2/3
f 34/2/3 33/2/3 32/2/3
f 35/2/3 33/2/3 34/2/3
f 36/2/4 37/2/4 38/2/4
f 38/2/4 37/2/4 39/2/4
f 45/2/5 41/2/5 40/2/5
f 46/3/5 42/3/5 41/3/5
f 46/2/5 41/2/5 45/2/5
f 47/4/5 43/4/5 42/4/5
f 47/3/5 42/3/5 46/3/5
f 48/2/5 44/2/5 43/2/5
f 50/4/5 43/4/5 47/4/5
f 50/2/5 49/2/5 48/2/5
f 50/2/5 48/2/5 43/2/5
f 51/2/5 49/2/5 50/2/5
f 52/1/5 47/1/5 46/1/5
f 52/1/5 46/1/5 45/1/5
f 52/4/5 51/4/5 50/4/5
f 52/4/5 50/4/5 47/4/5
f 53/4/5 51/4/5 52/4/5
f 54/1/5 52/1/5 45/1/5
f 55/2/5 53/2/5 52/2/5
f 55/1/5 52/1/5 54/1/5
f 56/2/5 55/2/5 54/2/5
f 57/2/5 53/2/5 55/2/5
f 57/2/5 55/2/5 56/2/5
f 60/2/6 61/2/6 62/2/6
f 59/4/6 60/4/6 64/4/6
f 62/2/6 63/2/6 64/2/6
f 60/2/6 62/2/6 64/2/6
f 64/2/6 63/2/6 65/2/6
f 58/2/6 59/2/6 66/2/6
f 59/4/6 64/4/6 66/4/6
f 64/4/6 65/4/6 66/4/6
f 66/4/6 65/4/6 67/4/6
f 58/2/6 66/2/6 68/2/6
f 66/2/6 67/2/6 68/2/6
f 68/2/6 67/2/6 69/2/6
