# MagicaVoxel @ Ephtracy

# material
mtllib semaforo2.mtl
usemtl palette

# normals
vn -1 0 0
vn 1 0 0
vn 0 0 1
vn 0 0 -1
vn 0 -1 0
vn 0 1 0

# texcoords
vt 0.0605469 0.5
vt 0.466797 0.5
vt 0.939453 0.5

# verts
v -2 0 2
v -2 0 -2
v -2 4 2
v -2 4 -2
v -2 8 2
v -2 8 -2
v -2 16 2
v -2 16 -2
v -2 20 2
v -2 20 -2
v -2 28 2
v -2 28 -2
v -2 32 2
v -2 32 -2
v -2 40 2
v -2 40 -2
v -2 44 2
v -2 44 -2
v -2 52 2
v -2 52 -2
v -2 56 2
v -2 56 -2
v -2 60 2
v -2 60 -2
v -2 64 2
v -2 64 -2
v -2 72 2
v -2 72 -2
v -2 76 2
v -2 76 -2
v -2 84 2
v -2 84 -2
v 2 72 8
v 2 72 2
v 2 72 -2
v 2 72 -8
v 2 76 2
v 2 76 -2
v 2 81 8
v 2 81 2
v 2 81 -2
v 2 81 -8
v 2 0 2
v 2 0 -2
v 2 4 2
v 2 4 -2
v 2 8 2
v 2 8 -2
v 2 16 2
v 2 16 -2
v 2 20 2
v 2 20 -2
v 2 28 2
v 2 28 -2
v 2 32 2
v 2 32 -2
v 2 40 2
v 2 40 -2
v 2 44 2
v 2 44 -2
v 2 52 2
v 2 52 -2
v 2 56 2
v 2 56 -2
v 2 60 2
v 2 60 -2
v 2 64 2
v 2 64 -2
v 2 72 2
v 2 72 -2
v 2 81 2
v 2 81 -2
v 2 84 2
v 2 84 -2
v 5 72 8
v 5 72 -8
v 5 75 6
v 5 75 2
v 5 75 -2
v 5 75 -6
v 5 79 6
v 5 79 2
v 5 79 -2
v 5 79 -6
v 5 81 8
v 5 81 -8
v 6 75 6
v 6 75 2
v 6 75 -2
v 6 75 -6
v 6 79 6
v 6 79 2
v 6 79 -2
v 6 79 -6
v 2 72 8
v 2 81 8
v 5 72 8
v 5 81 8
v 5 75 6
v 5 79 6
v 6 75 6
v 6 79 6
v -2 0 2
v -2 4 2
v -2 8 2
v -2 16 2
v -2 20 2
v -2 28 2
v -2 32 2
v -2 40 2
v -2 44 2
v -2 52 2
v -2 56 2
v -2 60 2
v -2 64 2
v -2 72 2
v -2 76 2
v -2 84 2
v 2 0 2
v 2 4 2
v 2 8 2
v 2 16 2
v 2 20 2
v 2 28 2
v 2 32 2
v 2 40 2
v 2 44 2
v 2 52 2
v 2 56 2
v 2 60 2
v 2 64 2
v 2 72 2
v 2 76 2
v 2 81 2
v 2 84 2
v 5 75 -2
v 5 79 -2
v 6 75 -2
v 6 79 -2
v 5 75 2
v 5 79 2
v 6 75 2
v 6 79 2
v -2 0 -2
v -2 4 -2
v -2 8 -2
v -2 16 -2
v -2 20 -2
v -2 28 -2
v -2 32 -2
v -2 40 -2
v -2 44 -2
v -2 52 -2
v -2 56 -2
v -2 60 -2
v -2 64 -2
v -2 72 -2
v -2 76 -2
v -2 84 -2
v 2 0 -2
v 2 4 -2
v 2 8 -2
v 2 16 -2
v 2 20 -2
v 2 28 -2
v 2 32 -2
v 2 40 -2
v 2 44 -2
v 2 52 -2
v 2 56 -2
v 2 60 -2
v 2 64 -2
v 2 72 -2
v 2 76 -2
v 2 81 -2
v 2 84 -2
v 5 75 -6
v 5 79 -6
v 6 75 -6
v 6 79 -6
v 2 72 -8
v 2 81 -8
v 5 72 -8
v 5 81 -8
v -2 0 2
v 2 0 2
v -2 0 -2
v 2 0 -2
v 2 72 8
v 5 72 8
v 2 72 2
v 2 72 -2
v 2 72 -8
v 5 72 -8
v 5 75 6
v 6 75 6
v 5 75 2
v 6 75 2
v 5 75 -2
v 6 75 -2
v 5 75 -6
v 6 75 -6
v 5 79 6
v 6 79 6
v 5 79 2
v 6 79 2
v 5 79 -2
v 6 79 -2
v 5 79 -6
v 6 79 -6
v 2 81 8
v 5 81 8
v 2 81 2
v 2 81 -2
v 2 81 -8
v 5 81 -8
v -2 84 2
v 2 84 2
v -2 84 -2
v 2 84 -2

# faces
f 3/3/1 2/3/1 1/3/1
f 4/3/1 2/3/1 3/3/1
f 5/2/1 4/2/1 3/2/1
f 6/2/1 4/2/1 5/2/1
f 7/3/1 6/3/1 5/3/1
f 8/3/1 6/3/1 7/3/1
f 9/2/1 8/2/1 7/2/1
f 10/2/1 8/2/1 9/2/1
f 11/3/1 10/3/1 9/3/1
f 12/3/1 10/3/1 11/3/1
f 13/2/1 12/2/1 11/2/1
f 14/2/1 12/2/1 13/2/1
f 15/3/1 14/3/1 13/3/1
f 16/3/1 14/3/1 15/3/1
f 17/2/1 16/2/1 15/2/1
f 18/2/1 16/2/1 17/2/1
f 19/3/1 18/3/1 17/3/1
f 20/3/1 18/3/1 19/3/1
f 21/2/1 20/2/1 19/2/1
f 22/2/1 20/2/1 21/2/1
f 23/3/1 22/3/1 21/3/1
f 24/3/1 22/3/1 23/3/1
f 25/2/1 24/2/1 23/2/1
f 26/2/1 24/2/1 25/2/1
f 27/3/1 26/3/1 25/3/1
f 28/3/1 26/3/1 27/3/1
f 29/2/1 28/2/1 27/2/1
f 30/2/1 28/2/1 29/2/1
f 31/3/1 30/3/1 29/3/1
f 32/3/1 30/3/1 31/3/1
f 37/1/1 34/1/1 33/1/1
f 38/1/1 36/1/1 35/1/1
f 39/1/1 37/1/1 33/1/1
f 40/1/1 37/1/1 39/1/1
f 41/1/1 36/1/1 38/1/1
f 42/1/1 36/1/1 41/1/1
f 43/3/2 44/3/2 45/3/2
f 45/3/2 44/3/2 46/3/2
f 45/2/2 46/2/2 47/2/2
f 47/2/2 46/2/2 48/2/2
f 47/3/2 48/3/2 49/3/2
f 49/3/2 48/3/2 50/3/2
f 49/2/2 50/2/2 51/2/2
f 51/2/2 50/2/2 52/2/2
f 51/3/2 52/3/2 53/3/2
f 53/3/2 52/3/2 54/3/2
f 53/2/2 54/2/2 55/2/2
f 55/2/2 54/2/2 56/2/2
f 55/3/2 56/3/2 57/3/2
f 57/3/2 56/3/2 58/3/2
f 57/2/2 58/2/2 59/2/2
f 59/2/2 58/2/2 60/2/2
f 59/3/2 60/3/2 61/3/2
f 61/3/2 60/3/2 62/3/2
f 61/2/2 62/2/2 63/2/2
f 63/2/2 62/2/2 64/2/2
f 63/3/2 64/3/2 65/3/2
f 65/3/2 64/3/2 66/3/2
f 65/2/2 66/2/2 67/2/2
f 67/2/2 66/2/2 68/2/2
f 67/3/2 68/3/2 69/3/2
f 69/3/2 68/3/2 70/3/2
f 71/3/2 72/3/2 73/3/2
f 73/3/2 72/3/2 74/3/2
f 75/1/2 76/1/2 77/1/2
f 77/1/2 76/1/2 78/1/2
f 78/1/2 76/1/2 79/1/2
f 79/1/2 76/1/2 80/1/2
f 75/1/2 77/1/2 81/1/2
f 78/1/2 79/1/2 82/1/2
f 82/1/2 79/1/2 83/1/2
f 80/1/2 76/1/2 84/1/2
f 82/1/2 83/1/2 85/1/2
f 83/1/2 84/1/2 85/1/2
f 75/1/2 81/1/2 85/1/2
f 81/1/2 82/1/2 85/1/2
f 84/1/2 76/1/2 86/1/2
f 85/1/2 84/1/2 86/1/2
f 87/3/2 88/3/2 91/3/2
f 91/3/2 88/3/2 92/3/2
f 89/3/2 90/3/2 93/3/2
f 93/3/2 90/3/2 94/3/2
f 97/1/3 96/1/3 95/1/3
f 98/1/3 96/1/3 97/1/3
f 101/3/3 100/3/3 99/3/3
f 102/3/3 100/3/3 101/3/3
f 119/3/3 104/3/3 103/3/3
f 120/2/3 105/2/3 104/2/3
f 120/3/3 104/3/3 119/3/3
f 121/3/3 106/3/3 105/3/3
f 121/2/3 105/2/3 120/2/3
f 122/2/3 107/2/3 106/2/3
f 122/3/3 106/3/3 121/3/3
f 123/3/3 108/3/3 107/3/3
f 123/2/3 107/2/3 122/2/3
f 124/2/3 109/2/3 108/2/3
f 124/3/3 108/3/3 123/3/3
f 125/3/3 110/3/3 109/3/3
f 125/2/3 109/2/3 124/2/3
f 126/2/3 111/2/3 110/2/3
f 126/3/3 110/3/3 125/3/3
f 127/3/3 112/3/3 111/3/3
f 127/2/3 111/2/3 126/2/3
f 128/2/3 113/2/3 112/2/3
f 128/3/3 112/3/3 127/3/3
f 129/3/3 114/3/3 113/3/3
f 129/2/3 113/2/3 128/2/3
f 130/2/3 115/2/3 114/2/3
f 130/3/3 114/3/3 129/3/3
f 131/3/3 116/3/3 115/3/3
f 131/2/3 115/2/3 130/2/3
f 132/2/3 117/2/3 116/2/3
f 132/3/3 116/3/3 131/3/3
f 133/3/3 118/3/3 117/3/3
f 133/2/3 117/2/3 132/2/3
f 134/3/3 118/3/3 133/3/3
f 135/3/3 118/3/3 134/3/3
f 138/3/3 137/3/3 136/3/3
f 139/3/3 137/3/3 138/3/3
f 140/3/4 141/3/4 142/3/4
f 142/3/4 141/3/4 143/3/4
f 144/3/4 145/3/4 160/3/4
f 145/2/4 146/2/4 161/2/4
f 160/3/4 145/3/4 161/3/4
f 146/3/4 147/3/4 162/3/4
f 161/2/4 146/2/4 162/2/4
f 147/2/4 148/2/4 163/2/4
f 162/3/4 147/3/4 163/3/4
f 148/3/4 149/3/4 164/3/4
f 163/2/4 148/2/4 164/2/4
f 149/2/4 150/2/4 165/2/4
f 164/3/4 149/3/4 165/3/4
f 150/3/4 151/3/4 166/3/4
f 165/2/4 150/2/4 166/2/4
f 151/2/4 152/2/4 167/2/4
f 166/3/4 151/3/4 167/3/4
f 152/3/4 153/3/4 168/3/4
f 167/2/4 152/2/4 168/2/4
f 153/2/4 154/2/4 169/2/4
f 168/3/4 153/3/4 169/3/4
f 154/3/4 155/3/4 170/3/4
f 169/2/4 154/2/4 170/2/4
f 155/2/4 156/2/4 171/2/4
f 170/3/4 155/3/4 171/3/4
f 156/3/4 157/3/4 172/3/4
f 171/2/4 156/2/4 172/2/4
f 157/2/4 158/2/4 173/2/4
f 172/3/4 157/3/4 173/3/4
f 158/3/4 159/3/4 174/3/4
f 173/2/4 158/2/4 174/2/4
f 174/3/4 159/3/4 175/3/4
f 175/3/4 159/3/4 176/3/4
f 177/3/4 178/3/4 179/3/4
f 179/3/4 178/3/4 180/3/4
f 181/1/4 182/1/4 183/1/4
f 183/1/4 182/1/4 184/1/4
f 187/3/5 186/3/5 185/3/5
f 188/3/5 186/3/5 187/3/5
f 191/1/5 190/1/5 189/1/5
f 192/1/5 190/1/5 191/1/5
f 193/1/5 190/1/5 192/1/5
f 194/1/5 190/1/5 193/1/5
f 197/3/5 196/3/5 195/3/5
f 198/3/5 196/3/5 197/3/5
f 201/3/5 200/3/5 199/3/5
f 202/3/5 200/3/5 201/3/5
f 203/3/6 204/3/6 205/3/6
f 205/3/6 204/3/6 206/3/6
f 207/3/6 208/3/6 209/3/6
f 209/3/6 208/3/6 210/3/6
f 211/1/6 212/1/6 213/1/6
f 213/1/6 212/1/6 214/1/6
f 214/1/6 212/1/6 215/1/6
f 215/1/6 212/1/6 216/1/6
f 217/3/6 218/3/6 219/3/6
f 219/3/6 218/3/6 220/3/6
