# MagicaVoxel @ Ephtracy

# material
mtllib semaforo-00.mtl
usemtl palette

# normals
vn -1 0 0
vn 1 0 0
vn 0 0 1
vn 0 0 -1
vn 0 -1 0
vn 0 1 0

# texcoords
vt 0.0605469 0.5
vt 0.466797 0.5
vt 0.822266 0.5
vt 0.916016 0.5
vt 0.939453 0.5
vt 0.947266 0.5

# verts
v -2 0 2
v -2 0 -2
v -2 4 2
v -2 4 -2
v -2 8 2
v -2 8 -2
v -2 16 2
v -2 16 -2
v -2 20 2
v -2 20 -2
v -2 28 2
v -2 28 -2
v -2 32 2
v -2 32 -2
v -2 40 2
v -2 40 -2
v -2 44 2
v -2 44 -2
v -2 52 2
v -2 52 -2
v -2 56 2
v -2 56 -2
v -2 60 2
v -2 60 -2
v 2 44 9
v 2 44 2
v 2 44 -2
v 2 44 -9
v 2 50 9
v 2 50 2
v 2 50 -2
v 2 50 -9
v 2 0 2
v 2 0 -2
v 2 4 2
v 2 4 -2
v 2 8 2
v 2 8 -2
v 2 16 2
v 2 16 -2
v 2 20 2
v 2 20 -2
v 2 28 2
v 2 28 -2
v 2 32 2
v 2 32 -2
v 2 40 2
v 2 40 -2
v 2 44 2
v 2 44 -2
v 2 50 2
v 2 50 -2
v 2 52 2
v 2 52 -2
v 2 56 2
v 2 56 -2
v 2 60 2
v 2 60 -2
v 7 44 9
v 7 44 -9
v 7 45 7
v 7 45 3
v 7 45 -3
v 7 45 -7
v 7 49 -3
v 7 49 -7
v 7 50 9
v 7 50 7
v 7 50 3
v 7 50 -3
v 7 50 -7
v 7 50 -9
v 8 45 7
v 8 45 3
v 8 45 -3
v 8 45 -7
v 8 49 7
v 8 49 3
v 8 49 -3
v 8 49 -7
v 9 49 7
v 9 49 3
v 9 49 -3
v 9 49 -7
v 9 50 7
v 9 50 3
v 9 50 -3
v 9 50 -7
v 2 44 9
v 2 50 9
v 7 44 9
v 7 50 9
v 7 45 7
v 7 50 7
v 8 45 7
v 8 49 7
v 9 49 7
v 9 50 7
v -2 0 2
v -2 4 2
v -2 8 2
v -2 16 2
v -2 20 2
v -2 28 2
v -2 32 2
v -2 40 2
v -2 44 2
v -2 52 2
v -2 56 2
v -2 60 2
v 2 0 2
v 2 4 2
v 2 8 2
v 2 16 2
v 2 20 2
v 2 28 2
v 2 32 2
v 2 40 2
v 2 44 2
v 2 50 2
v 2 52 2
v 2 56 2
v 2 60 2
v 7 45 -3
v 7 49 -3
v 7 50 -3
v 8 45 -3
v 8 49 -3
v 9 49 -3
v 9 50 -3
v 7 45 3
v 7 50 3
v 8 45 3
v 8 49 3
v 9 49 3
v 9 50 3
v -2 0 -2
v -2 4 -2
v -2 8 -2
v -2 16 -2
v -2 20 -2
v -2 28 -2
v -2 32 -2
v -2 40 -2
v -2 44 -2
v -2 52 -2
v -2 56 -2
v -2 60 -2
v 2 0 -2
v 2 4 -2
v 2 8 -2
v 2 16 -2
v 2 20 -2
v 2 28 -2
v 2 32 -2
v 2 40 -2
v 2 44 -2
v 2 50 -2
v 2 52 -2
v 2 56 -2
v 2 60 -2
v 7 45 -7
v 7 49 -7
v 7 50 -7
v 8 45 -7
v 8 49 -7
v 9 49 -7
v 9 50 -7
v 2 44 -9
v 2 50 -9
v 7 44 -9
v 7 50 -9
v -2 0 2
v 2 0 2
v -2 0 -2
v 2 0 -2
v 2 44 9
v 7 44 9
v 2 44 2
v 2 44 -2
v 2 44 -9
v 7 44 -9
v 7 45 7
v 8 45 7
v 7 45 3
v 8 45 3
v 7 45 -3
v 8 45 -3
v 7 45 -7
v 8 45 -7
v 8 49 7
v 9 49 7
v 8 49 3
v 9 49 3
v 8 49 -3
v 9 49 -3
v 8 49 -7
v 9 49 -7
v 2 50 9
v 7 50 9
v 7 50 7
v 9 50 7
v 7 50 3
v 9 50 3
v 2 50 2
v 2 50 -2
v 7 50 -3
v 9 50 -3
v 7 50 -7
v 9 50 -7
v 2 50 -9
v 7 50 -9
v -2 60 2
v 2 60 2
v -2 60 -2
v 2 60 -2

# faces
f 3/5/1 2/5/1 1/5/1
f 4/5/1 2/5/1 3/5/1
f 5/2/1 4/2/1 3/2/1
f 6/2/1 4/2/1 5/2/1
f 7/5/1 6/5/1 5/5/1
f 8/5/1 6/5/1 7/5/1
f 9/2/1 8/2/1 7/2/1
f 10/2/1 8/2/1 9/2/1
f 11/5/1 10/5/1 9/5/1
f 12/5/1 10/5/1 11/5/1
f 13/2/1 12/2/1 11/2/1
f 14/2/1 12/2/1 13/2/1
f 15/5/1 14/5/1 13/5/1
f 16/5/1 14/5/1 15/5/1
f 17/2/1 16/2/1 15/2/1
f 18/2/1 16/2/1 17/2/1
f 19/5/1 18/5/1 17/5/1
f 20/5/1 18/5/1 19/5/1
f 21/2/1 20/2/1 19/2/1
f 22/2/1 20/2/1 21/2/1
f 23/5/1 22/5/1 21/5/1
f 24/5/1 22/5/1 23/5/1
f 29/1/1 26/1/1 25/1/1
f 30/1/1 26/1/1 29/1/1
f 31/1/1 28/1/1 27/1/1
f 32/1/1 28/1/1 31/1/1
f 33/5/2 34/5/2 35/5/2
f 35/5/2 34/5/2 36/5/2
f 35/2/2 36/2/2 37/2/2
f 37/2/2 36/2/2 38/2/2
f 37/5/2 38/5/2 39/5/2
f 39/5/2 38/5/2 40/5/2
f 39/2/2 40/2/2 41/2/2
f 41/2/2 40/2/2 42/2/2
f 41/5/2 42/5/2 43/5/2
f 43/5/2 42/5/2 44/5/2
f 43/2/2 44/2/2 45/2/2
f 45/2/2 44/2/2 46/2/2
f 45/5/2 46/5/2 47/5/2
f 47/5/2 46/5/2 48/5/2
f 47/2/2 48/2/2 49/2/2
f 49/2/2 48/2/2 50/2/2
f 51/5/2 52/5/2 53/5/2
f 53/5/2 52/5/2 54/5/2
f 53/2/2 54/2/2 55/2/2
f 55/2/2 54/2/2 56/2/2
f 55/5/2 56/5/2 57/5/2
f 57/5/2 56/5/2 58/5/2
f 59/1/2 60/1/2 61/1/2
f 61/1/2 60/1/2 62/1/2
f 62/1/2 60/1/2 63/1/2
f 63/1/2 60/1/2 64/1/2
f 62/1/2 63/1/2 65/1/2
f 64/1/2 60/1/2 66/1/2
f 59/1/2 61/1/2 67/1/2
f 67/1/2 61/1/2 68/1/2
f 62/1/2 65/1/2 69/1/2
f 69/1/2 65/1/2 70/1/2
f 66/1/2 60/1/2 71/1/2
f 71/1/2 60/1/2 72/1/2
f 73/1/2 74/1/2 77/1/2
f 77/1/2 74/1/2 78/1/2
f 75/4/2 76/4/2 79/4/2
f 79/4/2 76/4/2 80/4/2
f 81/1/2 82/1/2 85/1/2
f 85/1/2 82/1/2 86/1/2
f 83/1/2 84/1/2 87/1/2
f 87/1/2 84/1/2 88/1/2
f 91/1/3 90/1/3 89/1/3
f 92/1/3 90/1/3 91/1/3
f 95/1/3 94/1/3 93/1/3
f 96/1/3 94/1/3 95/1/3
f 97/1/3 94/1/3 96/1/3
f 98/1/3 94/1/3 97/1/3
f 111/5/3 100/5/3 99/5/3
f 112/2/3 101/2/3 100/2/3
f 112/5/3 100/5/3 111/5/3
f 113/5/3 102/5/3 101/5/3
f 113/2/3 101/2/3 112/2/3
f 114/2/3 103/2/3 102/2/3
f 114/5/3 102/5/3 113/5/3
f 115/5/3 104/5/3 103/5/3
f 115/2/3 103/2/3 114/2/3
f 116/2/3 105/2/3 104/2/3
f 116/5/3 104/5/3 115/5/3
f 117/5/3 106/5/3 105/5/3
f 117/2/3 105/2/3 116/2/3
f 118/2/3 107/2/3 106/2/3
f 118/5/3 106/5/3 117/5/3
f 119/5/3 108/5/3 107/5/3
f 119/2/3 107/2/3 118/2/3
f 120/5/3 108/5/3 119/5/3
f 121/2/3 109/2/3 108/2/3
f 121/5/3 108/5/3 120/5/3
f 122/5/3 110/5/3 109/5/3
f 122/2/3 109/2/3 121/2/3
f 123/5/3 110/5/3 122/5/3
f 127/4/3 125/4/3 124/4/3
f 128/1/3 126/1/3 125/1/3
f 128/4/3 125/4/3 127/4/3
f 129/1/3 126/1/3 128/1/3
f 130/1/3 126/1/3 129/1/3
f 131/1/4 132/1/4 133/1/4
f 133/1/4 132/1/4 134/1/4
f 134/1/4 132/1/4 135/1/4
f 135/1/4 132/1/4 136/1/4
f 137/5/4 138/5/4 149/5/4
f 138/2/4 139/2/4 150/2/4
f 149/5/4 138/5/4 150/5/4
f 139/5/4 140/5/4 151/5/4
f 150/2/4 139/2/4 151/2/4
f 140/2/4 141/2/4 152/2/4
f 151/5/4 140/5/4 152/5/4
f 141/5/4 142/5/4 153/5/4
f 152/2/4 141/2/4 153/2/4
f 142/2/4 143/2/4 154/2/4
f 153/5/4 142/5/4 154/5/4
f 143/5/4 144/5/4 155/5/4
f 154/2/4 143/2/4 155/2/4
f 144/2/4 145/2/4 156/2/4
f 155/5/4 144/5/4 156/5/4
f 145/5/4 146/5/4 157/5/4
f 156/2/4 145/2/4 157/2/4
f 157/5/4 146/5/4 158/5/4
f 146/2/4 147/2/4 159/2/4
f 158/5/4 146/5/4 159/5/4
f 147/5/4 148/5/4 160/5/4
f 159/2/4 147/2/4 160/2/4
f 160/5/4 148/5/4 161/5/4
f 162/4/4 163/4/4 165/4/4
f 163/1/4 164/1/4 166/1/4
f 165/4/4 163/4/4 166/4/4
f 166/1/4 164/1/4 167/1/4
f 167/1/4 164/1/4 168/1/4
f 169/1/4 170/1/4 171/1/4
f 171/1/4 170/1/4 172/1/4
f 175/5/5 174/5/5 173/5/5
f 176/5/5 174/5/5 175/5/5
f 179/1/5 178/1/5 177/1/5
f 180/1/5 178/1/5 179/1/5
f 181/1/5 178/1/5 180/1/5
f 182/1/5 178/1/5 181/1/5
f 185/1/5 184/1/5 183/1/5
f 186/1/5 184/1/5 185/1/5
f 189/4/5 188/4/5 187/4/5
f 190/4/5 188/4/5 189/4/5
f 193/1/5 192/1/5 191/1/5
f 194/1/5 192/1/5 193/1/5
f 197/1/5 196/1/5 195/1/5
f 198/1/5 196/1/5 197/1/5
f 199/1/6 200/1/6 201/1/6
f 199/1/6 201/1/6 203/1/6
f 201/1/6 202/1/6 203/1/6
f 203/1/6 202/1/6 204/1/6
f 199/1/6 203/1/6 205/1/6
f 205/1/6 203/1/6 206/1/6
f 206/1/6 203/1/6 207/1/6
f 206/1/6 207/1/6 209/1/6
f 207/1/6 208/1/6 209/1/6
f 209/1/6 208/1/6 210/1/6
f 206/1/6 209/1/6 211/1/6
f 211/1/6 209/1/6 212/1/6
f 213/5/6 214/5/6 215/5/6
f 215/5/6 214/5/6 216/5/6
