# MagicaVoxel @ Ephtracy

# material
mtllib aguila.mtl
usemtl palette

# normals
vn -1 0 0
vn 1 0 0
vn 0 0 1
vn 0 0 -1
vn 0 -1 0
vn 0 1 0

# texcoords
vt 0.00195313 0.5
vt 0.0605469 0.5
vt 0.392578 0.5
vt 0.876953 0.5

# verts
v -30 18 3
v -30 18 -10
v -30 22 3
v -30 22 -10
v -5 0 -5
v -5 0 -11
v -5 3 -5
v -5 3 -10
v -5 4 -11
v -5 4 -14
v -5 7 20
v -5 7 10
v -5 7 -10
v -5 7 -14
v -5 7 -16
v -5 7 -30
v -5 12 -16
v -5 12 -27
v -5 13 17
v -5 13 15
v -5 15 17
v -5 15 15
v -5 17 20
v -5 17 10
v -5 17 3
v -5 17 -10
v -5 17 -16
v -5 17 -27
v -5 17 -30
v -5 18 3
v -5 18 -10
v -2 8 24
v -2 8 22
v -2 13 22
v -2 13 20
v -2 15 24
v -2 15 20
v 2 0 -5
v 2 0 -11
v 2 3 -5
v 2 3 -10
v 2 4 -11
v 2 4 -14
v 2 7 -10
v 2 7 -14
v 4 17 3
v 4 17 -10
v 4 20 3
v 4 20 -10
v 29 20 3
v 29 20 -10
v 29 22 3
v 29 22 -10
v -29 20 3
v -29 20 -10
v -29 22 3
v -29 22 -10
v -4 17 3
v -4 17 -10
v -4 20 3
v -4 20 -10
v -2 0 -5
v -2 0 -11
v -2 3 -5
v -2 3 -10
v -2 4 -11
v -2 4 -14
v -2 7 -10
v -2 7 -14
v 2 8 24
v 2 8 22
v 2 13 22
v 2 13 20
v 2 15 24
v 2 15 20
v 5 0 -5
v 5 0 -11
v 5 3 -5
v 5 3 -10
v 5 4 -11
v 5 4 -14
v 5 7 20
v 5 7 10
v 5 7 -10
v 5 7 -14
v 5 7 -16
v 5 7 -30
v 5 12 -16
v 5 12 -27
v 5 13 17
v 5 13 15
v 5 15 17
v 5 15 15
v 5 17 20
v 5 17 10
v 5 17 3
v 5 17 -10
v 5 17 -16
v 5 17 -27
v 5 17 -30
v 5 18 3
v 5 18 -10
v 30 18 3
v 30 18 -10
v 30 22 3
v 30 22 -10
v -2 8 24
v -2 15 24
v 2 8 24
v 2 15 24
v -5 7 20
v -5 17 20
v -2 13 20
v -2 15 20
v 2 13 20
v 2 15 20
v 5 7 20
v 5 17 20
v -30 18 3
v -30 22 3
v -29 20 3
v -29 22 3
v -5 17 3
v -5 18 3
v -4 17 3
v -4 20 3
v 4 17 3
v 4 20 3
v 5 17 3
v 5 18 3
v 29 20 3
v 29 22 3
v 30 18 3
v 30 22 3
v -5 0 -5
v -5 3 -5
v -2 0 -5
v -2 3 -5
v 2 0 -5
v 2 3 -5
v 5 0 -5
v 5 3 -5
v -5 3 -10
v -5 7 -10
v -2 3 -10
v -2 7 -10
v 2 3 -10
v 2 7 -10
v 5 3 -10
v 5 7 -10
v -5 12 -27
v -5 17 -27
v 5 12 -27
v 5 17 -27
v -2 8 22
v -2 13 22
v 2 8 22
v 2 13 22
v -30 18 -10
v -30 22 -10
v -29 20 -10
v -29 22 -10
v -5 17 -10
v -5 18 -10
v -4 17 -10
v -4 20 -10
v 4 17 -10
v 4 20 -10
v 5 17 -10
v 5 18 -10
v 29 20 -10
v 29 22 -10
v 30 18 -10
v 30 22 -10
v -5 0 -11
v -5 4 -11
v -2 0 -11
v -2 4 -11
v 2 0 -11
v 2 4 -11
v 5 0 -11
v 5 4 -11
v -5 4 -14
v -5 7 -14
v -2 4 -14
v -2 7 -14
v 2 4 -14
v 2 7 -14
v 5 4 -14
v 5 7 -14
v -5 12 -16
v -5 17 -16
v 5 12 -16
v 5 17 -16
v -5 7 -30
v -5 17 -30
v 5 7 -30
v 5 17 -30
v -5 0 -5
v -2 0 -5
v 2 0 -5
v 5 0 -5
v -5 0 -11
v -2 0 -11
v 2 0 -11
v 5 0 -11
v -5 4 -11
v -2 4 -11
v 2 4 -11
v 5 4 -11
v -5 4 -14
v -2 4 -14
v 2 4 -14
v 5 4 -14
v -5 7 20
v 5 7 20
v -5 7 10
v 5 7 10
v -5 7 -10
v -2 7 -10
v 2 7 -10
v 5 7 -10
v -5 7 -14
v -2 7 -14
v 2 7 -14
v 5 7 -14
v -5 7 -16
v 5 7 -16
v -5 7 -30
v 5 7 -30
v -2 8 24
v 2 8 24
v -2 8 22
v 2 8 22
v -2 13 22
v 2 13 22
v -2 13 20
v 2 13 20
v -30 18 3
v -5 18 3
v 5 18 3
v 30 18 3
v -30 18 -10
v -5 18 -10
v 5 18 -10
v 30 18 -10
v -5 3 -5
v -2 3 -5
v 2 3 -5
v 5 3 -5
v -5 3 -10
v -2 3 -10
v 2 3 -10
v 5 3 -10
v -5 12 -16
v 5 12 -16
v -5 12 -27
v 5 12 -27
v -2 15 24
v 2 15 24
v -2 15 20
v 2 15 20
v -5 17 20
v 5 17 20
v -5 17 10
v 5 17 10
v -5 17 3
v -4 17 3
v 4 17 3
v 5 17 3
v -5 17 -10
v -4 17 -10
v 4 17 -10
v 5 17 -10
v -5 17 -16
v 5 17 -16
v -5 17 -27
v 5 17 -27
v -5 17 -30
v 5 17 -30
v -29 20 3
v -4 20 3
v 4 20 3
v 29 20 3
v -29 20 -10
v -4 20 -10
v 4 20 -10
v 29 20 -10
v -30 22 3
v -29 22 3
v 29 22 3
v 30 22 3
v -30 22 -10
v -29 22 -10
v 29 22 -10
v 30 22 -10

# faces
f 3/3/1 2/3/1 1/3/1
f 4/3/1 2/3/1 3/3/1
f 7/4/1 6/4/1 5/4/1
f 8/4/1 6/4/1 7/4/1
f 9/4/1 6/4/1 8/4/1
f 13/4/1 9/4/1 8/4/1
f 13/4/1 10/4/1 9/4/1
f 14/4/1 10/4/1 13/4/1
f 17/3/1 13/3/1 12/3/1
f 17/1/1 16/1/1 15/1/1
f 17/3/1 15/3/1 14/3/1
f 17/3/1 14/3/1 13/3/1
f 18/1/1 16/1/1 17/1/1
f 19/1/1 12/1/1 11/1/1
f 20/1/1 12/1/1 19/1/1
f 21/1/1 19/1/1 11/1/1
f 21/2/1 20/2/1 19/2/1
f 22/1/1 12/1/1 20/1/1
f 22/2/1 20/2/1 21/2/1
f 23/1/1 21/1/1 11/1/1
f 23/1/1 22/1/1 21/1/1
f 24/3/1 17/3/1 12/3/1
f 24/1/1 22/1/1 23/1/1
f 24/1/1 12/1/1 22/1/1
f 25/3/1 17/3/1 24/3/1
f 26/3/1 17/3/1 25/3/1
f 27/3/1 17/3/1 26/3/1
f 28/1/1 16/1/1 18/1/1
f 29/1/1 16/1/1 28/1/1
f 30/3/1 26/3/1 25/3/1
f 31/3/1 26/3/1 30/3/1
f 34/4/1 33/4/1 32/4/1
f 36/4/1 34/4/1 32/4/1
f 36/4/1 35/4/1 34/4/1
f 37/4/1 35/4/1 36/4/1
f 40/4/1 39/4/1 38/4/1
f 41/4/1 39/4/1 40/4/1
f 42/4/1 39/4/1 41/4/1
f 44/4/1 42/4/1 41/4/1
f 44/4/1 43/4/1 42/4/1
f 45/4/1 43/4/1 44/4/1
f 48/3/1 47/3/1 46/3/1
f 49/3/1 47/3/1 48/3/1
f 52/3/1 51/3/1 50/3/1
f 53/3/1 51/3/1 52/3/1
f 54/3/2 55/3/2 56/3/2
f 56/3/2 55/3/2 57/3/2
f 58/3/2 59/3/2 60/3/2
f 60/3/2 59/3/2 61/3/2
f 62/4/2 63/4/2 64/4/2
f 64/4/2 63/4/2 65/4/2
f 65/4/2 63/4/2 66/4/2
f 65/4/2 66/4/2 68/4/2
f 66/4/2 67/4/2 68/4/2
f 68/4/2 67/4/2 69/4/2
f 70/4/2 71/4/2 72/4/2
f 70/4/2 72/4/2 74/4/2
f 72/4/2 73/4/2 74/4/2
f 74/4/2 73/4/2 75/4/2
f 76/4/2 77/4/2 78/4/2
f 78/4/2 77/4/2 79/4/2
f 79/4/2 77/4/2 80/4/2
f 79/4/2 80/4/2 84/4/2
f 80/4/2 81/4/2 84/4/2
f 84/4/2 81/4/2 85/4/2
f 83/3/2 84/3/2 88/3/2
f 86/1/2 87/1/2 88/1/2
f 85/3/2 86/3/2 88/3/2
f 84/3/2 85/3/2 88/3/2
f 88/1/2 87/1/2 89/1/2
f 82/1/2 83/1/2 90/1/2
f 90/1/2 83/1/2 91/1/2
f 82/1/2 90/1/2 92/1/2
f 90/2/2 91/2/2 92/2/2
f 91/1/2 83/1/2 93/1/2
f 92/2/2 91/2/2 93/2/2
f 82/1/2 92/1/2 94/1/2
f 92/1/2 93/1/2 94/1/2
f 83/3/2 88/3/2 95/3/2
f 94/1/2 93/1/2 95/1/2
f 93/1/2 83/1/2 95/1/2
f 95/3/2 88/3/2 96/3/2
f 96/3/2 88/3/2 97/3/2
f 97/3/2 88/3/2 98/3/2
f 89/1/2 87/1/2 99/1/2
f 99/1/2 87/1/2 100/1/2
f 96/3/2 97/3/2 101/3/2
f 101/3/2 97/3/2 102/3/2
f 103/3/2 104/3/2 105/3/2
f 105/3/2 104/3/2 106/3/2
f 109/4/3 108/4/3 107/4/3
f 110/4/3 108/4/3 109/4/3
f 113/1/3 112/1/3 111/1/3
f 114/1/3 112/1/3 113/1/3
f 115/1/3 113/1/3 111/1/3
f 116/1/3 112/1/3 114/1/3
f 117/1/3 115/1/3 111/1/3
f 117/1/3 116/1/3 115/1/3
f 118/1/3 112/1/3 116/1/3
f 118/1/3 116/1/3 117/1/3
f 121/3/3 120/3/3 119/3/3
f 122/3/3 120/3/3 121/3/3
f 124/3/3 121/3/3 119/3/3
f 125/3/3 124/3/3 123/3/3
f 126/3/3 121/3/3 124/3/3
f 126/3/3 124/3/3 125/3/3
f 129/3/3 128/3/3 127/3/3
f 130/3/3 128/3/3 129/3/3
f 131/3/3 128/3/3 130/3/3
f 133/3/3 131/3/3 130/3/3
f 133/3/3 132/3/3 131/3/3
f 134/3/3 132/3/3 133/3/3
f 137/4/3 136/4/3 135/4/3
f 138/4/3 136/4/3 137/4/3
f 141/4/3 140/4/3 139/4/3
f 142/4/3 140/4/3 141/4/3
f 145/4/3 144/4/3 143/4/3
f 146/4/3 144/4/3 145/4/3
f 149/4/3 148/4/3 147/4/3
f 150/4/3 148/4/3 149/4/3
f 153/1/3 152/1/3 151/1/3
f 154/1/3 152/1/3 153/1/3
f 155/4/4 156/4/4 157/4/4
f 157/4/4 156/4/4 158/4/4
f 159/3/4 160/3/4 161/3/4
f 161/3/4 160/3/4 162/3/4
f 159/3/4 161/3/4 164/3/4
f 163/3/4 164/3/4 165/3/4
f 164/3/4 161/3/4 166/3/4
f 165/3/4 164/3/4 166/3/4
f 167/3/4 168/3/4 169/3/4
f 169/3/4 168/3/4 170/3/4
f 170/3/4 168/3/4 171/3/4
f 170/3/4 171/3/4 173/3/4
f 171/3/4 172/3/4 173/3/4
f 173/3/4 172/3/4 174/3/4
f 175/4/4 176/4/4 177/4/4
f 177/4/4 176/4/4 178/4/4
f 179/4/4 180/4/4 181/4/4
f 181/4/4 180/4/4 182/4/4
f 183/4/4 184/4/4 185/4/4
f 185/4/4 184/4/4 186/4/4
f 187/4/4 188/4/4 189/4/4
f 189/4/4 188/4/4 190/4/4
f 191/3/4 192/3/4 193/3/4
f 193/3/4 192/3/4 194/3/4
f 195/1/4 196/1/4 197/1/4
f 197/1/4 196/1/4 198/1/4
f 203/4/5 200/4/5 199/4/5
f 204/4/5 200/4/5 203/4/5
f 205/4/5 202/4/5 201/4/5
f 206/4/5 202/4/5 205/4/5
f 211/4/5 208/4/5 207/4/5
f 212/4/5 208/4/5 211/4/5
f 213/4/5 210/4/5 209/4/5
f 214/4/5 210/4/5 213/4/5
f 217/1/5 216/1/5 215/1/5
f 218/1/5 216/1/5 217/1/5
f 219/3/5 218/3/5 217/3/5
f 220/3/5 218/3/5 219/3/5
f 221/3/5 218/3/5 220/3/5
f 222/3/5 218/3/5 221/3/5
f 224/3/5 221/3/5 220/3/5
f 225/3/5 221/3/5 224/3/5
f 227/3/5 224/3/5 223/3/5
f 227/3/5 226/3/5 225/3/5
f 227/3/5 225/3/5 224/3/5
f 228/3/5 226/3/5 227/3/5
f 229/1/5 228/1/5 227/1/5
f 230/1/5 228/1/5 229/1/5
f 233/4/5 232/4/5 231/4/5
f 234/4/5 232/4/5 233/4/5
f 237/4/5 236/4/5 235/4/5
f 238/4/5 236/4/5 237/4/5
f 243/3/5 240/3/5 239/3/5
f 244/3/5 240/3/5 243/3/5
f 245/3/5 242/3/5 241/3/5
f 246/3/5 242/3/5 245/3/5
f 247/4/6 248/4/6 251/4/6
f 251/4/6 248/4/6 252/4/6
f 249/4/6 250/4/6 253/4/6
f 253/4/6 250/4/6 254/4/6
f 255/1/6 256/1/6 257/1/6
f 257/1/6 256/1/6 258/1/6
f 259/4/6 260/4/6 261/4/6
f 261/4/6 260/4/6 262/4/6
f 263/1/6 264/1/6 265/1/6
f 265/1/6 264/1/6 266/1/6
f 265/3/6 266/3/6 267/3/6
f 267/3/6 266/3/6 268/3/6
f 268/3/6 266/3/6 269/3/6
f 269/3/6 266/3/6 270/3/6
f 268/3/6 269/3/6 272/3/6
f 272/3/6 269/3/6 273/3/6
f 271/3/6 272/3/6 275/3/6
f 273/3/6 274/3/6 275/3/6
f 272/3/6 273/3/6 275/3/6
f 275/3/6 274/3/6 276/3/6
f 277/1/6 278/1/6 279/1/6
f 279/1/6 278/1/6 280/1/6
f 281/3/6 282/3/6 285/3/6
f 285/3/6 282/3/6 286/3/6
f 283/3/6 284/3/6 287/3/6
f 287/3/6 284/3/6 288/3/6
f 289/3/6 290/3/6 293/3/6
f 293/3/6 290/3/6 294/3/6
f 291/3/6 292/3/6 295/3/6
f 295/3/6 292/3/6 296/3/6
