# MagicaVoxel @ Ephtracy

# material
mtllib camion.mtl
usemtl palette

# normals
vn -1 0 0
vn 1 0 0
vn 0 0 1
vn 0 0 -1
vn 0 -1 0
vn 0 1 0

# texcoords
vt 0.00195313 0.5
vt 0.0292969 0.5
vt 0.0332031 0.5
vt 0.0605469 0.5
vt 0.466797 0.5
vt 0.845703 0.5
vt 0.939453 0.5
vt 0.955078 0.5
vt 0.994141 0.5

# verts
v -56 5 28
v -56 5 -28
v -56 9 28
v -56 9 -28
v -55 5 -28
v -55 5 -29
v -55 9 28
v -55 9 -28
v -55 9 -29
v -55 68 28
v -55 68 -29
v -43 0 -28
v -43 0 -30
v -43 5 -28
v -43 5 -29
v -43 9 -29
v -43 13 -29
v -43 13 -30
v -38 0 29
v -38 0 27
v -38 5 28
v -38 5 27
v -38 8 28
v -38 13 29
v -38 13 28
v -34 5 29
v -34 5 28
v -34 8 29
v -34 8 28
v -29 3 29
v -29 3 28
v -29 8 29
v -29 8 28
v -25 5 -26
v -25 5 -27
v -25 13 -26
v -25 13 -27
v -5 0 29
v -5 0 27
v -5 5 28
v -5 5 27
v -5 9 28
v -5 13 29
v -5 13 28
v -3 0 -28
v -3 0 -30
v -3 5 -28
v -3 5 -29
v -3 9 -29
v -3 13 -29
v -3 13 -30
v 4 5 29
v 4 5 28
v 4 9 29
v 4 9 28
v 5 4 -29
v 5 4 -30
v 5 5 -29
v 5 5 -30
v 5 9 -29
v 5 9 -30
v 5 10 -29
v 5 10 -30
v 6 5 -29
v 6 5 -30
v 6 9 -29
v 6 9 -30
v 24 5 26
v 24 5 25
v 24 5 9
v 24 5 -9
v 24 5 -26
v 24 5 -27
v 24 6 9
v 24 6 -9
v 24 8 26
v 24 8 25
v 24 8 -26
v 24 8 -27
v 24 50 26
v 24 50 -27
v 25 50 18
v 25 50 -20
v 25 57 18
v 25 57 -20
v 33 0 27
v 33 0 25
v 33 0 -26
v 33 0 -28
v 33 5 26
v 33 5 25
v 33 5 -26
v 33 5 -27
v 33 8 26
v 33 8 -27
v 33 13 27
v 33 13 26
v 33 13 -27
v 33 13 -28
v 33 19 27
v 33 19 26
v 33 26 27
v 33 26 26
v 34 18 -27
v 34 18 -28
v 34 25 -27
v 34 25 -28
v 42 5 27
v 42 5 26
v 42 5 -27
v 42 5 -28
v 42 9 27
v 42 9 26
v 42 9 -27
v 42 10 -27
v 42 10 -28
v -37 5 -26
v -37 5 -27
v -37 13 -26
v -37 13 -27
v -35 3 29
v -35 3 28
v -35 8 29
v -35 8 28
v -31 0 -28
v -31 0 -30
v -31 5 -28
v -31 5 -29
v -31 9 -29
v -31 13 -29
v -31 13 -30
v -30 5 29
v -30 5 28
v -30 8 29
v -30 8 28
v -26 0 29
v -26 0 27
v -26 5 28
v -26 5 27
v -26 9 28
v -26 13 29
v -26 13 28
v -1 5 29
v -1 5 28
v -1 9 29
v -1 9 28
v 1 4 -29
v 1 4 -30
v 1 5 -29
v 1 9 -29
v 1 10 -29
v 1 10 -30
v 7 0 29
v 7 0 27
v 7 5 28
v 7 5 27
v 7 9 28
v 7 13 29
v 7 13 28
v 9 0 -28
v 9 0 -30
v 9 5 -28
v 9 5 -29
v 9 9 -29
v 9 13 -29
v 9 13 -30
v 20 5 28
v 20 5 27
v 20 5 9
v 20 5 -9
v 20 5 -28
v 20 5 -29
v 20 6 9
v 20 6 -9
v 20 9 28
v 20 9 27
v 20 9 -28
v 20 9 -29
v 20 68 28
v 20 68 -29
v 36 53 18
v 36 53 -20
v 36 57 18
v 36 57 -20
v 37 5 27
v 37 5 26
v 37 5 -27
v 37 5 -28
v 37 9 27
v 37 9 26
v 37 9 -27
v 37 9 -28
v 37 19 27
v 37 19 26
v 37 26 27
v 37 26 26
v 38 18 -27
v 38 18 -28
v 38 25 -27
v 38 25 -28
v 39 9 -27
v 39 9 -28
v 39 10 -27
v 39 10 -28
v 41 50 18
v 41 50 -20
v 41 53 18
v 41 53 -20
v 45 0 27
v 45 0 25
v 45 0 -26
v 45 0 -28
v 45 5 26
v 45 5 25
v 45 5 -26
v 45 5 -27
v 45 8 26
v 45 8 -27
v 45 13 27
v 45 13 26
v 45 13 -27
v 45 13 -28
v 55 9 22
v 55 9 16
v 55 9 -18
v 55 9 -24
v 55 15 22
v 55 15 16
v 55 15 -18
v 55 15 -24
v 56 5 26
v 56 5 25
v 56 5 -26
v 56 5 -27
v 56 8 26
v 56 8 25
v 56 8 -26
v 56 8 -27
v 56 9 22
v 56 9 16
v 56 9 -18
v 56 9 -24
v 56 15 22
v 56 15 16
v 56 15 -18
v 56 15 -24
v 56 23 26
v 56 23 -27
v 56 43 26
v 56 43 -27
v 56 50 26
v 56 50 -27
v -38 0 29
v -38 13 29
v -35 3 29
v -35 8 29
v -34 5 29
v -34 8 29
v -34 9 29
v -30 5 29
v -30 8 29
v -30 9 29
v -29 3 29
v -29 8 29
v -26 0 29
v -26 13 29
v -5 0 29
v -5 13 29
v -1 5 29
v -1 9 29
v 4 5 29
v 4 9 29
v 7 0 29
v 7 13 29
v -56 5 28
v -56 9 28
v -55 8 28
v -55 9 28
v -55 68 28
v -38 5 28
v -38 8 28
v -38 13 28
v -35 3 28
v -35 8 28
v -34 5 28
v -34 8 28
v -30 5 28
v -30 8 28
v -29 3 28
v -29 8 28
v -26 5 28
v -26 9 28
v -26 13 28
v -5 5 28
v -5 9 28
v -5 13 28
v -1 5 28
v -1 9 28
v 4 5 28
v 4 9 28
v 7 5 28
v 7 9 28
v 7 13 28
v 20 5 28
v 20 9 28
v 20 68 28
v 33 0 27
v 33 13 27
v 33 19 27
v 33 26 27
v 37 5 27
v 37 9 27
v 37 19 27
v 37 26 27
v 42 5 27
v 42 9 27
v 45 0 27
v 45 13 27
v 24 5 26
v 24 8 26
v 24 50 26
v 33 5 26
v 33 8 26
v 33 13 26
v 33 19 26
v 33 26 26
v 37 5 26
v 37 9 26
v 37 19 26
v 37 26 26
v 42 5 26
v 42 9 26
v 42 23 26
v 42 43 26
v 45 5 26
v 45 8 26
v 45 13 26
v 56 5 26
v 56 8 26
v 56 23 26
v 56 43 26
v 56 50 26
v 25 50 18
v 25 57 18
v 36 53 18
v 36 57 18
v 41 50 18
v 41 53 18
v 55 9 16
v 55 15 16
v 56 9 16
v 56 15 16
v 20 5 9
v 20 6 9
v 24 5 9
v 24 6 9
v 55 9 -24
v 55 15 -24
v 56 9 -24
v 56 15 -24
v 33 0 -26
v 33 5 -26
v 45 0 -26
v 45 5 -26
v -37 5 -27
v -37 13 -27
v -25 5 -27
v -25 13 -27
v -43 0 -28
v -43 5 -28
v -31 0 -28
v -31 5 -28
v -3 0 -28
v -3 5 -28
v 9 0 -28
v 9 5 -28
v -38 0 27
v -38 5 27
v -26 0 27
v -26 5 27
v -5 0 27
v -5 5 27
v 7 0 27
v 7 5 27
v 33 0 25
v 33 5 25
v 45 0 25
v 45 5 25
v 55 9 22
v 55 15 22
v 56 9 22
v 56 15 22
v 20 5 -9
v 20 6 -9
v 24 5 -9
v 24 6 -9
v 55 9 -18
v 55 15 -18
v 56 9 -18
v 56 15 -18
v 25 50 -20
v 25 57 -20
v 36 53 -20
v 36 57 -20
v 41 50 -20
v 41 53 -20
v -37 5 -26
v -37 13 -26
v -25 5 -26
v -25 13 -26
v 24 5 -27
v 24 8 -27
v 24 50 -27
v 33 5 -27
v 33 8 -27
v 33 13 -27
v 34 18 -27
v 34 25 -27
v 37 5 -27
v 37 9 -27
v 38 18 -27
v 38 25 -27
v 39 9 -27
v 39 10 -27
v 42 5 -27
v 42 9 -27
v 42 10 -27
v 42 23 -27
v 42 43 -27
v 45 5 -27
v 45 8 -27
v 45 13 -27
v 56 5 -27
v 56 8 -27
v 56 23 -27
v 56 43 -27
v 56 50 -27
v -56 5 -28
v -56 9 -28
v -55 5 -28
v -55 9 -28
v 33 0 -28
v 33 13 -28
v 34 18 -28
v 34 25 -28
v 37 5 -28
v 37 9 -28
v 38 18 -28
v 38 25 -28
v 39 9 -28
v 39 10 -28
v 42 5 -28
v 42 10 -28
v 45 0 -28
v 45 13 -28
v -55 5 -29
v -55 9 -29
v -55 68 -29
v -43 5 -29
v -43 9 -29
v -43 13 -29
v -31 5 -29
v -31 9 -29
v -31 13 -29
v -3 5 -29
v -3 9 -29
v -3 13 -29
v 1 4 -29
v 1 5 -29
v 1 9 -29
v 1 10 -29
v 5 4 -29
v 5 5 -29
v 5 9 -29
v 5 10 -29
v 6 5 -29
v 6 9 -29
v 9 5 -29
v 9 9 -29
v 9 13 -29
v 20 5 -29
v 20 9 -29
v 20 68 -29
v -43 0 -30
v -43 13 -30
v -39 5 -30
v -39 9 -30
v -35 5 -30
v -35 9 -30
v -31 0 -30
v -31 13 -30
v -3 0 -30
v -3 13 -30
v 1 4 -30
v 1 10 -30
v 5 4 -30
v 5 5 -30
v 5 9 -30
v 5 10 -30
v 6 5 -30
v 6 9 -30
v 9 0 -30
v 9 13 -30
v -38 0 29
v -26 0 29
v -5 0 29
v 7 0 29
v -38 0 27
v -26 0 27
v -5 0 27
v 7 0 27
v 33 0 27
v 45 0 27
v 33 0 25
v 45 0 25
v 33 0 -26
v 45 0 -26
v -43 0 -28
v -31 0 -28
v -3 0 -28
v 9 0 -28
v 33 0 -28
v 45 0 -28
v -43 0 -30
v -31 0 -30
v -3 0 -30
v 9 0 -30
v -34 5 29
v -30 5 29
v -56 5 28
v -38 5 28
v -34 5 28
v -30 5 28
v -26 5 28
v -5 5 28
v 7 5 28
v 20 5 28
v -55 5 27
v -38 5 27
v -26 5 27
v -5 5 27
v 7 5 27
v 20 5 27
v 24 5 26
v 33 5 26
v 45 5 26
v 56 5 26
v 24 5 25
v 33 5 25
v 45 5 25
v 56 5 25
v 20 5 9
v 24 5 9
v 20 5 -9
v 24 5 -9
v -37 5 -26
v -25 5 -26
v 24 5 -26
v 33 5 -26
v 45 5 -26
v 56 5 -26
v -37 5 -27
v -25 5 -27
v 24 5 -27
v 33 5 -27
v 45 5 -27
v 56 5 -27
v -56 5 -28
v -55 5 -28
v -43 5 -28
v -31 5 -28
v -3 5 -28
v 9 5 -28
v 20 5 -28
v -55 5 -29
v -43 5 -29
v -31 5 -29
v -3 5 -29
v 9 5 -29
v 20 5 -29
v -35 8 29
v -34 8 29
v -30 8 29
v -29 8 29
v -35 8 28
v -34 8 28
v -30 8 28
v -29 8 28
v -1 9 29
v 4 9 29
v -1 9 28
v 4 9 28
v 37 9 27
v 42 9 27
v 37 9 26
v 42 9 26
v 37 9 -27
v 39 9 -27
v 37 9 -28
v 39 9 -28
v 5 9 -29
v 6 9 -29
v 5 9 -30
v 6 9 -30
v 39 10 -27
v 42 10 -27
v 39 10 -28
v 42 10 -28
v 1 10 -29
v 5 10 -29
v 1 10 -30
v 5 10 -30
v -37 13 -26
v -25 13 -26
v -37 13 -27
v -25 13 -27
v 55 15 22
v 56 15 22
v 55 15 16
v 56 15 16
v 55 15 -18
v 56 15 -18
v 55 15 -24
v 56 15 -24
v 34 18 -27
v 38 18 -27
v 34 18 -28
v 38 18 -28
v 33 19 27
v 37 19 27
v 33 19 26
v 37 19 26
v -35 3 29
v -29 3 29
v -35 3 28
v -29 3 28
v 1 4 -29
v 5 4 -29
v 1 4 -30
v 5 4 -30
v -1 5 29
v 4 5 29
v -1 5 28
v 4 5 28
v 37 5 27
v 42 5 27
v 37 5 26
v 42 5 26
v 37 5 -27
v 42 5 -27
v 37 5 -28
v 42 5 -28
v 5 5 -29
v 6 5 -29
v 5 5 -30
v 6 5 -30
v 20 6 9
v 24 6 9
v 20 6 -9
v 24 6 -9
v -56 9 28
v -55 9 28
v 55 9 22
v 56 9 22
v 55 9 16
v 56 9 16
v 55 9 -18
v 56 9 -18
v 55 9 -24
v 56 9 -24
v -56 9 -28
v -55 9 -28
v -38 13 29
v -26 13 29
v -5 13 29
v 7 13 29
v -38 13 28
v -26 13 28
v -5 13 28
v 7 13 28
v 33 13 27
v 45 13 27
v 33 13 26
v 45 13 26
v 33 13 -27
v 45 13 -27
v 33 13 -28
v 45 13 -28
v -43 13 -29
v -31 13 -29
v -3 13 -29
v 9 13 -29
v -43 13 -30
v -31 13 -30
v -3 13 -30
v 9 13 -30
v 34 25 -27
v 38 25 -27
v 34 25 -28
v 38 25 -28
v 33 26 27
v 37 26 27
v 33 26 26
v 37 26 26
v 24 50 26
v 56 50 26
v 25 50 18
v 41 50 18
v 25 50 -20
v 41 50 -20
v 24 50 -27
v 56 50 -27
v 36 53 18
v 41 53 18
v 36 53 -20
v 41 53 -20
v 25 57 18
v 36 57 18
v 25 57 -20
v 36 57 -20
v -55 68 28
v 20 68 28
v -55 68 -29
v 20 68 -29

# faces
f 3/3/1 2/3/1 1/3/1
f 4/3/1 2/3/1 3/3/1
f 8/3/1 6/3/1 5/3/1
f 9/3/1 6/3/1 8/3/1
f 10/5/1 8/5/1 7/5/1
f 10/5/1 9/5/1 8/5/1
f 11/5/1 9/5/1 10/5/1
f 14/4/1 13/4/1 12/4/1
f 15/4/1 13/4/1 14/4/1
f 16/4/1 13/4/1 15/4/1
f 17/4/1 13/4/1 16/4/1
f 18/4/1 13/4/1 17/4/1
f 21/4/1 20/4/1 19/4/1
f 22/4/1 20/4/1 21/4/1
f 23/4/1 21/4/1 19/4/1
f 24/4/1 23/4/1 19/4/1
f 25/4/1 23/4/1 24/4/1
f 28/5/1 27/5/1 26/5/1
f 29/5/1 27/5/1 28/5/1
f 32/4/1 31/4/1 30/4/1
f 33/4/1 31/4/1 32/4/1
f 36/5/1 35/5/1 34/5/1
f 37/5/1 35/5/1 36/5/1
f 40/4/1 39/4/1 38/4/1
f 41/4/1 39/4/1 40/4/1
f 42/4/1 40/4/1 38/4/1
f 43/4/1 42/4/1 38/4/1
f 44/4/1 42/4/1 43/4/1
f 47/4/1 46/4/1 45/4/1
f 48/4/1 46/4/1 47/4/1
f 49/4/1 46/4/1 48/4/1
f 50/4/1 46/4/1 49/4/1
f 51/4/1 46/4/1 50/4/1
f 54/4/1 53/4/1 52/4/1
f 55/4/1 53/4/1 54/4/1
f 58/4/1 57/4/1 56/4/1
f 59/4/1 57/4/1 58/4/1
f 62/4/1 61/4/1 60/4/1
f 63/4/1 61/4/1 62/4/1
f 66/4/1 65/4/1 64/4/1
f 67/4/1 65/4/1 66/4/1
f 74/7/1 70/7/1 69/7/1
f 75/7/1 72/7/1 71/7/1
f 76/3/1 69/3/1 68/3/1
f 77/7/1 75/7/1 74/7/1
f 77/3/1 69/3/1 76/3/1
f 77/7/1 74/7/1 69/7/1
f 78/3/1 73/3/1 72/3/1
f 78/7/1 75/7/1 77/7/1
f 78/7/1 72/7/1 75/7/1
f 79/3/1 73/3/1 78/3/1
f 80/7/1 77/7/1 76/7/1
f 80/7/1 78/7/1 77/7/1
f 80/7/1 79/7/1 78/7/1
f 81/7/1 79/7/1 80/7/1
f 84/1/1 83/1/1 82/1/1
f 85/1/1 83/1/1 84/1/1
f 90/4/1 87/4/1 86/4/1
f 91/4/1 87/4/1 90/4/1
f 92/4/1 89/4/1 88/4/1
f 93/4/1 89/4/1 92/4/1
f 94/4/1 90/4/1 86/4/1
f 95/4/1 89/4/1 93/4/1
f 96/4/1 94/4/1 86/4/1
f 97/4/1 94/4/1 96/4/1
f 98/4/1 89/4/1 95/4/1
f 99/4/1 89/4/1 98/4/1
f 102/8/1 101/8/1 100/8/1
f 103/8/1 101/8/1 102/8/1
f 106/8/1 105/8/1 104/8/1
f 107/8/1 105/8/1 106/8/1
f 112/4/1 109/4/1 108/4/1
f 113/4/1 109/4/1 112/4/1
f 114/4/1 111/4/1 110/4/1
f 115/4/1 111/4/1 114/4/1
f 116/4/1 111/4/1 115/4/1
f 117/5/2 118/5/2 119/5/2
f 119/5/2 118/5/2 120/5/2
f 121/4/2 122/4/2 123/4/2
f 123/4/2 122/4/2 124/4/2
f 125/4/2 126/4/2 127/4/2
f 127/4/2 126/4/2 128/4/2
f 128/4/2 126/4/2 129/4/2
f 129/4/2 126/4/2 130/4/2
f 130/4/2 126/4/2 131/4/2
f 132/5/2 133/5/2 134/5/2
f 134/5/2 133/5/2 135/5/2
f 136/4/2 137/4/2 138/4/2
f 138/4/2 137/4/2 139/4/2
f 136/4/2 138/4/2 140/4/2
f 136/4/2 140/4/2 141/4/2
f 141/4/2 140/4/2 142/4/2
f 143/4/2 144/4/2 145/4/2
f 145/4/2 144/4/2 146/4/2
f 147/4/2 148/4/2 149/4/2
f 149/4/2 148/4/2 150/4/2
f 150/4/2 148/4/2 151/4/2
f 151/4/2 148/4/2 152/4/2
f 153/4/2 154/4/2 155/4/2
f 155/4/2 154/4/2 156/4/2
f 153/4/2 155/4/2 157/4/2
f 153/4/2 157/4/2 158/4/2
f 158/4/2 157/4/2 159/4/2
f 160/4/2 161/4/2 162/4/2
f 162/4/2 161/4/2 163/4/2
f 163/4/2 161/4/2 164/4/2
f 164/4/2 161/4/2 165/4/2
f 165/4/2 161/4/2 166/4/2
f 168/5/2 169/5/2 173/5/2
f 170/5/2 171/5/2 174/5/2
f 167/3/2 168/3/2 175/3/2
f 173/5/2 174/5/2 176/5/2
f 175/3/2 168/3/2 176/3/2
f 168/5/2 173/5/2 176/5/2
f 171/3/2 172/3/2 177/3/2
f 176/5/2 174/5/2 177/5/2
f 174/5/2 171/5/2 177/5/2
f 177/3/2 172/3/2 178/3/2
f 175/5/2 176/5/2 179/5/2
f 176/5/2 177/5/2 179/5/2
f 177/5/2 178/5/2 179/5/2
f 179/5/2 178/5/2 180/5/2
f 181/1/2 182/1/2 183/1/2
f 183/1/2 182/1/2 184/1/2
f 185/4/2 186/4/2 189/4/2
f 189/4/2 186/4/2 190/4/2
f 187/4/2 188/4/2 191/4/2
f 191/4/2 188/4/2 192/4/2
f 193/8/2 194/8/2 195/8/2
f 195/8/2 194/8/2 196/8/2
f 197/8/2 198/8/2 199/8/2
f 199/8/2 198/8/2 200/8/2
f 201/4/2 202/4/2 203/4/2
f 203/4/2 202/4/2 204/4/2
f 205/1/2 206/1/2 207/1/2
f 207/1/2 206/1/2 208/1/2
f 209/4/2 210/4/2 213/4/2
f 213/4/2 210/4/2 214/4/2
f 211/4/2 212/4/2 215/4/2
f 215/4/2 212/4/2 216/4/2
f 209/4/2 213/4/2 217/4/2
f 216/4/2 212/4/2 218/4/2
f 209/4/2 217/4/2 219/4/2
f 219/4/2 217/4/2 220/4/2
f 218/4/2 212/4/2 221/4/2
f 221/4/2 212/4/2 222/4/2
f 223/6/2 224/6/2 227/6/2
f 227/6/2 224/6/2 228/6/2
f 225/6/2 226/6/2 229/6/2
f 229/6/2 226/6/2 230/6/2
f 231/3/2 232/3/2 235/3/2
f 232/7/2 233/7/2 236/7/2
f 235/3/2 232/3/2 236/3/2
f 233/3/2 234/3/2 237/3/2
f 236/7/2 233/7/2 237/7/2
f 237/3/2 234/3/2 238/3/2
f 235/7/2 236/7/2 239/7/2
f 236/7/2 237/7/2 239/7/2
f 237/7/2 238/7/2 239/7/2
f 239/7/2 238/7/2 240/7/2
f 240/7/2 238/7/2 241/7/2
f 241/7/2 238/7/2 242/7/2
f 235/7/2 239/7/2 243/7/2
f 240/7/2 241/7/2 244/7/2
f 244/7/2 241/7/2 245/7/2
f 242/7/2 238/7/2 246/7/2
f 244/7/2 245/7/2 247/7/2
f 245/7/2 246/7/2 247/7/2
f 235/7/2 243/7/2 247/7/2
f 243/7/2 244/7/2 247/7/2
f 246/7/2 238/7/2 248/7/2
f 247/7/2 246/7/2 248/7/2
f 247/9/2 248/9/2 249/9/2
f 249/9/2 248/9/2 250/9/2
f 249/7/2 250/7/2 251/7/2
f 251/7/2 250/7/2 252/7/2
f 255/4/3 254/4/3 253/4/3
f 256/4/3 254/4/3 255/4/3
f 258/4/3 254/4/3 256/4/3
f 259/4/3 254/4/3 258/4/3
f 260/5/3 258/5/3 257/5/3
f 260/5/3 259/5/3 258/5/3
f 261/5/3 259/5/3 260/5/3
f 262/4/3 254/4/3 259/4/3
f 262/5/3 259/5/3 261/5/3
f 263/4/3 255/4/3 253/4/3
f 264/4/3 262/4/3 261/4/3
f 265/4/3 263/4/3 253/4/3
f 265/4/3 264/4/3 263/4/3
f 266/4/3 254/4/3 262/4/3
f 266/4/3 264/4/3 265/4/3
f 266/4/3 262/4/3 264/4/3
f 269/4/3 268/4/3 267/4/3
f 270/4/3 268/4/3 269/4/3
f 271/4/3 269/4/3 267/4/3
f 272/4/3 268/4/3 270/4/3
f 273/4/3 271/4/3 267/4/3
f 273/4/3 272/4/3 271/4/3
f 274/4/3 268/4/3 272/4/3
f 274/4/3 272/4/3 273/4/3
f 277/3/3 276/3/3 275/3/3
f 278/3/3 276/3/3 277/3/3
f 280/3/3 277/3/3 275/3/3
f 281/5/3 279/5/3 278/5/3
f 281/3/3 277/3/3 280/3/3
f 281/5/3 278/5/3 277/5/3
f 282/5/3 279/5/3 281/5/3
f 285/4/3 284/4/3 283/4/3
f 286/4/3 284/4/3 285/4/3
f 287/4/3 285/4/3 283/4/3
f 289/4/3 287/4/3 283/4/3
f 289/4/3 288/4/3 287/4/3
f 290/4/3 288/4/3 289/4/3
f 293/5/3 279/5/3 282/5/3
f 294/3/3 292/3/3 291/3/3
f 295/5/3 293/5/3 292/5/3
f 295/3/3 292/3/3 294/3/3
f 296/5/3 279/5/3 293/5/3
f 296/5/3 293/5/3 295/5/3
f 299/5/3 298/5/3 297/5/3
f 300/5/3 298/5/3 299/5/3
f 303/5/3 279/5/3 296/5/3
f 304/3/3 302/3/3 301/3/3
f 305/5/3 303/5/3 302/5/3
f 305/3/3 302/3/3 304/3/3
f 306/5/3 279/5/3 303/5/3
f 306/5/3 303/5/3 305/5/3
f 311/4/3 308/4/3 307/4/3
f 312/4/3 308/4/3 311/4/3
f 313/8/3 310/8/3 309/8/3
f 314/8/3 310/8/3 313/8/3
f 315/4/3 311/4/3 307/4/3
f 316/4/3 308/4/3 312/4/3
f 317/4/3 315/4/3 307/4/3
f 317/4/3 316/4/3 315/4/3
f 318/4/3 308/4/3 316/4/3
f 318/4/3 316/4/3 317/4/3
f 322/3/3 320/3/3 319/3/3
f 323/7/3 321/7/3 320/7/3
f 323/3/3 320/3/3 322/3/3
f 324/7/3 321/7/3 323/7/3
f 325/7/3 321/7/3 324/7/3
f 326/7/3 321/7/3 325/7/3
f 329/7/3 325/7/3 324/7/3
f 330/7/3 321/7/3 326/7/3
f 331/5/3 328/5/3 327/5/3
f 332/5/3 328/5/3 331/5/3
f 333/7/3 330/7/3 329/7/3
f 334/7/3 321/7/3 330/7/3
f 334/7/3 330/7/3 333/7/3
f 337/7/3 329/7/3 324/7/3
f 337/7/3 333/7/3 329/7/3
f 338/3/3 336/3/3 335/3/3
f 339/7/3 337/7/3 336/7/3
f 339/3/3 336/3/3 338/3/3
f 340/9/3 334/9/3 333/9/3
f 340/7/3 337/7/3 339/7/3
f 340/7/3 333/7/3 337/7/3
f 341/7/3 321/7/3 334/7/3
f 341/9/3 334/9/3 340/9/3
f 342/7/3 321/7/3 341/7/3
f 345/1/3 344/1/3 343/1/3
f 346/1/3 344/1/3 345/1/3
f 347/1/3 345/1/3 343/1/3
f 348/1/3 345/1/3 347/1/3
f 351/7/3 350/7/3 349/7/3
f 352/7/3 350/7/3 351/7/3
f 355/2/3 354/2/3 353/2/3
f 356/2/3 354/2/3 355/2/3
f 359/7/3 358/7/3 357/7/3
f 360/7/3 358/7/3 359/7/3
f 363/4/3 362/4/3 361/4/3
f 364/4/3 362/4/3 363/4/3
f 367/5/3 366/5/3 365/5/3
f 368/5/3 366/5/3 367/5/3
f 371/4/3 370/4/3 369/4/3
f 372/4/3 370/4/3 371/4/3
f 375/4/3 374/4/3 373/4/3
f 376/4/3 374/4/3 375/4/3
f 377/4/4 378/4/4 379/4/4
f 379/4/4 378/4/4 380/4/4
f 381/4/4 382/4/4 383/4/4
f 383/4/4 382/4/4 384/4/4
f 385/4/4 386/4/4 387/4/4
f 387/4/4 386/4/4 388/4/4
f 389/7/4 390/7/4 391/7/4
f 391/7/4 390/7/4 392/7/4
f 393/2/4 394/2/4 395/2/4
f 395/2/4 394/2/4 396/2/4
f 397/7/4 398/7/4 399/7/4
f 399/7/4 398/7/4 400/7/4
f 401/1/4 402/1/4 403/1/4
f 403/1/4 402/1/4 404/1/4
f 401/1/4 403/1/4 405/1/4
f 405/1/4 403/1/4 406/1/4
f 407/5/4 408/5/4 409/5/4
f 409/5/4 408/5/4 410/5/4
f 411/3/4 412/3/4 414/3/4
f 412/7/4 413/7/4 415/7/4
f 414/3/4 412/3/4 415/3/4
f 415/7/4 413/7/4 416/7/4
f 416/7/4 413/7/4 417/7/4
f 417/7/4 413/7/4 418/7/4
f 416/7/4 417/7/4 421/7/4
f 418/7/4 413/7/4 422/7/4
f 419/5/4 420/5/4 423/5/4
f 419/5/4 423/5/4 425/5/4
f 423/4/4 424/4/4 426/4/4
f 425/5/4 423/5/4 426/5/4
f 426/4/4 424/4/4 427/4/4
f 421/7/4 422/7/4 428/7/4
f 422/7/4 413/7/4 429/7/4
f 428/7/4 422/7/4 429/7/4
f 416/7/4 421/7/4 432/7/4
f 421/7/4 428/7/4 432/7/4
f 430/3/4 431/3/4 433/3/4
f 431/7/4 432/7/4 434/7/4
f 433/3/4 431/3/4 434/3/4
f 428/9/4 429/9/4 435/9/4
f 434/7/4 432/7/4 435/7/4
f 432/7/4 428/7/4 435/7/4
f 429/7/4 413/7/4 436/7/4
f 435/9/4 429/9/4 436/9/4
f 436/7/4 413/7/4 437/7/4
f 438/3/4 439/3/4 440/3/4
f 440/3/4 439/3/4 441/3/4
f 442/4/4 443/4/4 446/4/4
f 446/4/4 443/4/4 447/4/4
f 444/8/4 445/8/4 448/8/4
f 448/8/4 445/8/4 449/8/4
f 447/4/4 443/4/4 450/4/4
f 450/4/4 443/4/4 451/4/4
f 442/4/4 446/4/4 452/4/4
f 451/4/4 443/4/4 453/4/4
f 442/4/4 452/4/4 454/4/4
f 452/4/4 453/4/4 454/4/4
f 453/4/4 443/4/4 455/4/4
f 454/4/4 453/4/4 455/4/4
f 456/3/4 457/3/4 459/3/4
f 457/5/4 458/5/4 460/5/4
f 459/3/4 457/3/4 460/3/4
f 460/5/4 458/5/4 461/5/4
f 461/5/4 458/5/4 464/5/4
f 462/3/4 463/3/4 465/3/4
f 463/5/4 464/5/4 466/5/4
f 465/3/4 463/3/4 466/3/4
f 464/5/4 458/5/4 467/5/4
f 466/5/4 464/5/4 467/5/4
f 468/4/4 469/4/4 472/4/4
f 469/5/4 470/5/4 473/5/4
f 472/4/4 469/4/4 473/4/4
f 470/4/4 471/4/4 474/4/4
f 473/5/4 470/5/4 474/5/4
f 474/4/4 471/4/4 475/4/4
f 473/5/4 474/5/4 476/5/4
f 476/5/4 474/5/4 477/5/4
f 467/5/4 458/5/4 480/5/4
f 478/3/4 479/3/4 481/3/4
f 479/5/4 480/5/4 482/5/4
f 481/3/4 479/3/4 482/3/4
f 480/5/4 458/5/4 483/5/4
f 482/5/4 480/5/4 483/5/4
f 484/4/4 485/4/4 486/4/4
f 486/4/4 485/4/4 487/4/4
f 484/4/4 486/4/4 488/4/4
f 486/5/4 487/5/4 488/5/4
f 487/4/4 485/4/4 489/4/4
f 488/5/4 487/5/4 489/5/4
f 484/4/4 488/4/4 490/4/4
f 488/4/4 489/4/4 490/4/4
f 489/4/4 485/4/4 491/4/4
f 490/4/4 489/4/4 491/4/4
f 492/4/4 493/4/4 494/4/4
f 494/4/4 493/4/4 495/4/4
f 492/4/4 494/4/4 496/4/4
f 495/4/4 493/4/4 499/4/4
f 496/4/4 497/4/4 500/4/4
f 498/4/4 499/4/4 501/4/4
f 496/4/4 500/4/4 502/4/4
f 500/4/4 501/4/4 502/4/4
f 492/4/4 496/4/4 502/4/4
f 501/4/4 499/4/4 503/4/4
f 502/4/4 501/4/4 503/4/4
f 499/4/4 493/4/4 503/4/4
f 508/4/5 505/4/5 504/4/5
f 509/4/5 505/4/5 508/4/5
f 510/4/5 507/4/5 506/4/5
f 511/4/5 507/4/5 510/4/5
f 514/4/5 513/4/5 512/4/5
f 515/4/5 513/4/5 514/4/5
f 522/4/5 517/4/5 516/4/5
f 523/4/5 517/4/5 522/4/5
f 524/4/5 519/4/5 518/4/5
f 525/4/5 519/4/5 524/4/5
f 526/4/5 521/4/5 520/4/5
f 527/4/5 521/4/5 526/4/5
f 532/5/5 529/5/5 528/5/5
f 533/5/5 529/5/5 532/5/5
f 538/3/5 531/3/5 530/3/5
f 539/3/5 531/3/5 538/3/5
f 540/3/5 535/3/5 534/3/5
f 541/3/5 535/3/5 540/3/5
f 542/3/5 537/3/5 536/3/5
f 543/3/5 537/3/5 542/3/5
f 548/3/5 545/3/5 544/3/5
f 549/3/5 545/3/5 548/3/5
f 550/3/5 547/3/5 546/3/5
f 551/3/5 547/3/5 550/3/5
f 552/5/5 541/5/5 540/5/5
f 552/5/5 539/5/5 538/5/5
f 552/5/5 540/5/5 539/5/5
f 552/5/5 542/5/5 541/5/5
f 552/5/5 543/5/5 542/5/5
f 553/7/5 551/7/5 550/7/5
f 553/7/5 550/7/5 549/7/5
f 553/7/5 549/7/5 548/7/5
f 554/5/5 552/5/5 538/5/5
f 554/2/5 553/2/5 552/2/5
f 555/7/5 551/7/5 553/7/5
f 555/2/5 553/2/5 554/2/5
f 556/5/5 554/5/5 538/5/5
f 557/5/5 554/5/5 556/5/5
f 558/7/5 551/7/5 555/7/5
f 559/7/5 551/7/5 558/7/5
f 560/7/5 551/7/5 559/7/5
f 561/7/5 551/7/5 560/7/5
f 562/5/5 556/5/5 538/5/5
f 563/5/5 554/5/5 557/5/5
f 564/3/5 559/3/5 558/3/5
f 565/3/5 559/3/5 564/3/5
f 566/3/5 561/3/5 560/3/5
f 567/3/5 561/3/5 566/3/5
f 568/3/5 538/3/5 530/3/5
f 569/5/5 562/5/5 538/5/5
f 569/3/5 538/3/5 568/3/5
f 569/5/5 563/5/5 562/5/5
f 570/5/5 563/5/5 569/5/5
f 571/5/5 563/5/5 570/5/5
f 572/5/5 554/5/5 563/5/5
f 572/5/5 563/5/5 571/5/5
f 573/5/5 554/5/5 572/5/5
f 574/5/5 554/5/5 573/5/5
f 575/3/5 570/3/5 569/3/5
f 576/3/5 570/3/5 575/3/5
f 577/3/5 572/3/5 571/3/5
f 578/3/5 572/3/5 577/3/5
f 579/3/5 574/3/5 573/3/5
f 580/3/5 574/3/5 579/3/5
f 585/4/5 582/4/5 581/4/5
f 586/4/5 582/4/5 585/4/5
f 587/4/5 584/4/5 583/4/5
f 588/4/5 584/4/5 587/4/5
f 591/4/5 590/4/5 589/4/5
f 592/4/5 590/4/5 591/4/5
f 595/4/5 594/4/5 593/4/5
f 596/4/5 594/4/5 595/4/5
f 599/4/5 598/4/5 597/4/5
f 600/4/5 598/4/5 599/4/5
f 603/4/5 602/4/5 601/4/5
f 604/4/5 602/4/5 603/4/5
f 607/4/5 606/4/5 605/4/5
f 608/4/5 606/4/5 607/4/5
f 611/4/5 610/4/5 609/4/5
f 612/4/5 610/4/5 611/4/5
f 615/5/5 614/5/5 613/5/5
f 616/5/5 614/5/5 615/5/5
f 619/7/5 618/7/5 617/7/5
f 620/7/5 618/7/5 619/7/5
f 623/7/5 622/7/5 621/7/5
f 624/7/5 622/7/5 623/7/5
f 627/8/5 626/8/5 625/8/5
f 628/8/5 626/8/5 627/8/5
f 631/8/5 630/8/5 629/8/5
f 632/8/5 630/8/5 631/8/5
f 633/4/6 634/4/6 635/4/6
f 635/4/6 634/4/6 636/4/6
f 637/4/6 638/4/6 639/4/6
f 639/4/6 638/4/6 640/4/6
f 641/4/6 642/4/6 643/4/6
f 643/4/6 642/4/6 644/4/6
f 645/4/6 646/4/6 647/4/6
f 647/4/6 646/4/6 648/4/6
f 649/4/6 650/4/6 651/4/6
f 651/4/6 650/4/6 652/4/6
f 653/4/6 654/4/6 655/4/6
f 655/4/6 654/4/6 656/4/6
f 657/2/6 658/2/6 659/2/6
f 659/2/6 658/2/6 660/2/6
f 663/7/6 664/7/6 665/7/6
f 665/7/6 664/7/6 666/7/6
f 667/7/6 668/7/6 669/7/6
f 669/7/6 668/7/6 670/7/6
f 661/3/6 662/3/6 671/3/6
f 671/3/6 662/3/6 672/3/6
f 673/4/6 674/4/6 677/4/6
f 677/4/6 674/4/6 678/4/6
f 675/4/6 676/4/6 679/4/6
f 679/4/6 676/4/6 680/4/6
f 681/4/6 682/4/6 683/4/6
f 683/4/6 682/4/6 684/4/6
f 685/4/6 686/4/6 687/4/6
f 687/4/6 686/4/6 688/4/6
f 689/4/6 690/4/6 693/4/6
f 693/4/6 690/4/6 694/4/6
f 691/4/6 692/4/6 695/4/6
f 695/4/6 692/4/6 696/4/6
f 697/8/6 698/8/6 699/8/6
f 699/8/6 698/8/6 700/8/6
f 701/8/6 702/8/6 703/8/6
f 703/8/6 702/8/6 704/8/6
f 705/7/6 706/7/6 707/7/6
f 707/7/6 706/7/6 708/7/6
f 705/7/6 707/7/6 709/7/6
f 708/7/6 706/7/6 710/7/6
f 705/7/6 709/7/6 711/7/6
f 709/7/6 710/7/6 711/7/6
f 710/7/6 706/7/6 712/7/6
f 711/7/6 710/7/6 712/7/6
f 713/1/6 714/1/6 715/1/6
f 715/1/6 714/1/6 716/1/6
f 717/1/6 718/1/6 719/1/6
f 719/1/6 718/1/6 720/1/6
f 721/5/6 722/5/6 723/5/6
f 723/5/6 722/5/6 724/5/6
