# MagicaVoxel @ Ephtracy

# material
mtllib camion.mtl
usemtl palette

# normals
vn -1 0 0
vn 1 0 0
vn 0 0 1
vn 0 0 -1
vn 0 -1 0
vn 0 1 0

# texcoords
vt 0.00195313 0.5
vt 0.0292969 0.5
vt 0.0605469 0.5
vt 0.466797 0.5
vt 0.861328 0.5
vt 0.939453 0.5
vt 0.951172 0.5

# verts
v -40 6 16
v -40 6 -15
v -40 7 16
v -40 7 -15
v -40 8 14
v -40 8 10
v -40 8 -10
v -40 8 -14
v -40 11 14
v -40 11 10
v -40 11 -10
v -40 11 -14
v -40 16 16
v -40 16 -15
v -40 26 16
v -40 26 -15
v -40 33 16
v -40 33 -15
v -36 0 17
v -36 0 12
v -36 0 -11
v -36 0 -16
v -36 6 16
v -36 6 15
v -36 6 12
v -36 6 -11
v -36 6 -14
v -36 6 -15
v -36 7 16
v -36 7 -15
v -36 10 17
v -36 10 16
v -36 10 -15
v -36 10 -16
v -32 33 10
v -32 33 -10
v -32 35 10
v -32 35 -10
v -28 11 17
v -28 11 16
v -28 11 -15
v -28 11 -16
v -28 15 17
v -28 15 16
v -28 15 -15
v -28 15 -16
v -27 35 10
v -27 35 -10
v -27 38 10
v -27 38 -10
v -16 6 18
v -16 6 17
v -16 6 10
v -16 6 -10
v -16 6 -17
v -16 6 -18
v -16 7 18
v -16 7 17
v -16 7 10
v -16 7 -10
v -16 7 -17
v -16 7 -18
v -16 52 18
v -16 52 -18
v -11 0 19
v -11 0 14
v -11 0 -14
v -11 0 -19
v -11 6 18
v -11 6 17
v -11 6 14
v -11 6 -14
v -11 6 -17
v -11 6 -18
v -11 7 18
v -11 7 -18
v -11 10 19
v -11 10 18
v -11 10 -18
v -11 10 -19
v 25 0 19
v 25 0 14
v 25 0 -14
v 25 0 -19
v 25 6 18
v 25 6 17
v 25 6 14
v 25 6 -14
v 25 6 -17
v 25 6 -18
v 25 7 18
v 25 7 -18
v 25 10 19
v 25 10 18
v 25 10 -18
v 25 10 -19
v -26 0 17
v -26 0 12
v -26 0 -11
v -26 0 -16
v -26 6 16
v -26 6 15
v -26 6 12
v -26 6 -11
v -26 6 -14
v -26 6 -15
v -26 7 16
v -26 7 -15
v -26 10 17
v -26 10 16
v -26 10 -15
v -26 10 -16
v -26 11 17
v -26 11 16
v -26 11 -15
v -26 11 -16
v -26 15 17
v -26 15 16
v -26 15 -15
v -26 15 -16
v -21 33 10
v -21 33 -10
v -21 38 10
v -21 38 -10
v -19 6 16
v -19 6 15
v -19 6 10
v -19 6 -10
v -19 6 -14
v -19 6 -15
v -19 7 16
v -19 7 15
v -19 7 10
v -19 7 -10
v -19 7 -14
v -19 7 -15
v -19 33 16
v -19 33 -15
v -1 0 19
v -1 0 14
v -1 0 -14
v -1 0 -19
v -1 6 18
v -1 6 17
v -1 6 14
v -1 6 -14
v -1 6 -17
v -1 6 -18
v -1 7 18
v -1 7 -18
v -1 10 19
v -1 10 18
v -1 10 -18
v -1 10 -19
v 35 0 19
v 35 0 14
v 35 0 -14
v 35 0 -19
v 35 6 18
v 35 6 14
v 35 6 -14
v 35 6 -18
v 35 7 18
v 35 7 -18
v 35 10 19
v 35 10 18
v 35 10 -18
v 35 10 -19
v 39 8 18
v 39 8 -18
v 39 52 18
v 39 52 -18
v 40 6 18
v 40 6 -18
v 40 8 18
v 40 8 -18
v -11 0 19
v -11 10 19
v -8 4 19
v -8 7 19
v -4 4 19
v -4 7 19
v -1 0 19
v -1 10 19
v 25 0 19
v 25 10 19
v 28 4 19
v 28 7 19
v 32 4 19
v 32 7 19
v 35 0 19
v 35 10 19
v -16 6 18
v -16 7 18
v -16 52 18
v -11 6 18
v -11 7 18
v -11 10 18
v -1 6 18
v -1 7 18
v -1 10 18
v 25 6 18
v 25 7 18
v 25 10 18
v 35 6 18
v 35 7 18
v 35 10 18
v 39 7 18
v 39 8 18
v 39 52 18
v 40 6 18
v 40 8 18
v -36 0 17
v -36 10 17
v -33 4 17
v -33 7 17
v -29 4 17
v -29 7 17
v -28 11 17
v -28 15 17
v -26 0 17
v -26 10 17
v -26 11 17
v -26 15 17
v -40 6 16
v -40 7 16
v -40 16 16
v -40 26 16
v -40 33 16
v -36 6 16
v -36 7 16
v -36 10 16
v -28 11 16
v -28 15 16
v -26 6 16
v -26 7 16
v -26 10 16
v -26 11 16
v -26 15 16
v -26 16 16
v -26 26 16
v -19 6 16
v -19 7 16
v -19 33 16
v -32 33 10
v -32 35 10
v -27 35 10
v -27 38 10
v -21 33 10
v -21 38 10
v -19 6 10
v -19 7 10
v -16 6 10
v -16 7 10
v -36 0 -11
v -36 6 -11
v -26 0 -11
v -26 6 -11
v -11 0 -14
v -11 6 -14
v -1 0 -14
v -1 6 -14
v 25 0 -14
v 25 6 -14
v 32 6 -14
v 35 0 -14
v 35 6 -14
v -11 0 14
v -11 6 14
v -1 0 14
v -1 6 14
v 25 0 14
v 25 6 14
v 32 6 14
v 35 0 14
v 35 6 14
v -36 0 12
v -36 6 12
v -26 0 12
v -26 6 12
v -32 33 -10
v -32 35 -10
v -27 35 -10
v -27 38 -10
v -21 33 -10
v -21 38 -10
v -19 6 -10
v -19 7 -10
v -16 6 -10
v -16 7 -10
v -40 6 -15
v -40 7 -15
v -40 16 -15
v -40 26 -15
v -40 33 -15
v -36 6 -15
v -36 7 -15
v -36 10 -15
v -28 11 -15
v -28 15 -15
v -26 6 -15
v -26 7 -15
v -26 10 -15
v -26 11 -15
v -26 15 -15
v -26 16 -15
v -26 26 -15
v -19 6 -15
v -19 7 -15
v -19 33 -15
v -36 0 -16
v -36 10 -16
v -33 4 -16
v -33 7 -16
v -29 4 -16
v -29 7 -16
v -28 11 -16
v -28 15 -16
v -26 0 -16
v -26 10 -16
v -26 11 -16
v -26 15 -16
v -16 6 -18
v -16 7 -18
v -16 52 -18
v -11 6 -18
v -11 7 -18
v -11 10 -18
v -1 6 -18
v -1 7 -18
v -1 10 -18
v 25 6 -18
v 25 7 -18
v 25 10 -18
v 35 6 -18
v 35 7 -18
v 35 10 -18
v 39 7 -18
v 39 8 -18
v 39 52 -18
v 40 6 -18
v 40 8 -18
v -11 0 -19
v -11 10 -19
v -8 4 -19
v -8 7 -19
v -4 4 -19
v -4 7 -19
v -1 0 -19
v -1 10 -19
v 25 0 -19
v 25 10 -19
v 28 4 -19
v 28 7 -19
v 32 4 -19
v 32 7 -19
v 35 0 -19
v 35 10 -19
v -11 0 19
v -1 0 19
v 25 0 19
v 35 0 19
v -36 0 17
v -26 0 17
v -11 0 14
v -1 0 14
v 25 0 14
v 35 0 14
v -36 0 12
v -26 0 12
v -36 0 -11
v -26 0 -11
v -11 0 -14
v -1 0 -14
v 25 0 -14
v 35 0 -14
v -36 0 -16
v -26 0 -16
v -11 0 -19
v -1 0 -19
v 25 0 -19
v 35 0 -19
v -16 6 18
v -11 6 18
v -1 6 18
v 25 6 18
v 35 6 18
v 40 6 18
v -16 6 17
v -11 6 17
v -1 6 17
v 25 6 17
v -40 6 16
v -36 6 16
v -26 6 16
v -19 6 16
v -39 6 15
v -36 6 15
v -26 6 15
v -19 6 15
v -11 6 14
v -1 6 14
v 25 6 14
v 32 6 14
v 35 6 14
v -36 6 12
v -26 6 12
v -19 6 10
v -16 6 10
v -19 6 -10
v -16 6 -10
v -36 6 -11
v -26 6 -11
v -39 6 -14
v -36 6 -14
v -26 6 -14
v -19 6 -14
v -11 6 -14
v -1 6 -14
v 25 6 -14
v 32 6 -14
v 35 6 -14
v -40 6 -15
v -36 6 -15
v -26 6 -15
v -19 6 -15
v -16 6 -17
v -11 6 -17
v -1 6 -17
v 25 6 -17
v -16 6 -18
v -11 6 -18
v -1 6 -18
v 25 6 -18
v 35 6 -18
v 40 6 -18
v -28 11 17
v -26 11 17
v -28 11 16
v -26 11 16
v -28 11 -15
v -26 11 -15
v -28 11 -16
v -26 11 -16
v -19 7 10
v -16 7 10
v -19 7 -10
v -16 7 -10
v 39 8 18
v 40 8 18
v 39 8 -18
v 40 8 -18
v -11 10 19
v -1 10 19
v 25 10 19
v 35 10 19
v -11 10 18
v -1 10 18
v 25 10 18
v 35 10 18
v -36 10 17
v -26 10 17
v -36 10 16
v -26 10 16
v -36 10 -15
v -26 10 -15
v -36 10 -16
v -26 10 -16
v -11 10 -18
v -1 10 -18
v 25 10 -18
v 35 10 -18
v -11 10 -19
v -1 10 -19
v 25 10 -19
v 35 10 -19
v -28 15 17
v -26 15 17
v -28 15 16
v -26 15 16
v -28 15 -15
v -26 15 -15
v -28 15 -16
v -26 15 -16
v -40 33 16
v -19 33 16
v -32 33 10
v -21 33 10
v -32 33 -10
v -21 33 -10
v -40 33 -15
v -19 33 -15
v -32 35 10
v -27 35 10
v -32 35 -10
v -27 35 -10
v -27 38 10
v -21 38 10
v -27 38 -10
v -21 38 -10
v -16 52 18
v 39 52 18
v -16 52 -18
v 39 52 -18

# faces
f 3/2/1 2/2/1 1/2/1
f 4/2/1 2/2/1 3/2/1
f 5/6/1 4/6/1 3/6/1
f 6/6/1 4/6/1 5/6/1
f 7/6/1 4/6/1 6/6/1
f 8/6/1 4/6/1 7/6/1
f 9/6/1 5/6/1 3/6/1
f 9/5/1 6/5/1 5/5/1
f 10/6/1 7/6/1 6/6/1
f 10/5/1 6/5/1 9/5/1
f 11/5/1 8/5/1 7/5/1
f 11/6/1 7/6/1 10/6/1
f 12/6/1 4/6/1 8/6/1
f 12/5/1 8/5/1 11/5/1
f 13/6/1 11/6/1 10/6/1
f 13/6/1 10/6/1 9/6/1
f 13/6/1 12/6/1 11/6/1
f 13/6/1 9/6/1 3/6/1
f 14/6/1 4/6/1 12/6/1
f 14/6/1 12/6/1 13/6/1
f 15/3/1 14/3/1 13/3/1
f 16/3/1 14/3/1 15/3/1
f 17/6/1 16/6/1 15/6/1
f 18/6/1 16/6/1 17/6/1
f 23/3/1 20/3/1 19/3/1
f 24/3/1 20/3/1 23/3/1
f 25/3/1 20/3/1 24/3/1
f 26/3/1 22/3/1 21/3/1
f 27/3/1 22/3/1 26/3/1
f 28/3/1 22/3/1 27/3/1
f 29/3/1 23/3/1 19/3/1
f 30/3/1 22/3/1 28/3/1
f 31/3/1 29/3/1 19/3/1
f 32/3/1 29/3/1 31/3/1
f 33/3/1 22/3/1 30/3/1
f 34/3/1 22/3/1 33/3/1
f 37/1/1 36/1/1 35/1/1
f 38/1/1 36/1/1 37/1/1
f 43/7/1 40/7/1 39/7/1
f 44/7/1 40/7/1 43/7/1
f 45/7/1 42/7/1 41/7/1
f 46/7/1 42/7/1 45/7/1
f 49/1/1 48/1/1 47/1/1
f 50/1/1 48/1/1 49/1/1
f 57/2/1 52/2/1 51/2/1
f 58/1/1 53/1/1 52/1/1
f 58/2/1 52/2/1 57/2/1
f 59/1/1 53/1/1 58/1/1
f 60/1/1 55/1/1 54/1/1
f 61/2/1 56/2/1 55/2/1
f 61/1/1 55/1/1 60/1/1
f 62/2/1 56/2/1 61/2/1
f 63/1/1 60/1/1 59/1/1
f 63/1/1 59/1/1 58/1/1
f 63/1/1 62/1/1 61/1/1
f 63/1/1 61/1/1 60/1/1
f 63/1/1 58/1/1 57/1/1
f 64/1/1 62/1/1 63/1/1
f 69/3/1 66/3/1 65/3/1
f 70/3/1 66/3/1 69/3/1
f 71/3/1 66/3/1 70/3/1
f 72/3/1 68/3/1 67/3/1
f 73/3/1 68/3/1 72/3/1
f 74/3/1 68/3/1 73/3/1
f 75/3/1 69/3/1 65/3/1
f 76/3/1 68/3/1 74/3/1
f 77/3/1 75/3/1 65/3/1
f 78/3/1 75/3/1 77/3/1
f 79/3/1 68/3/1 76/3/1
f 80/3/1 68/3/1 79/3/1
f 85/3/1 82/3/1 81/3/1
f 86/3/1 82/3/1 85/3/1
f 87/3/1 82/3/1 86/3/1
f 88/3/1 84/3/1 83/3/1
f 89/3/1 84/3/1 88/3/1
f 90/3/1 84/3/1 89/3/1
f 91/3/1 85/3/1 81/3/1
f 92/3/1 84/3/1 90/3/1
f 93/3/1 91/3/1 81/3/1
f 94/3/1 91/3/1 93/3/1
f 95/3/1 84/3/1 92/3/1
f 96/3/1 84/3/1 95/3/1
f 97/3/2 98/3/2 101/3/2
f 101/3/2 98/3/2 102/3/2
f 102/3/2 98/3/2 103/3/2
f 99/3/2 100/3/2 104/3/2
f 104/3/2 100/3/2 105/3/2
f 105/3/2 100/3/2 106/3/2
f 97/3/2 101/3/2 107/3/2
f 106/3/2 100/3/2 108/3/2
f 97/3/2 107/3/2 109/3/2
f 109/3/2 107/3/2 110/3/2
f 108/3/2 100/3/2 111/3/2
f 111/3/2 100/3/2 112/3/2
f 113/7/2 114/7/2 117/7/2
f 117/7/2 114/7/2 118/7/2
f 115/7/2 116/7/2 119/7/2
f 119/7/2 116/7/2 120/7/2
f 121/1/2 122/1/2 123/1/2
f 123/1/2 122/1/2 124/1/2
f 125/2/2 126/2/2 131/2/2
f 126/6/2 127/6/2 132/6/2
f 131/2/2 126/2/2 132/2/2
f 132/6/2 127/6/2 133/6/2
f 128/6/2 129/6/2 134/6/2
f 129/2/2 130/2/2 135/2/2
f 134/6/2 129/6/2 135/6/2
f 135/2/2 130/2/2 136/2/2
f 133/6/2 134/6/2 137/6/2
f 132/6/2 133/6/2 137/6/2
f 135/6/2 136/6/2 137/6/2
f 134/6/2 135/6/2 137/6/2
f 131/6/2 132/6/2 137/6/2
f 137/6/2 136/6/2 138/6/2
f 139/3/2 140/3/2 143/3/2
f 143/3/2 140/3/2 144/3/2
f 144/3/2 140/3/2 145/3/2
f 141/3/2 142/3/2 146/3/2
f 146/3/2 142/3/2 147/3/2
f 147/3/2 142/3/2 148/3/2
f 139/3/2 143/3/2 149/3/2
f 148/3/2 142/3/2 150/3/2
f 139/3/2 149/3/2 151/3/2
f 151/3/2 149/3/2 152/3/2
f 150/3/2 142/3/2 153/3/2
f 153/3/2 142/3/2 154/3/2
f 155/3/2 156/3/2 159/3/2
f 159/3/2 156/3/2 160/3/2
f 157/3/2 158/3/2 161/3/2
f 161/3/2 158/3/2 162/3/2
f 155/3/2 159/3/2 163/3/2
f 162/3/2 158/3/2 164/3/2
f 155/3/2 163/3/2 165/3/2
f 165/3/2 163/3/2 166/3/2
f 164/3/2 158/3/2 167/3/2
f 167/3/2 158/3/2 168/3/2
f 169/1/2 170/1/2 171/1/2
f 171/1/2 170/1/2 172/1/2
f 173/2/2 174/2/2 175/2/2
f 175/2/2 174/2/2 176/2/2
f 179/3/3 178/3/3 177/3/3
f 180/3/3 178/3/3 179/3/3
f 181/3/3 179/3/3 177/3/3
f 181/4/3 180/4/3 179/4/3
f 182/3/3 178/3/3 180/3/3
f 182/4/3 180/4/3 181/4/3
f 183/3/3 181/3/3 177/3/3
f 183/3/3 182/3/3 181/3/3
f 184/3/3 178/3/3 182/3/3
f 184/3/3 182/3/3 183/3/3
f 187/3/3 186/3/3 185/3/3
f 188/3/3 186/3/3 187/3/3
f 189/3/3 187/3/3 185/3/3
f 189/4/3 188/4/3 187/4/3
f 190/3/3 186/3/3 188/3/3
f 190/4/3 188/4/3 189/4/3
f 191/3/3 189/3/3 185/3/3
f 191/3/3 190/3/3 189/3/3
f 192/3/3 186/3/3 190/3/3
f 192/3/3 190/3/3 191/3/3
f 196/2/3 194/2/3 193/2/3
f 197/1/3 195/1/3 194/1/3
f 197/2/3 194/2/3 196/2/3
f 198/1/3 195/1/3 197/1/3
f 201/1/3 195/1/3 198/1/3
f 202/2/3 200/2/3 199/2/3
f 203/1/3 201/1/3 200/1/3
f 203/2/3 200/2/3 202/2/3
f 204/1/3 195/1/3 201/1/3
f 204/1/3 201/1/3 203/1/3
f 207/1/3 195/1/3 204/1/3
f 208/2/3 206/2/3 205/2/3
f 208/1/3 207/1/3 206/1/3
f 209/1/3 207/1/3 208/1/3
f 210/1/3 195/1/3 207/1/3
f 210/1/3 207/1/3 209/1/3
f 211/2/3 209/2/3 208/2/3
f 211/2/3 208/2/3 205/2/3
f 212/2/3 209/2/3 211/2/3
f 215/3/3 214/3/3 213/3/3
f 216/3/3 214/3/3 215/3/3
f 217/3/3 215/3/3 213/3/3
f 217/4/3 216/4/3 215/4/3
f 218/3/3 214/3/3 216/3/3
f 218/4/3 216/4/3 217/4/3
f 221/3/3 217/3/3 213/3/3
f 221/3/3 218/3/3 217/3/3
f 222/3/3 214/3/3 218/3/3
f 222/3/3 218/3/3 221/3/3
f 223/7/3 220/7/3 219/7/3
f 224/7/3 220/7/3 223/7/3
f 230/2/3 226/2/3 225/2/3
f 231/6/3 227/6/3 226/6/3
f 231/2/3 226/2/3 230/2/3
f 232/6/3 227/6/3 231/6/3
f 233/6/3 227/6/3 232/6/3
f 234/6/3 227/6/3 233/6/3
f 237/6/3 233/6/3 232/6/3
f 238/6/3 233/6/3 237/6/3
f 239/6/3 227/6/3 234/6/3
f 240/3/3 228/3/3 227/3/3
f 240/6/3 227/6/3 239/6/3
f 241/6/3 229/6/3 228/6/3
f 241/3/3 228/3/3 240/3/3
f 242/2/3 236/2/3 235/2/3
f 243/6/3 240/6/3 239/6/3
f 243/2/3 236/2/3 242/2/3
f 243/6/3 239/6/3 238/6/3
f 243/6/3 241/6/3 240/6/3
f 243/6/3 238/6/3 237/6/3
f 243/6/3 237/6/3 236/6/3
f 244/6/3 229/6/3 241/6/3
f 244/6/3 241/6/3 243/6/3
f 247/1/3 246/1/3 245/1/3
f 249/1/3 247/1/3 245/1/3
f 249/1/3 248/1/3 247/1/3
f 250/1/3 248/1/3 249/1/3
f 253/2/3 252/2/3 251/2/3
f 254/2/3 252/2/3 253/2/3
f 257/3/3 256/3/3 255/3/3
f 258/3/3 256/3/3 257/3/3
f 261/3/3 260/3/3 259/3/3
f 262/3/3 260/3/3 261/3/3
f 265/3/3 264/3/3 263/3/3
f 266/3/3 265/3/3 263/3/3
f 267/3/3 265/3/3 266/3/3
f 268/3/4 269/3/4 270/3/4
f 270/3/4 269/3/4 271/3/4
f 272/3/4 273/3/4 274/3/4
f 272/3/4 274/3/4 275/3/4
f 275/3/4 274/3/4 276/3/4
f 277/3/4 278/3/4 279/3/4
f 279/3/4 278/3/4 280/3/4
f 281/1/4 282/1/4 283/1/4
f 281/1/4 283/1/4 285/1/4
f 283/1/4 284/1/4 285/1/4
f 285/1/4 284/1/4 286/1/4
f 287/2/4 288/2/4 289/2/4
f 289/2/4 288/2/4 290/2/4
f 291/2/4 292/2/4 296/2/4
f 292/6/4 293/6/4 297/6/4
f 296/2/4 292/2/4 297/2/4
f 297/6/4 293/6/4 298/6/4
f 298/6/4 293/6/4 299/6/4
f 299/6/4 293/6/4 300/6/4
f 298/6/4 299/6/4 303/6/4
f 303/6/4 299/6/4 304/6/4
f 300/6/4 293/6/4 305/6/4
f 293/3/4 294/3/4 306/3/4
f 305/6/4 293/6/4 306/6/4
f 294/6/4 295/6/4 307/6/4
f 306/3/4 294/3/4 307/3/4
f 301/2/4 302/2/4 308/2/4
f 305/6/4 306/6/4 309/6/4
f 308/2/4 302/2/4 309/2/4
f 304/6/4 305/6/4 309/6/4
f 306/6/4 307/6/4 309/6/4
f 303/6/4 304/6/4 309/6/4
f 302/6/4 303/6/4 309/6/4
f 307/6/4 295/6/4 310/6/4
f 309/6/4 307/6/4 310/6/4
f 311/3/4 312/3/4 313/3/4
f 313/3/4 312/3/4 314/3/4
f 311/3/4 313/3/4 315/3/4
f 313/4/4 314/4/4 315/4/4
f 314/3/4 312/3/4 316/3/4
f 315/4/4 314/4/4 316/4/4
f 311/3/4 315/3/4 319/3/4
f 315/3/4 316/3/4 319/3/4
f 316/3/4 312/3/4 320/3/4
f 319/3/4 316/3/4 320/3/4
f 317/7/4 318/7/4 321/7/4
f 321/7/4 318/7/4 322/7/4
f 323/2/4 324/2/4 326/2/4
f 324/1/4 325/1/4 327/1/4
f 326/2/4 324/2/4 327/2/4
f 327/1/4 325/1/4 328/1/4
f 328/1/4 325/1/4 331/1/4
f 329/2/4 330/2/4 332/2/4
f 330/1/4 331/1/4 333/1/4
f 332/2/4 330/2/4 333/2/4
f 331/1/4 325/1/4 334/1/4
f 333/1/4 331/1/4 334/1/4
f 334/1/4 325/1/4 337/1/4
f 335/2/4 336/2/4 338/2/4
f 336/1/4 337/1/4 338/1/4
f 338/1/4 337/1/4 339/1/4
f 337/1/4 325/1/4 340/1/4
f 339/1/4 337/1/4 340/1/4
f 338/2/4 339/2/4 341/2/4
f 335/2/4 338/2/4 341/2/4
f 341/2/4 339/2/4 342/2/4
f 343/3/4 344/3/4 345/3/4
f 345/3/4 344/3/4 346/3/4
f 343/3/4 345/3/4 347/3/4
f 345/4/4 346/4/4 347/4/4
f 346/3/4 344/3/4 348/3/4
f 347/4/4 346/4/4 348/4/4
f 343/3/4 347/3/4 349/3/4
f 347/3/4 348/3/4 349/3/4
f 348/3/4 344/3/4 350/3/4
f 349/3/4 348/3/4 350/3/4
f 351/3/4 352/3/4 353/3/4
f 353/3/4 352/3/4 354/3/4
f 351/3/4 353/3/4 355/3/4
f 353/4/4 354/4/4 355/4/4
f 354/3/4 352/3/4 356/3/4
f 355/4/4 354/4/4 356/4/4
f 351/3/4 355/3/4 357/3/4
f 355/3/4 356/3/4 357/3/4
f 356/3/4 352/3/4 358/3/4
f 357/3/4 356/3/4 358/3/4
f 365/3/5 360/3/5 359/3/5
f 366/3/5 360/3/5 365/3/5
f 367/3/5 362/3/5 361/3/5
f 368/3/5 362/3/5 367/3/5
f 369/3/5 364/3/5 363/3/5
f 370/3/5 364/3/5 369/3/5
f 377/3/5 372/3/5 371/3/5
f 378/3/5 372/3/5 377/3/5
f 379/3/5 374/3/5 373/3/5
f 380/3/5 374/3/5 379/3/5
f 381/3/5 376/3/5 375/3/5
f 382/3/5 376/3/5 381/3/5
f 389/2/5 384/2/5 383/2/5
f 390/2/5 384/2/5 389/2/5
f 391/2/5 386/2/5 385/2/5
f 392/2/5 386/2/5 391/2/5
f 397/2/5 394/2/5 393/2/5
f 398/2/5 394/2/5 397/2/5
f 399/2/5 396/2/5 395/2/5
f 400/2/5 396/2/5 399/2/5
f 401/1/5 390/1/5 389/1/5
f 402/1/5 392/1/5 391/1/5
f 403/1/5 392/1/5 402/1/5
f 405/2/5 388/2/5 387/2/5
f 406/6/5 398/6/5 397/6/5
f 407/6/5 400/6/5 399/6/5
f 408/6/5 400/6/5 407/6/5
f 408/6/5 407/6/5 406/6/5
f 409/1/5 404/1/5 403/1/5
f 409/1/5 401/1/5 389/1/5
f 409/1/5 403/1/5 402/1/5
f 409/1/5 402/1/5 401/1/5
f 410/6/5 408/6/5 406/6/5
f 410/2/5 409/2/5 408/2/5
f 411/1/5 404/1/5 409/1/5
f 411/2/5 409/2/5 410/2/5
f 412/6/5 410/6/5 406/6/5
f 412/6/5 406/6/5 397/6/5
f 413/6/5 410/6/5 412/6/5
f 414/2/5 397/2/5 393/2/5
f 414/6/5 412/6/5 397/6/5
f 415/6/5 412/6/5 414/6/5
f 416/6/5 410/6/5 413/6/5
f 417/6/5 410/6/5 416/6/5
f 418/1/5 404/1/5 411/1/5
f 419/1/5 404/1/5 418/1/5
f 420/1/5 404/1/5 419/1/5
f 421/2/5 405/2/5 404/2/5
f 421/1/5 404/1/5 420/1/5
f 422/2/5 388/2/5 405/2/5
f 422/2/5 405/2/5 421/2/5
f 423/2/5 415/2/5 414/2/5
f 423/2/5 414/2/5 393/2/5
f 424/2/5 415/2/5 423/2/5
f 425/2/5 417/2/5 416/2/5
f 426/2/5 417/2/5 425/2/5
f 427/1/5 418/1/5 411/1/5
f 428/1/5 418/1/5 427/1/5
f 429/1/5 420/1/5 419/1/5
f 430/1/5 420/1/5 429/1/5
f 431/2/5 428/2/5 427/2/5
f 432/2/5 428/2/5 431/2/5
f 433/2/5 430/2/5 429/2/5
f 434/2/5 430/2/5 433/2/5
f 435/2/5 388/2/5 422/2/5
f 436/2/5 388/2/5 435/2/5
f 439/7/5 438/7/5 437/7/5
f 440/7/5 438/7/5 439/7/5
f 443/7/5 442/7/5 441/7/5
f 444/7/5 442/7/5 443/7/5
f 445/2/6 446/2/6 447/2/6
f 447/2/6 446/2/6 448/2/6
f 449/2/6 450/2/6 451/2/6
f 451/2/6 450/2/6 452/2/6
f 453/3/6 454/3/6 457/3/6
f 457/3/6 454/3/6 458/3/6
f 455/3/6 456/3/6 459/3/6
f 459/3/6 456/3/6 460/3/6
f 461/3/6 462/3/6 463/3/6
f 463/3/6 462/3/6 464/3/6
f 465/3/6 466/3/6 467/3/6
f 467/3/6 466/3/6 468/3/6
f 469/3/6 470/3/6 473/3/6
f 473/3/6 470/3/6 474/3/6
f 471/3/6 472/3/6 475/3/6
f 475/3/6 472/3/6 476/3/6
f 477/7/6 478/7/6 479/7/6
f 479/7/6 478/7/6 480/7/6
f 481/7/6 482/7/6 483/7/6
f 483/7/6 482/7/6 484/7/6
f 485/6/6 486/6/6 487/6/6
f 487/6/6 486/6/6 488/6/6
f 485/6/6 487/6/6 489/6/6
f 488/6/6 486/6/6 490/6/6
f 485/6/6 489/6/6 491/6/6
f 489/6/6 490/6/6 491/6/6
f 490/6/6 486/6/6 492/6/6
f 491/6/6 490/6/6 492/6/6
f 493/1/6 494/1/6 495/1/6
f 495/1/6 494/1/6 496/1/6
f 497/1/6 498/1/6 499/1/6
f 499/1/6 498/1/6 500/1/6
f 501/1/6 502/1/6 503/1/6
f 503/1/6 502/1/6 504/1/6
