# MagicaVoxel @ Ephtracy

# material
mtllib coche_naranja.mtl
usemtl palette

# normals
vn -1 0 0
vn 1 0 0
vn 0 0 1
vn 0 0 -1
vn 0 -1 0
vn 0 1 0

# texcoords
vt 0.00195313 0.5
vt 0.0332031 0.5
vt 0.0605469 0.5
vt 0.0644531 0.5
vt 0.341797 0.5
vt 0.404297 0.5
vt 0.595703 0.5
vt 0.611328 0.5
vt 0.908203 0.5
vt 0.912109 0.5

# verts
v -30 2 14
v -30 2 -14
v -30 6 14
v -30 6 7
v -30 6 5
v -30 6 -5
v -30 6 -7
v -30 6 -14
v -30 14 14
v -30 14 13
v -30 14 -13
v -30 14 -14
v -30 16 14
v -30 16 13
v -30 16 -13
v -30 16 -14
v -30 18 14
v -30 18 7
v -30 18 5
v -30 18 -5
v -30 18 -7
v -30 18 -14
v -15 0 14
v -15 0 13
v -15 0 -13
v -15 0 -14
v -15 2 14
v -15 2 13
v -15 2 -13
v -15 2 -14
v -14 18 9
v -14 18 7
v -14 18 5
v -14 18 -5
v -14 18 -7
v -14 18 -9
v -14 36 9
v -14 36 -9
v -8 36 6
v -8 36 2
v -8 36 -2
v -8 36 -5
v -8 38 6
v -8 38 2
v -8 38 -2
v -8 38 -5
v 2 10 15
v 2 10 14
v 2 10 -14
v 2 10 -15
v 2 12 15
v 2 12 14
v 2 12 -14
v 2 12 -15
v 7 0 14
v 7 0 13
v 7 0 -13
v 7 0 -14
v 7 2 14
v 7 2 13
v 7 2 -13
v 7 2 -14
v 15 4 13
v 15 4 8
v 15 4 7
v 15 6 13
v 15 6 9
v 15 6 8
v 15 6 7
v 15 10 13
v 15 10 10
v 15 10 9
v 15 10 7
v 15 12 10
v 15 12 7
v -17 4 13
v -17 4 10
v -17 6 13
v -17 10 13
v -17 10 10
v -7 0 14
v -7 0 13
v -7 0 -13
v -7 0 -14
v -7 2 14
v -7 2 13
v -7 2 -13
v -7 2 -14
v -2 4 10
v -2 4 7
v -2 6 10
v -2 6 9
v -2 10 10
v -2 10 9
v -2 10 7
v -2 12 10
v -2 12 7
v 6 10 15
v 6 10 14
v 6 10 -14
v 6 10 -15
v 6 12 15
v 6 12 14
v 6 12 -14
v 6 12 -15
v 7 36 6
v 7 36 2
v 7 36 -2
v 7 36 -5
v 7 38 6
v 7 38 2
v 7 38 -2
v 7 38 -5
v 15 0 14
v 15 0 13
v 15 0 -13
v 15 0 -14
v 15 2 14
v 15 2 13
v 15 2 -13
v 15 2 -14
v 17 18 9
v 17 18 8
v 17 18 7
v 17 18 5
v 17 18 -5
v 17 18 -7
v 17 18 -8
v 17 18 -9
v 17 34 8
v 17 34 -8
v 17 36 9
v 17 36 -9
v 29 7 12
v 29 7 9
v 29 7 -9
v 29 7 -12
v 29 10 12
v 29 10 9
v 29 10 -9
v 29 10 -12
v 30 2 14
v 30 2 -14
v 30 6 14
v 30 6 7
v 30 6 5
v 30 6 -5
v 30 6 -7
v 30 6 -14
v 30 7 12
v 30 7 9
v 30 7 -9
v 30 7 -12
v 30 10 14
v 30 10 13
v 30 10 12
v 30 10 9
v 30 10 -9
v 30 10 -12
v 30 10 -13
v 30 10 -14
v 30 12 14
v 30 12 13
v 30 12 -13
v 30 12 -14
v 30 18 14
v 30 18 7
v 30 18 5
v 30 18 -5
v 30 18 -7
v 30 18 -14
v 2 10 15
v 2 12 15
v 6 10 15
v 6 12 15
v -30 2 14
v -30 6 14
v -30 14 14
v -30 16 14
v -30 18 14
v -15 0 14
v -15 2 14
v -15 6 14
v -12 2 14
v -12 4 14
v -10 2 14
v -10 4 14
v -7 0 14
v -7 2 14
v -7 6 14
v 2 10 14
v 2 12 14
v 6 10 14
v 6 12 14
v 7 0 14
v 7 2 14
v 7 6 14
v 8 10 14
v 8 14 14
v 10 2 14
v 10 4 14
v 10 12 14
v 10 16 14
v 12 2 14
v 12 4 14
v 15 0 14
v 15 2 14
v 15 6 14
v 30 2 14
v 30 6 14
v 30 10 14
v 30 12 14
v 30 18 14
v -17 4 10
v -17 10 10
v -14 6 10
v -14 10 10
v -2 4 10
v -2 6 10
v -2 10 10
v -14 18 9
v -14 36 9
v -11 18 9
v -11 34 9
v -6 18 9
v -6 34 9
v -1 18 9
v -1 34 9
v 10 18 9
v 10 34 9
v 17 18 9
v 17 36 9
v 29 7 9
v 29 10 9
v 30 7 9
v 30 10 9
v -2 4 7
v -2 10 7
v -2 12 7
v 15 4 7
v 15 6 7
v 15 10 7
v 15 12 7
v -8 36 6
v -8 38 6
v 7 36 6
v 7 38 6
v 29 7 -12
v 29 10 -12
v 30 7 -12
v 30 10 -12
v -15 0 -13
v -15 2 -13
v -7 0 -13
v -7 2 -13
v 7 0 -13
v 7 2 -13
v 15 0 -13
v 15 2 -13
v -17 4 13
v -17 6 13
v -17 10 13
v -15 0 13
v -15 2 13
v -15 4 13
v -15 6 13
v -7 0 13
v -7 2 13
v -7 4 13
v -7 6 13
v 7 0 13
v 7 2 13
v 7 4 13
v 7 6 13
v 15 0 13
v 15 2 13
v 15 4 13
v 15 6 13
v 15 10 13
v 29 7 12
v 29 10 12
v 30 7 12
v 30 10 12
v -2 10 10
v -2 12 10
v 15 10 10
v 15 12 10
v -8 36 -5
v -8 38 -5
v 7 36 -5
v 7 38 -5
v -14 18 -9
v -14 36 -9
v -11 18 -9
v -11 34 -9
v -6 18 -9
v -6 34 -9
v -1 18 -9
v -1 34 -9
v 10 18 -9
v 10 34 -9
v 17 18 -9
v 17 36 -9
v 29 7 -9
v 29 10 -9
v 30 7 -9
v 30 10 -9
v -30 2 -14
v -30 6 -14
v -30 14 -14
v -30 16 -14
v -30 18 -14
v -15 0 -14
v -15 2 -14
v -15 6 -14
v -12 2 -14
v -12 4 -14
v -10 2 -14
v -10 4 -14
v -7 0 -14
v -7 2 -14
v -7 6 -14
v 2 10 -14
v 2 12 -14
v 6 10 -14
v 6 12 -14
v 7 0 -14
v 7 2 -14
v 7 6 -14
v 8 10 -14
v 8 14 -14
v 10 2 -14
v 10 4 -14
v 10 12 -14
v 10 16 -14
v 12 2 -14
v 12 4 -14
v 15 0 -14
v 15 2 -14
v 15 6 -14
v 30 2 -14
v 30 6 -14
v 30 10 -14
v 30 12 -14
v 30 18 -14
v 2 10 -15
v 2 12 -15
v 6 10 -15
v 6 12 -15
v -15 0 14
v -7 0 14
v 7 0 14
v 15 0 14
v -15 0 13
v -7 0 13
v 7 0 13
v 15 0 13
v -15 0 -13
v -7 0 -13
v 7 0 -13
v 15 0 -13
v -15 0 -14
v -7 0 -14
v 7 0 -14
v 15 0 -14
v -30 2 14
v -15 2 14
v -7 2 14
v 7 2 14
v 15 2 14
v 30 2 14
v -29 2 13
v -19 2 13
v -15 2 13
v -7 2 13
v 7 2 13
v 15 2 13
v 18 2 13
v 28 2 13
v 29 2 13
v 15 2 8
v 18 2 8
v 28 2 8
v 29 2 8
v -19 2 7
v 15 2 7
v 18 2 7
v 28 2 7
v 29 2 7
v -19 2 -9
v -15 2 -9
v 18 2 -9
v 28 2 -9
v 29 2 -9
v -19 2 -10
v -15 2 -10
v -29 2 -13
v -19 2 -13
v -15 2 -13
v -7 2 -13
v 7 2 -13
v 15 2 -13
v 18 2 -13
v 28 2 -13
v 29 2 -13
v -30 2 -14
v -15 2 -14
v -7 2 -14
v 7 2 -14
v 15 2 -14
v 30 2 -14
v 2 10 15
v 6 10 15
v 2 10 14
v 6 10 14
v -17 10 13
v 15 10 13
v 29 10 12
v 30 10 12
v -17 10 10
v -14 10 10
v -2 10 10
v 15 10 10
v 29 10 9
v 30 10 9
v 29 10 -9
v 30 10 -9
v 29 10 -12
v 30 10 -12
v 2 10 -14
v 6 10 -14
v 2 10 -15
v 6 10 -15
v -2 12 10
v 15 12 10
v -2 12 7
v 15 12 7
v -17 4 13
v -15 4 13
v -7 4 13
v 7 4 13
v 15 4 13
v -17 4 10
v -2 4 10
v 15 4 8
v -2 4 7
v 15 4 7
v 29 7 12
v 30 7 12
v 29 7 9
v 30 7 9
v 29 7 -9
v 30 7 -9
v 29 7 -12
v 30 7 -12
v 2 12 15
v 6 12 15
v 2 12 14
v 6 12 14
v 2 12 -14
v 6 12 -14
v 2 12 -15
v 6 12 -15
v -30 18 14
v 30 18 14
v -14 18 9
v -11 18 9
v -6 18 9
v -1 18 9
v 10 18 9
v 17 18 9
v 17 18 8
v -30 18 7
v -14 18 7
v 17 18 7
v 30 18 7
v -30 18 5
v -14 18 5
v 17 18 5
v 30 18 5
v -30 18 -5
v -14 18 -5
v 17 18 -5
v 30 18 -5
v -30 18 -7
v -14 18 -7
v 17 18 -7
v 30 18 -7
v 17 18 -8
v -14 18 -9
v -11 18 -9
v -6 18 -9
v -1 18 -9
v 10 18 -9
v 17 18 -9
v -30 18 -14
v 30 18 -14
v -14 36 9
v 17 36 9
v -8 36 6
v 7 36 6
v -8 36 2
v 7 36 2
v -8 36 -2
v 7 36 -2
v -8 36 -5
v 7 36 -5
v -14 36 -9
v 17 36 -9
v -8 38 6
v 7 38 6
v -8 38 2
v 7 38 2
v -8 38 -2
v 7 38 -2
v -8 38 -5
v 7 38 -5

# faces
f 3/2/1 2/2/1 1/2/1
f 4/2/1 2/2/1 3/2/1
f 5/2/1 2/2/1 4/2/1
f 6/2/1 2/2/1 5/2/1
f 7/2/1 2/2/1 6/2/1
f 8/2/1 2/2/1 7/2/1
f 9/9/1 4/9/1 3/9/1
f 10/9/1 4/9/1 9/9/1
f 11/9/1 8/9/1 7/9/1
f 12/9/1 8/9/1 11/9/1
f 13/6/1 10/6/1 9/6/1
f 14/9/1 4/9/1 10/9/1
f 14/6/1 10/6/1 13/6/1
f 15/9/1 11/9/1 7/9/1
f 15/6/1 12/6/1 11/6/1
f 16/6/1 12/6/1 15/6/1
f 17/9/1 14/9/1 13/9/1
f 18/6/1 5/6/1 4/6/1
f 18/9/1 14/9/1 17/9/1
f 18/9/1 4/9/1 14/9/1
f 19/9/1 6/9/1 5/9/1
f 19/6/1 5/6/1 18/6/1
f 20/6/1 7/6/1 6/6/1
f 20/9/1 6/9/1 19/9/1
f 21/9/1 16/9/1 15/9/1
f 21/6/1 7/6/1 20/6/1
f 21/9/1 15/9/1 7/9/1
f 22/9/1 16/9/1 21/9/1
f 27/3/1 24/3/1 23/3/1
f 28/3/1 24/3/1 27/3/1
f 29/3/1 26/3/1 25/3/1
f 30/3/1 26/3/1 29/3/1
f 37/1/1 32/1/1 31/1/1
f 37/1/1 36/1/1 35/1/1
f 37/1/1 35/1/1 34/1/1
f 37/1/1 34/1/1 33/1/1
f 37/1/1 33/1/1 32/1/1
f 38/1/1 36/1/1 37/1/1
f 43/9/1 40/9/1 39/9/1
f 44/6/1 41/6/1 40/6/1
f 44/9/1 40/9/1 43/9/1
f 45/9/1 42/9/1 41/9/1
f 45/6/1 41/6/1 44/6/1
f 46/9/1 42/9/1 45/9/1
f 51/10/1 48/10/1 47/10/1
f 52/10/1 48/10/1 51/10/1
f 53/10/1 50/10/1 49/10/1
f 54/10/1 50/10/1 53/10/1
f 59/3/1 56/3/1 55/3/1
f 60/3/1 56/3/1 59/3/1
f 61/3/1 58/3/1 57/3/1
f 62/3/1 58/3/1 61/3/1
f 66/7/1 64/7/1 63/7/1
f 67/7/1 64/7/1 66/7/1
f 68/2/1 65/2/1 64/2/1
f 68/7/1 64/7/1 67/7/1
f 69/2/1 65/2/1 68/2/1
f 70/9/1 67/9/1 66/9/1
f 71/9/1 67/9/1 70/9/1
f 72/7/1 68/7/1 67/7/1
f 72/9/1 67/9/1 71/9/1
f 72/7/1 69/7/1 68/7/1
f 73/7/1 69/7/1 72/7/1
f 74/9/1 72/9/1 71/9/1
f 74/9/1 73/9/1 72/9/1
f 75/9/1 73/9/1 74/9/1
f 76/7/2 77/7/2 78/7/2
f 78/7/2 77/7/2 79/7/2
f 79/7/2 77/7/2 80/7/2
f 81/3/2 82/3/2 85/3/2
f 85/3/2 82/3/2 86/3/2
f 83/3/2 84/3/2 87/3/2
f 87/3/2 84/3/2 88/3/2
f 89/7/2 90/7/2 91/7/2
f 91/7/2 90/7/2 92/7/2
f 91/9/2 92/9/2 93/9/2
f 92/7/2 90/7/2 94/7/2
f 93/9/2 92/9/2 94/9/2
f 94/7/2 90/7/2 95/7/2
f 93/9/2 94/9/2 96/9/2
f 94/9/2 95/9/2 96/9/2
f 96/9/2 95/9/2 97/9/2
f 98/10/2 99/10/2 102/10/2
f 102/10/2 99/10/2 103/10/2
f 100/10/2 101/10/2 104/10/2
f 104/10/2 101/10/2 105/10/2
f 106/9/2 107/9/2 110/9/2
f 107/6/2 108/6/2 111/6/2
f 110/9/2 107/9/2 111/9/2
f 108/9/2 109/9/2 112/9/2
f 111/6/2 108/6/2 112/6/2
f 112/9/2 109/9/2 113/9/2
f 114/3/2 115/3/2 118/3/2
f 118/3/2 115/3/2 119/3/2
f 116/3/2 117/3/2 120/3/2
f 120/3/2 117/3/2 121/3/2
f 122/1/2 123/1/2 130/1/2
f 123/3/2 124/3/2 130/3/2
f 127/3/2 128/3/2 130/3/2
f 126/3/2 127/3/2 130/3/2
f 125/3/2 126/3/2 130/3/2
f 124/3/2 125/3/2 130/3/2
f 128/1/2 129/1/2 131/1/2
f 130/3/2 128/3/2 131/3/2
f 122/1/2 130/1/2 132/1/2
f 130/1/2 131/1/2 132/1/2
f 131/1/2 129/1/2 133/1/2
f 132/1/2 131/1/2 133/1/2
f 134/5/2 135/5/2 138/5/2
f 138/5/2 135/5/2 139/5/2
f 136/5/2 137/5/2 140/5/2
f 140/5/2 137/5/2 141/5/2
f 142/2/2 143/2/2 144/2/2
f 144/2/2 143/2/2 145/2/2
f 145/2/2 143/2/2 146/2/2
f 146/2/2 143/2/2 147/2/2
f 147/2/2 143/2/2 148/2/2
f 148/2/2 143/2/2 149/2/2
f 144/9/2 145/9/2 150/9/2
f 150/9/2 145/9/2 151/9/2
f 148/9/2 149/9/2 152/9/2
f 152/9/2 149/9/2 153/9/2
f 144/9/2 150/9/2 154/9/2
f 154/9/2 150/9/2 155/9/2
f 155/9/2 150/9/2 156/9/2
f 151/9/2 145/9/2 157/9/2
f 148/9/2 152/9/2 158/9/2
f 153/9/2 149/9/2 159/9/2
f 159/9/2 149/9/2 160/9/2
f 160/9/2 149/9/2 161/9/2
f 154/6/2 155/6/2 162/6/2
f 155/9/2 156/9/2 163/9/2
f 162/6/2 155/6/2 163/6/2
f 156/9/2 157/9/2 163/9/2
f 160/6/2 161/6/2 164/6/2
f 158/9/2 159/9/2 164/9/2
f 159/9/2 160/9/2 164/9/2
f 164/6/2 161/6/2 165/6/2
f 162/9/2 163/9/2 166/9/2
f 145/6/2 146/6/2 167/6/2
f 166/9/2 163/9/2 167/9/2
f 163/9/2 157/9/2 167/9/2
f 157/9/2 145/9/2 167/9/2
f 146/9/2 147/9/2 168/9/2
f 167/6/2 146/6/2 168/6/2
f 147/6/2 148/6/2 169/6/2
f 168/9/2 147/9/2 169/9/2
f 148/9/2 158/9/2 170/9/2
f 169/6/2 148/6/2 170/6/2
f 164/9/2 165/9/2 170/9/2
f 158/9/2 164/9/2 170/9/2
f 170/9/2 165/9/2 171/9/2
f 174/10/3 173/10/3 172/10/3
f 175/10/3 173/10/3 174/10/3
f 182/2/3 177/2/3 176/2/3
f 183/9/3 178/9/3 177/9/3
f 183/2/3 177/2/3 182/2/3
f 184/3/3 182/3/3 181/3/3
f 184/3/3 183/3/3 182/3/3
f 185/3/3 183/3/3 184/3/3
f 186/3/3 184/3/3 181/3/3
f 186/1/3 185/1/3 184/1/3
f 187/3/3 183/3/3 185/3/3
f 187/1/3 185/1/3 186/1/3
f 188/3/3 186/3/3 181/3/3
f 188/3/3 187/3/3 186/3/3
f 189/3/3 187/3/3 188/3/3
f 190/9/3 178/9/3 183/9/3
f 190/3/3 187/3/3 189/3/3
f 190/3/3 183/3/3 187/3/3
f 191/9/3 178/9/3 190/9/3
f 192/9/3 178/9/3 191/9/3
f 193/9/3 191/9/3 190/9/3
f 194/9/3 178/9/3 192/9/3
f 196/2/3 190/2/3 189/2/3
f 197/9/3 194/9/3 193/9/3
f 197/9/3 193/9/3 190/9/3
f 197/2/3 190/2/3 196/2/3
f 198/9/3 194/9/3 197/9/3
f 199/6/3 179/6/3 178/6/3
f 199/9/3 194/9/3 198/9/3
f 199/9/3 178/9/3 194/9/3
f 200/3/3 196/3/3 195/3/3
f 200/3/3 197/3/3 196/3/3
f 201/3/3 197/3/3 200/3/3
f 202/6/3 199/6/3 198/6/3
f 203/9/3 180/9/3 179/9/3
f 203/6/3 199/6/3 202/6/3
f 203/6/3 179/6/3 199/6/3
f 204/1/3 201/1/3 200/1/3
f 204/3/3 200/3/3 195/3/3
f 205/3/3 197/3/3 201/3/3
f 205/1/3 201/1/3 204/1/3
f 206/3/3 204/3/3 195/3/3
f 206/3/3 205/3/3 204/3/3
f 207/3/3 205/3/3 206/3/3
f 208/9/3 198/9/3 197/9/3
f 208/3/3 205/3/3 207/3/3
f 208/3/3 197/3/3 205/3/3
f 209/2/3 208/2/3 207/2/3
f 210/9/3 198/9/3 208/9/3
f 210/2/3 208/2/3 209/2/3
f 211/6/3 202/6/3 198/6/3
f 211/9/3 198/9/3 210/9/3
f 212/9/3 203/9/3 202/9/3
f 212/6/3 202/6/3 211/6/3
f 213/9/3 180/9/3 203/9/3
f 213/9/3 203/9/3 212/9/3
f 216/7/3 215/7/3 214/7/3
f 217/7/3 215/7/3 216/7/3
f 218/7/3 216/7/3 214/7/3
f 219/9/3 217/9/3 216/9/3
f 219/7/3 216/7/3 218/7/3
f 220/9/3 217/9/3 219/9/3
f 223/1/3 222/1/3 221/1/3
f 224/1/3 222/1/3 223/1/3
f 225/3/3 224/3/3 223/3/3
f 226/1/3 222/1/3 224/1/3
f 226/3/3 224/3/3 225/3/3
f 227/1/3 226/1/3 225/1/3
f 228/1/3 222/1/3 226/1/3
f 228/1/3 226/1/3 227/1/3
f 229/3/3 228/3/3 227/3/3
f 230/1/3 222/1/3 228/1/3
f 230/3/3 228/3/3 229/3/3
f 231/1/3 230/1/3 229/1/3
f 232/1/3 222/1/3 230/1/3
f 232/1/3 230/1/3 231/1/3
f 235/9/3 234/9/3 233/9/3
f 236/9/3 234/9/3 235/9/3
f 240/4/3 238/4/3 237/4/3
f 241/4/3 238/4/3 240/4/3
f 242/9/3 239/9/3 238/9/3
f 242/4/3 238/4/3 241/4/3
f 243/9/3 239/9/3 242/9/3
f 246/9/3 245/9/3 244/9/3
f 247/9/3 245/9/3 246/9/3
f 250/9/3 249/9/3 248/9/3
f 251/9/3 249/9/3 250/9/3
f 254/3/3 253/3/3 252/3/3
f 255/3/3 253/3/3 254/3/3
f 258/3/3 257/3/3 256/3/3
f 259/3/3 257/3/3 258/3/3
f 260/2/4 261/2/4 265/2/4
f 261/9/4 262/9/4 266/9/4
f 265/2/4 261/2/4 266/2/4
f 263/3/4 264/3/4 267/3/4
f 267/3/4 264/3/4 268/3/4
f 265/3/4 266/3/4 269/3/4
f 266/9/4 262/9/4 270/9/4
f 269/3/4 266/3/4 270/3/4
f 269/2/4 270/2/4 273/2/4
f 270/9/4 262/9/4 274/9/4
f 273/2/4 270/2/4 274/2/4
f 271/3/4 272/3/4 275/3/4
f 275/3/4 272/3/4 276/3/4
f 273/3/4 274/3/4 277/3/4
f 274/9/4 262/9/4 278/9/4
f 277/3/4 274/3/4 278/3/4
f 278/9/4 262/9/4 279/9/4
f 280/9/4 281/9/4 282/9/4
f 282/9/4 281/9/4 283/9/4
f 284/9/4 285/9/4 286/9/4
f 286/9/4 285/9/4 287/9/4
f 288/9/4 289/9/4 290/9/4
f 290/9/4 289/9/4 291/9/4
f 292/1/4 293/1/4 294/1/4
f 294/1/4 293/1/4 295/1/4
f 294/3/4 295/3/4 296/3/4
f 295/1/4 293/1/4 297/1/4
f 296/3/4 295/3/4 297/3/4
f 296/1/4 297/1/4 298/1/4
f 297/1/4 293/1/4 299/1/4
f 298/1/4 297/1/4 299/1/4
f 298/3/4 299/3/4 300/3/4
f 299/1/4 293/1/4 301/1/4
f 300/3/4 299/3/4 301/3/4
f 300/1/4 301/1/4 302/1/4
f 301/1/4 293/1/4 303/1/4
f 302/1/4 301/1/4 303/1/4
f 304/9/4 305/9/4 306/9/4
f 306/9/4 305/9/4 307/9/4
f 308/2/4 309/2/4 314/2/4
f 309/9/4 310/9/4 315/9/4
f 314/2/4 309/2/4 315/2/4
f 313/3/4 314/3/4 316/3/4
f 314/3/4 315/3/4 316/3/4
f 316/3/4 315/3/4 317/3/4
f 313/3/4 316/3/4 318/3/4
f 316/1/4 317/1/4 318/1/4
f 317/3/4 315/3/4 319/3/4
f 318/1/4 317/1/4 319/1/4
f 313/3/4 318/3/4 320/3/4
f 318/3/4 319/3/4 320/3/4
f 320/3/4 319/3/4 321/3/4
f 315/9/4 310/9/4 322/9/4
f 321/3/4 319/3/4 322/3/4
f 319/3/4 315/3/4 322/3/4
f 322/9/4 310/9/4 323/9/4
f 323/9/4 310/9/4 324/9/4
f 322/9/4 323/9/4 325/9/4
f 324/9/4 310/9/4 326/9/4
f 321/2/4 322/2/4 328/2/4
f 325/9/4 326/9/4 329/9/4
f 322/9/4 325/9/4 329/9/4
f 328/2/4 322/2/4 329/2/4
f 329/9/4 326/9/4 330/9/4
f 310/6/4 311/6/4 331/6/4
f 330/9/4 326/9/4 331/9/4
f 326/9/4 310/9/4 331/9/4
f 327/3/4 328/3/4 332/3/4
f 328/3/4 329/3/4 332/3/4
f 332/3/4 329/3/4 333/3/4
f 330/6/4 331/6/4 334/6/4
f 311/9/4 312/9/4 335/9/4
f 334/6/4 331/6/4 335/6/4
f 331/6/4 311/6/4 335/6/4
f 332/1/4 333/1/4 336/1/4
f 327/3/4 332/3/4 336/3/4
f 333/3/4 329/3/4 337/3/4
f 336/1/4 333/1/4 337/1/4
f 327/3/4 336/3/4 338/3/4
f 336/3/4 337/3/4 338/3/4
f 338/3/4 337/3/4 339/3/4
f 329/9/4 330/9/4 340/9/4
f 339/3/4 337/3/4 340/3/4
f 337/3/4 329/3/4 340/3/4
f 339/2/4 340/2/4 341/2/4
f 340/9/4 330/9/4 342/9/4
f 341/2/4 340/2/4 342/2/4
f 330/6/4 334/6/4 343/6/4
f 342/9/4 330/9/4 343/9/4
f 334/9/4 335/9/4 344/9/4
f 343/6/4 334/6/4 344/6/4
f 335/9/4 312/9/4 345/9/4
f 344/9/4 335/9/4 345/9/4
f 346/10/4 347/10/4 348/10/4
f 348/10/4 347/10/4 349/10/4
f 354/3/5 351/3/5 350/3/5
f 355/3/5 351/3/5 354/3/5
f 356/3/5 353/3/5 352/3/5
f 357/3/5 353/3/5 356/3/5
f 362/3/5 359/3/5 358/3/5
f 363/3/5 359/3/5 362/3/5
f 364/3/5 361/3/5 360/3/5
f 365/3/5 361/3/5 364/3/5
f 372/2/5 367/2/5 366/2/5
f 373/2/5 367/2/5 372/2/5
f 374/2/5 367/2/5 373/2/5
f 375/2/5 369/2/5 368/2/5
f 376/2/5 369/2/5 375/2/5
f 377/2/5 371/2/5 370/2/5
f 378/2/5 371/2/5 377/2/5
f 379/2/5 371/2/5 378/2/5
f 380/2/5 371/2/5 379/2/5
f 381/7/5 376/7/5 375/7/5
f 381/7/5 374/7/5 373/7/5
f 381/7/5 375/7/5 374/7/5
f 381/7/5 377/7/5 376/7/5
f 381/7/5 378/7/5 377/7/5
f 382/9/5 379/9/5 378/9/5
f 382/7/5 378/7/5 381/7/5
f 383/7/5 380/7/5 379/7/5
f 383/9/5 379/9/5 382/9/5
f 384/2/5 371/2/5 380/2/5
f 384/7/5 380/7/5 383/7/5
f 385/9/5 373/9/5 372/9/5
f 385/7/5 381/7/5 373/7/5
f 386/2/5 382/2/5 381/2/5
f 386/7/5 381/7/5 385/7/5
f 387/9/5 383/9/5 382/9/5
f 387/2/5 382/2/5 386/2/5
f 388/2/5 384/2/5 383/2/5
f 388/9/5 383/9/5 387/9/5
f 389/2/5 371/2/5 384/2/5
f 389/2/5 384/2/5 388/2/5
f 390/4/5 386/4/5 385/4/5
f 390/9/5 385/9/5 372/9/5
f 390/4/5 387/4/5 386/4/5
f 391/4/5 387/4/5 390/4/5
f 392/9/5 388/9/5 387/9/5
f 392/4/5 387/4/5 391/4/5
f 393/4/5 389/4/5 388/4/5
f 393/9/5 388/9/5 392/9/5
f 394/2/5 371/2/5 389/2/5
f 394/4/5 389/4/5 393/4/5
f 395/2/5 391/2/5 390/2/5
f 395/9/5 390/9/5 372/9/5
f 396/7/5 392/7/5 391/7/5
f 396/2/5 391/2/5 395/2/5
f 397/9/5 395/9/5 372/9/5
f 397/2/5 372/2/5 366/2/5
f 398/7/5 396/7/5 395/7/5
f 398/9/5 395/9/5 397/9/5
f 399/7/5 392/7/5 396/7/5
f 399/7/5 396/7/5 398/7/5
f 400/7/5 392/7/5 399/7/5
f 401/7/5 392/7/5 400/7/5
f 402/7/5 392/7/5 401/7/5
f 403/9/5 393/9/5 392/9/5
f 403/7/5 392/7/5 402/7/5
f 404/7/5 394/7/5 393/7/5
f 404/9/5 393/9/5 403/9/5
f 405/2/5 371/2/5 394/2/5
f 405/7/5 394/7/5 404/7/5
f 406/2/5 398/2/5 397/2/5
f 406/2/5 397/2/5 366/2/5
f 406/2/5 399/2/5 398/2/5
f 407/2/5 399/2/5 406/2/5
f 408/2/5 401/2/5 400/2/5
f 409/2/5 401/2/5 408/2/5
f 410/2/5 405/2/5 404/2/5
f 410/2/5 404/2/5 403/2/5
f 410/2/5 403/2/5 402/2/5
f 411/2/5 371/2/5 405/2/5
f 411/2/5 405/2/5 410/2/5
f 414/10/5 413/10/5 412/10/5
f 415/10/5 413/10/5 414/10/5
f 420/9/5 417/9/5 416/9/5
f 421/9/5 417/9/5 420/9/5
f 422/9/5 417/9/5 421/9/5
f 423/9/5 417/9/5 422/9/5
f 424/9/5 419/9/5 418/9/5
f 425/9/5 419/9/5 424/9/5
f 428/9/5 427/9/5 426/9/5
f 429/9/5 427/9/5 428/9/5
f 432/10/5 431/10/5 430/10/5
f 433/10/5 431/10/5 432/10/5
f 436/9/5 435/9/5 434/9/5
f 437/9/5 435/9/5 436/9/5
f 438/7/6 439/7/6 443/7/6
f 441/7/6 442/7/6 443/7/6
f 440/7/6 441/7/6 443/7/6
f 439/7/6 440/7/6 443/7/6
f 443/7/6 442/7/6 444/7/6
f 444/7/6 442/7/6 445/7/6
f 444/7/6 445/7/6 446/7/6
f 446/7/6 445/7/6 447/7/6
f 448/9/6 449/9/6 450/9/6
f 450/9/6 449/9/6 451/9/6
f 452/9/6 453/9/6 454/9/6
f 454/9/6 453/9/6 455/9/6
f 456/10/6 457/10/6 458/10/6
f 458/10/6 457/10/6 459/10/6
f 460/10/6 461/10/6 462/10/6
f 462/10/6 461/10/6 463/10/6
f 464/9/6 465/9/6 466/9/6
f 466/9/6 465/9/6 467/9/6
f 467/9/6 465/9/6 468/9/6
f 468/9/6 465/9/6 469/9/6
f 469/9/6 465/9/6 470/9/6
f 470/9/6 465/9/6 471/9/6
f 471/9/6 465/9/6 472/9/6
f 464/9/6 466/9/6 473/9/6
f 473/9/6 466/9/6 474/9/6
f 472/9/6 465/9/6 475/9/6
f 475/9/6 465/9/6 476/9/6
f 473/6/6 474/6/6 477/6/6
f 477/6/6 474/6/6 478/6/6
f 475/6/6 476/6/6 479/6/6
f 479/6/6 476/6/6 480/6/6
f 477/9/6 478/9/6 481/9/6
f 481/9/6 478/9/6 482/9/6
f 479/9/6 480/9/6 483/9/6
f 483/9/6 480/9/6 484/9/6
f 481/6/6 482/6/6 485/6/6
f 485/6/6 482/6/6 486/6/6
f 483/6/6 484/6/6 487/6/6
f 487/6/6 484/6/6 488/6/6
f 487/9/6 488/9/6 489/9/6
f 485/9/6 486/9/6 490/9/6
f 489/9/6 488/9/6 495/9/6
f 493/9/6 494/9/6 496/9/6
f 494/9/6 495/9/6 496/9/6
f 485/9/6 490/9/6 496/9/6
f 490/9/6 491/9/6 496/9/6
f 492/9/6 493/9/6 496/9/6
f 491/9/6 492/9/6 496/9/6
f 495/9/6 488/9/6 497/9/6
f 496/9/6 495/9/6 497/9/6
f 498/1/6 499/1/6 500/1/6
f 500/1/6 499/1/6 501/1/6
f 498/1/6 500/1/6 502/1/6
f 501/1/6 499/1/6 503/1/6
f 498/1/6 502/1/6 504/1/6
f 503/1/6 499/1/6 505/1/6
f 498/1/6 504/1/6 506/1/6
f 505/1/6 499/1/6 507/1/6
f 498/1/6 506/1/6 508/1/6
f 506/1/6 507/1/6 508/1/6
f 507/1/6 499/1/6 509/1/6
f 508/1/6 507/1/6 509/1/6
f 510/9/6 511/9/6 512/9/6
f 512/9/6 511/9/6 513/9/6
f 512/6/6 513/6/6 514/6/6
f 514/6/6 513/6/6 515/6/6
f 514/9/6 515/9/6 516/9/6
f 516/9/6 515/9/6 517/9/6
